# Created by DisUnity v0.3.4
v -0.0 -7.2536996E-4 -0.00176703
v 0.00160585 -0.0046528596 -0.0017015199
v 0.00144612 -7.8527E-4 -0.0015072299
v -0.0 -0.00512871 -0.00241853
v 0.00226205 -0.0046217996 0.0
v 0.00192556 3.5950998E-4 2.4483E-4
v -0.0 -0.00630029 -5.854E-4
v -0.0 0.00106455 5.5019E-4
v -0.00160585 -0.0046528596 -0.0017015199
v -0.0 -7.2536996E-4 -0.00176703
v -0.00144612 -7.8527E-4 -0.0015072299
v -0.0 -0.00512871 -0.00241853
v -0.00226205 -0.0046217996 0.0
v -0.00192556 3.5950998E-4 2.4483E-4
v -0.0 -0.00630029 -5.854E-4
v -0.0 0.00106455 5.5019E-4
v 0.0016467499 6.575E-5 0.0010647699
v -0.0 -0.0027336697 0.00241853
v -0.0 1.9148E-4 0.00176703
v 0.0018804399 -0.00290577 0.00145735
v -0.0 0.00106455 5.5019E-4
v 0.00192556 3.5950998E-4 2.4483E-4
v 0.00226205 -0.0046217996 0.0
v -0.0 -0.00488685 0.00124975
v -0.0 -0.00630029 -5.854E-4
v -0.0 -0.0027336697 0.00241853
v -0.0016467499 6.575E-5 0.0010647699
v -0.0 1.9148E-4 0.00176703
v -0.0018804399 -0.00290577 0.00145735
v -0.0 0.00106455 5.5019E-4
v -0.00192556 3.5950998E-4 2.4483E-4
v -0.00226205 -0.0046217996 0.0
v -0.0 -0.00488685 0.00124975
v -0.0 -0.00630029 -5.854E-4
v 0.0030653898 -0.0018365 -7.0099995E-5
v 0.0030653898 -0.002135 0.0058447197
v 0.0030653898 -0.0018365 0.0058447197
v 0.0030653898 -0.0018365 -7.0099995E-5
v 0.0030653898 -0.002135 -7.0099995E-5
v 0.0030653898 -0.002135 0.0058447197
v 0.0030653898 -0.002135 -7.0099995E-5
v 0.0028090898 -0.002135 0.0058447197
v 0.0030653898 -0.002135 0.0058447197
v 0.00225541 -0.002135 3.0356E-4
v 0.0028090898 -0.002135 3.0356E-4
v 0.0030653898 -0.002135 -7.0099995E-5
v 0.0028090898 -0.002135 0.0058447197
v 0.0030653898 -0.002135 -7.0099995E-5
v 0.00225541 -0.002135 -7.0099995E-5
v 0.0030653898 -0.0018365 0.0058447197
v 0.0028090898 -0.0018365 3.0356E-4
v 0.0030653898 -0.0018365 -7.0099995E-5
v 0.0028090898 -0.0018365 0.0058447197
v 0.00225541 -0.0018365 -7.0099995E-5
v 0.0030653898 -0.0018365 -7.0099995E-5
v 0.00225541 -0.002135 -7.0099995E-5
v 0.0030653898 -0.002135 -7.0099995E-5
v 0.0028090898 -0.0018365 3.0356E-4
v 0.00225541 -0.0018365 3.0356E-4
v 0.0030653898 -0.002135 0.0058447197
v 0.0028090898 -0.0018365 0.0058447197
v 0.0030653898 -0.0018365 0.0058447197
v 0.0030653898 -0.002135 0.0058447197
v 0.0028090898 -0.002135 0.0058447197
v 0.0028090898 -0.0018365 3.0356E-4
v 0.0028090898 -0.002135 0.0058447197
v 0.0028090898 -0.002135 3.0356E-4
v 0.0028090898 -0.0018365 0.0058447197
v 0.0028090898 -0.002135 0.0058447197
v 0.0028090898 -0.002135 3.0356E-4
v 0.00225541 -0.0018365 3.0356E-4
v 0.0028090898 -0.0018365 3.0356E-4
v 0.0028090898 -0.002135 3.0356E-4
v 0.00225541 -0.002135 3.0356E-4
v 0.00225541 -0.0018365 -7.0099995E-5
v 0.00218927 -0.0023131499 -2.9310997E-4
v 0.00225541 -0.002135 -7.0099995E-5
v 0.00218927 -0.0016583399 -2.9310997E-4
v 0.00225541 -0.0018365 3.0356E-4
v 0.00218927 -0.0016583399 5.2657E-4
v 0.00218927 -0.0023131499 5.2657E-4
v 0.00225541 -0.002135 3.0356E-4
v 0.00218927 -0.0023131499 -2.9310997E-4
v 0.00218927 -0.0016583399 5.2657E-4
v 0.00218927 -0.0016583399 5.2657E-4
v 0.0019015799 -0.0016583399 -2.9310997E-4
v 0.00218927 -0.0016583399 -2.9310997E-4
v 0.00218927 -0.0016583399 5.2657E-4
v 0.0019015799 -0.0016583399 5.2657E-4
v 0.0019015799 -0.0016583399 -2.9310997E-4
v 0.00218927 -0.0016583399 -2.9310997E-4
v 0.0019015799 -0.0023131499 -2.9310997E-4
v 0.0019015799 -0.0023131499 -2.9310997E-4
v 0.00218927 -0.0023131499 -2.9310997E-4
v 0.00218927 -0.0023131499 5.2657E-4
v 0.0019015799 -0.0016583399 5.2657E-4
v 0.00218927 -0.0016583399 5.2657E-4
v 0.0019015799 -0.0023131499 5.2657E-4
v 0.0019015799 -0.0016583399 5.2657E-4
v 0.00218927 -0.0023131499 -2.9310997E-4
v 0.0019015799 -0.0023131499 -2.9310997E-4
v 0.00218927 -0.0023131499 -2.9310997E-4
v 0.0019015799 -0.0023131499 5.2657E-4
v 0.00218927 -0.0023131499 5.2657E-4
vn -0.0 0.48848817 -0.8725706
vn 0.6891819 -0.31834453 -0.650911
vn 0.591646 0.38139898 -0.71027434
vn -0.0 -0.4852775 -0.87436014
vn 0.87675256 -0.29511964 -0.3797491
vn 0.5357308 0.6133407 -0.5803496
vn -0.0 -0.91039056 -0.41375008
vn -0.0 0.80125076 -0.5983287
vn -0.6891819 -0.31834453 -0.650911
vn -0.0 0.48848817 -0.8725706
vn -0.591646 0.38139898 -0.71027434
vn -0.0 -0.4852775 -0.87436014
vn -0.87675256 -0.29511964 -0.3797491
vn -0.5357308 0.6133407 -0.5803496
vn -0.0 -0.91039056 -0.41375008
vn -0.0 0.80125076 -0.5983287
vn 0.6670049 0.43713164 0.60334116
vn -0.0 -0.14478314 0.98946345
vn -0.0 0.53704727 0.8435521
vn 0.7308207 -0.112342395 0.6732609
vn -0.0 0.84647226 0.53243285
vn 0.75761735 0.49658364 0.42358086
vn 0.60763633 -0.4734131 0.63769764
vn -0.0 -0.65130144 0.7588191
vn -0.0 -0.7922472 0.6102003
vn -0.0 -0.14478314 0.98946345
vn -0.6670049 0.43713164 0.60334116
vn -0.0 0.53704727 0.8435521
vn -0.7308207 -0.112342395 0.6732609
vn -0.0 0.84647226 0.53243285
vn -0.75761735 0.49658364 0.42358086
vn -0.60763633 -0.4734131 0.63769764
vn -0.0 -0.65130144 0.7588191
vn -0.0 -0.7922472 0.6102003
vn 1.0 0.0 0.0
vn 1.0 0.0 0.0
vn 1.0 0.0 0.0
vn 1.0 0.0 0.0
vn 1.0 0.0 0.0
vn 1.0 0.0 0.0
vn -0.0 -1.0 0.0
vn -0.0 -1.0 0.0
vn -0.0 -1.0 0.0
vn -0.0 -1.0 0.0
vn -0.0 -1.0 0.0
vn -0.0 -1.0 0.0
vn -0.0 -1.0 0.0
vn -0.0 -1.0 0.0
vn -0.0 -1.0 0.0
vn -0.0 1.0 0.0
vn -0.31620944 0.94868934 0.0
vn -0.0 0.70710677 -0.70710677
vn -0.70710677 0.70710677 0.0
vn -0.0 0.70710677 -0.70710677
vn -0.0 0.70710677 -0.70710677
vn -0.0 0.0 -1.0
vn -0.0 0.0 -1.0
vn -0.31620944 0.94868934 0.0
vn -0.0 1.0 0.0
vn -0.0 0.0 1.0
vn -0.0 0.0 1.0
vn -0.0 0.0 1.0
vn -0.0 0.0 1.0
vn -0.0 0.0 1.0
vn -0.31620944 0.94868934 0.0
vn -1.0 0.0 0.0
vn -1.0 0.0 0.0
vn -0.70710677 0.70710677 0.0
vn -1.0 0.0 0.0
vn -0.0 0.0 1.0
vn -0.0 0.0 1.0
vn -0.0 0.0 1.0
vn -0.0 0.0 1.0
vn -0.0 0.0 1.0
vn 0.97250473 0.18665741 -0.1392606
vn 0.9740369 -0.15521842 -0.16480133
vn 0.97250473 -0.18665741 -0.1392606
vn 0.9740369 0.15521842 -0.16480133
vn 0.97250473 0.18665741 0.1392606
vn 0.9740369 0.15521842 0.16480133
vn 0.9740369 -0.15521842 0.16480133
vn 0.97250473 -0.18665741 0.1392606
vn 0.9740369 -0.15521842 -0.16480133
vn 0.9740369 0.15521842 0.16480133
vn -0.0 0.70710677 0.70710677
vn -0.0 0.70710677 -0.70710677
vn -0.0 0.70710677 -0.70710677
vn -0.0 0.70710677 0.70710677
vn -0.0 0.70710677 0.70710677
vn -0.0 0.70710677 -0.70710677
vn -0.0 0.70710677 -0.70710677
vn -0.0 -0.70710677 -0.70710677
vn -0.0 -0.70710677 -0.70710677
vn -0.0 -0.70710677 -0.70710677
vn -0.0 -0.70710677 0.70710677
vn -0.0 0.70710677 0.70710677
vn -0.0 0.70710677 0.70710677
vn -0.0 -0.70710677 0.70710677
vn -0.0 0.70710677 0.70710677
vn -0.0 -0.70710677 -0.70710677
vn -0.0 -0.70710677 -0.70710677
vn -0.0 -0.70710677 -0.70710677
vn -0.0 -0.70710677 0.70710677
vn -0.0 -0.70710677 0.70710677
vt 0.485414 0.95178
vt 0.235631 0.849115
vt 0.430237 0.851233
vt 0.156529 0.95178
vt 0.254822 0.75392
vt 0.485295 0.763969
vt 0.061026 0.78392
vt 0.611347 0.75172
vt 0.206418 0.25015402
vt 0.407788 0.07020402
vt 0.389223 0.18338299
vt 0.097656 0.17967099
vt 0.2562 0.333534
vt 0.470187 0.24734598
vt 0.063468 0.369748
vt 0.593129 0.216941
vt 0.486571 0.72019804
vt 0.365052 0.52998996
vt 0.566486 0.638861
vt 0.341857 0.678579
vt 0.611347 0.75172
vt 0.485295 0.763969
vt 0.254822 0.75392
vt 0.163631 0.601085
vt 0.061026 0.78392
vt 0.434678 0.508006
vt 0.485959 0.28819698
vt 0.58839 0.338297
vt 0.36335 0.37560898
vt 0.593129 0.216941
vt 0.470187 0.24734598
vt 0.2562 0.333534
vt 0.221078 0.508006
vt 0.063468 0.369748
vt 0.691866 0.855645
vt 0.658301 0.43213302
vt 0.71653 0.520306
vt 0.691866 0.855645
vt 0.652872 0.862344
vt 0.658301 0.43213302
vt 0.879665 0.864235
vt 0.774812 0.43518102
vt 0.810791 0.43213302
vt 0.792971 0.918755
vt 0.815675 0.821953
vt 0.879665 0.864235
vt 0.774812 0.43518102
vt 0.879665 0.864235
vt 0.821014 0.932337
vt 0.71653 0.520306
vt 0.753485 0.823178
vt 0.691866 0.855645
vt 0.741852 0.514083
vt 0.734274 0.92949
vt 0.691866 0.855645
vt 0.697687 0.95178
vt 0.652872 0.862344
vt 0.753485 0.823178
vt 0.765353 0.917043
vt 0.658301 0.43213302
vt 0.741852 0.514083
vt 0.71653 0.520306
vt 0.658301 0.43213302
vt 0.774812 0.43518102
vt 0.753485 0.823178
vt 0.774812 0.43518102
vt 0.815675 0.821953
vt 0.741852 0.514083
vt 0.774812 0.43518102
vt 0.815675 0.821953
vt 0.765353 0.917043
vt 0.753485 0.823178
vt 0.815675 0.821953
vt 0.792971 0.918755
vt 0.671506 0.35906798
vt 0.655379 0.364484
vt 0.662246 0.35765398
vt 0.677147 0.366889
vt 0.672911 0.347408
vt 0.679779 0.34057802
vt 0.65801 0.33817297
vt 0.663651 0.345994
vt 0.655379 0.364484
vt 0.679779 0.34057802
vt 0.679779 0.34057802
vt 0.694499 0.382419
vt 0.677147 0.366889
vt 0.679779 0.34057802
vt 0.694498 0.321782
vt 0.694499 0.382419
vt 0.677147 0.366889
vt 0.640659 0.38327998
vt 0.640659 0.38327998
vt 0.655379 0.364484
vt 0.65801 0.33817297
vt 0.694498 0.321782
vt 0.679779 0.34057802
vt 0.640659 0.32264298
vt 0.694498 0.321782
vt 0.655379 0.364484
vt 0.640659 0.38327998
vt 0.655379 0.364484
vt 0.640659 0.32264298
vt 0.65801 0.33817297

g Alert_Jammer
s 1
usemtl Alert_Jammer
f 3/3/3 2/2/2 1/1/1 
f 2/2/2 4/4/4 1/1/1 
f 5/5/5 2/2/2 3/3/3 
f 6/6/6 5/5/5 3/3/3 
f 3/3/3 1/1/1 6/6/6 
f 4/4/4 2/2/2 7/7/7 
f 2/2/2 5/5/5 7/7/7 
f 1/1/1 8/8/8 6/6/6 
f 11/11/11 10/10/10 9/9/9 
f 10/10/10 12/12/12 9/9/9 
f 11/11/11 9/9/9 13/13/13 
f 14/14/14 11/11/11 13/13/13 
f 11/11/11 14/14/14 10/10/10 
f 12/12/12 15/15/15 9/9/9 
f 15/15/15 13/13/13 9/9/9 
f 14/14/14 16/16/16 10/10/10 
f 19/19/19 18/18/18 17/17/17 
f 18/18/18 20/20/20 17/17/17 
f 19/19/19 17/17/17 21/21/21 
f 17/17/17 22/22/22 21/21/21 
f 17/17/17 20/20/20 22/22/22 
f 23/23/23 20/20/20 18/18/18 
f 20/20/20 23/23/23 22/22/22 
f 24/24/24 23/23/23 18/18/18 
f 25/25/25 23/23/23 24/24/24 
f 28/28/28 27/27/27 26/26/26 
f 27/27/27 29/29/29 26/26/26 
f 28/28/28 30/30/30 27/27/27 
f 30/30/30 31/31/31 27/27/27 
f 27/27/27 31/31/31 29/29/29 
f 26/26/26 29/29/29 32/32/32 
f 31/31/31 32/32/32 29/29/29 
f 33/33/33 26/26/26 32/32/32 
f 34/34/34 33/33/33 32/32/32 
f 37/37/37 36/36/36 35/35/35 
f 40/40/40 39/39/39 38/38/38 
f 43/43/43 42/42/42 41/41/41 
f 45/45/45 44/44/44 41/41/41 
f 47/47/47 45/45/45 46/46/46 
f 44/44/44 49/49/49 48/48/48 
f 52/52/52 51/51/51 50/50/50 
f 51/51/51 53/53/53 50/50/50 
f 55/55/55 54/54/54 51/51/51 
f 56/56/56 54/54/54 52/52/52 
f 57/57/57 56/56/56 52/52/52 
f 54/54/54 59/59/59 58/58/58 
f 62/62/62 61/61/61 60/60/60 
f 61/61/61 64/64/64 63/63/63 
f 67/67/67 66/66/66 65/65/65 
f 69/69/69 68/68/68 65/65/65 
f 72/72/72 71/71/71 70/70/70 
f 71/71/71 74/74/74 73/73/73 
f 77/77/77 76/76/76 75/75/75 
f 76/76/76 78/78/78 75/75/75 
f 75/75/75 78/78/78 79/79/79 
f 78/78/78 80/80/80 79/79/79 
f 82/82/82 81/81/81 77/77/77 
f 81/81/81 83/83/83 77/77/77 
f 79/79/79 84/84/84 82/82/82 
f 84/84/84 81/81/81 82/82/82 
f 87/87/87 86/86/86 85/85/85 
f 90/90/90 89/89/89 88/88/88 
f 92/92/92 90/90/90 91/91/91 
f 94/94/94 93/93/93 91/91/91 
f 97/97/97 96/96/96 95/95/95 
f 99/99/99 98/98/98 95/95/95 
f 98/98/98 101/101/101 100/100/100 
f 104/104/104 103/103/103 102/102/102 

