# Created by DisUnity v0.3.4
v 9.6956E-4 0.0021029399 -0.00171559
v 0.00105194 0.0043122396 -0.00309389
v 0.00147072 0.002151 -0.0031319498
v 5.2016997E-4 0.00440908 -0.00167407
v 0.0010871299 -0.0011044199 -0.00185515
v 0.00158005 -0.00102727 -0.0032617399
v 8.377E-4 -0.00384698 -0.0019909
v 0.0013481 -0.00338199 -0.0033879797
v -0.0011852 -0.00139137 0.00232855
v -0.00137171 0.0010976 0.00242796
v -0.00139902 -0.00324132 0.00222084
v -0.00182972 0.0028518098 0.00234742
v 8.421E-5 0.00117937 5.5955997E-4
v 2.8458E-4 6.1391E-4 2.2084E-4
v -7.019E-5 5.5584E-4 8.085499E-4
v 1.3017E-4 -9.62E-6 4.6982997E-4
v 4.8493998E-4 4.844E-5 -1.1788E-4
v 6.3933997E-4 6.7198E-4 -3.6685998E-4
v 4.3898E-4 0.00123744 -2.8139999E-5
v 8.4573997E-4 0.0011124599 3.6074998E-4
v 8.421E-5 0.00117937 5.5955997E-4
v 4.9097E-4 0.00105439 9.4846E-4
v 4.3898E-4 0.00123744 -2.8139999E-5
v 8.421E-5 0.00117937 5.5955997E-4
v 0.0010461 5.4698996E-4 2.2029999E-5
v 4.3898E-4 0.00123744 -2.8139999E-5
v 0.0010461 5.4698996E-4 2.2029999E-5
v 6.3933997E-4 6.7198E-4 -3.6685998E-4
v 8.917E-4 -7.654E-5 2.7102E-4
v 0.0010461 5.4698996E-4 2.2029999E-5
v 4.8493998E-4 4.844E-5 -1.1788E-4
v 5.3694E-4 -1.3461E-4 8.5872E-4
v 1.3017E-4 -9.62E-6 4.6982997E-4
v 3.3657E-4 4.3085E-4 0.00119744
v -7.019E-5 5.5584E-4 8.085499E-4
v 8.421E-5 0.00117937 5.5955997E-4
v 3.8191E-4 0.00136218 0.0011328299
v 3.3657E-4 4.3085E-4 0.00119744
v 1.4347E-4 3.9923997E-4 0.00151734
v 4.9097E-4 0.00105439 9.4846E-4
v 5.3694E-4 -1.3461E-4 8.5872E-4
v 4.5288997E-4 -4.7400998E-4 9.942501E-4
v 8.917E-4 -7.654E-5 2.7102E-4
v 0.00100076 -3.8433E-4 8.663999E-5
v 0.0010461 5.4698996E-4 2.2029999E-5
v 0.0012392 5.786E-4 -2.9787E-4
v 8.4573997E-4 0.0011124599 3.6074998E-4
v 9.2978E-4 0.0014518601 2.2523E-4
v 2.2493998E-4 0.0017101499 -4.6417E-4
v 3.8191E-4 0.00136218 0.0011328299
v -4.9929996E-4 0.0015916 7.3560997E-4
v 9.2978E-4 0.0014518601 2.2523E-4
v 6.3396996E-4 5.5576995E-4 -0.00115566
v 0.0012392 5.786E-4 -2.9787E-4
v 3.1877E-4 -7.1714993E-4 -6.4737E-4
v 0.00100076 -3.8433E-4 8.663999E-5
v -4.0546997E-4 -8.357E-4 5.5240997E-4
v 4.5288997E-4 -4.7400998E-4 9.942501E-4
v -8.145E-4 3.1868E-4 0.0012438999
v 1.4347E-4 3.9923997E-4 0.00151734
v 6.3514E-4 0.00423394 -0.00324434
v 5.6515E-4 0.0020547 -0.0019069599
v 0.0010488499 0.00210809 -0.00328251
v 1.2326E-4 0.00432687 -0.0018695298
v 6.7593995E-4 -0.0010850299 -0.00203693
v 0.00115501 -0.0010082499 -0.0034082697
v 4.2851001E-4 -0.00379754 -0.0021714598
v 9.2395E-4 -0.0033346098 -0.0035306
v -0.0015790599 -0.00137122 0.0021118498
v -0.00175593 0.00105188 0.00219823
v -0.0017921 -0.00319038 0.00200779
v -0.0017921 -0.00319038 0.00200779
v -0.00220076 0.00276659 0.0021074899
v 0.0013481 -0.00338199 -0.0033879797
v 4.2851001E-4 -0.00379754 -0.0021714598
v 8.377E-4 -0.00384698 -0.0019909
v 9.2395E-4 -0.0033346098 -0.0035306
v -0.0017921 -0.00319038 0.00200779
v -0.00139902 -0.00324132 0.00222084
v -0.0011852 -0.00139137 0.00232855
v -0.00175593 0.00105188 0.00219823
v -0.00137171 0.0010976 0.00242796
v -0.0015790599 -0.00137122 0.0021118498
v -0.00220076 0.00276659 0.0021074899
v -0.00182972 0.0028518098 0.00234742
v -0.00139902 -0.00324132 0.00222084
v -0.0017921 -0.00319038 0.00200779
v 0.00105194 0.0043122396 -0.00309389
v 0.0010488499 0.00210809 -0.00328251
v 0.00147072 0.002151 -0.0031319498
v 6.3514E-4 0.00423394 -0.00324434
v 0.00115501 -0.0010082499 -0.0034082697
v 0.00158005 -0.00102727 -0.0032617399
v 9.2395E-4 -0.0033346098 -0.0035306
v 0.0013481 -0.00338199 -0.0033879797
v 5.2016997E-4 0.00440908 -0.00167407
v 6.3514E-4 0.00423394 -0.00324434
v 0.00105194 0.0043122396 -0.00309389
v 1.2326E-4 0.00432687 -0.0018695298
v -0.00182972 0.0028518098 0.00234742
v -0.00220076 0.00276659 0.0021074899
v 1.2326E-4 0.00432687 -0.0018695298
vn 0.89869195 0.10718261 0.4252818
vn 0.92624927 0.17401889 0.33433476
vn 0.93752706 0.09537329 0.33458477
vn 0.88202626 0.18268603 0.43434477
vn 0.9137663 -0.043092683 0.40394813
vn 0.9445509 -0.042268265 0.3256335
vn 0.90935963 -0.10987028 0.40124014
vn 0.94258267 -0.10529093 0.31694096
vn 0.8752657 -0.044771954 0.4815655
vn 0.8538384 0.10159874 0.5105268
vn 0.87352014 -0.113195665 0.47344416
vn 0.8245397 0.1893722 0.5331721
vn 0.8563587 -0.0058596176 0.51634824
vn 0.8563587 -0.0058596176 0.51634824
vn 0.8563587 -0.0058596176 0.51634824
vn 0.8563587 -0.0058596176 0.51634824
vn 0.8563587 -0.0058596176 0.51634824
vn 0.8563587 -0.0058596176 0.51634824
vn 0.8563587 -0.0058596176 0.51634824
vn -0.4375144 -0.88220066 0.17407797
vn 0.1789045 -0.86668897 -0.46566448
vn 0.31062245 -0.76105255 -0.5694847
vn -0.47261932 -0.8533456 0.2200735
vn 0.1789045 -0.86668897 -0.46566448
vn -0.6931888 -0.013703243 0.72062576
vn -0.47261932 -0.8533456 0.2200735
vn -0.6931888 -0.013703243 0.72062576
vn -0.70599973 -0.13373496 0.69547063
vn -0.1789045 0.86668897 0.46566448
vn -0.6931888 -0.013703243 0.72062576
vn -0.31062245 0.76105255 0.5694847
vn 0.47261932 0.8533456 -0.2200735
vn 0.4375144 0.88220066 -0.17407797
vn 0.70599973 0.13373496 -0.69547063
vn 0.6931888 0.013703243 -0.72062576
vn 0.1789045 -0.86668897 -0.46566448
vn 0.8563587 -0.0058596176 0.51634824
vn 0.8563587 -0.0058596176 0.51634824
vn 0.8563587 -0.0058596176 0.51634824
vn 0.8563587 -0.0058596176 0.51634824
vn 0.8563587 -0.0058596176 0.51634824
vn 0.8563587 -0.0058596176 0.51634824
vn 0.8563587 -0.0058596176 0.51634824
vn 0.8563587 -0.0058596176 0.51634824
vn 0.8563587 -0.0058596176 0.51634824
vn 0.8563587 -0.0058596176 0.51634824
vn 0.8563587 -0.0058596176 0.51634824
vn 0.8563587 -0.0058596176 0.51634824
vn 0.49990314 0.84385365 -0.19495612
vn -0.07187293 0.78629905 0.6136514
vn -0.062228937 0.79823345 0.5991252
vn 0.46807444 0.87044084 -0.15244389
vn 0.81486666 0.059940007 -0.576541
vn 0.81204075 0.09677469 -0.57552105
vn 0.62191653 -0.74545753 -0.23981845
vn 0.6133181 -0.7565761 -0.22678971
vn 0.10382478 -0.8589502 0.50142306
vn 0.071934775 -0.83574957 0.5443787
vn -0.2652769 -0.100135006 0.9589583
vn -0.26927018 -0.06039733 0.961169
vn -0.9266651 -0.17454132 -0.33290726
vn -0.89884937 -0.10742734 -0.42488733
vn -0.93798214 -0.09570873 -0.3332104
vn -0.8821873 -0.18342026 -0.433708
vn -0.91394335 0.04336706 -0.40351817
vn -0.94498986 0.042512946 -0.32432526
vn -0.9094329 0.110295326 -0.40095738
vn -0.9429757 0.105626225 -0.3156579
vn -0.87509865 0.045167957 -0.48183224
vn -0.85360193 -0.10172175 -0.51089764
vn -0.87331045 0.113653965 -0.47372097
vn -0.87331045 0.113653965 -0.47372097
vn -0.82386297 -0.1903476 -0.5338705
vn 0.011932841 -0.94898134 -0.31510636
vn -0.071994394 -0.98884714 -0.13037731
vn -0.07251295 -0.9889655 -0.12918659
vn 0.011932841 -0.94898134 -0.31510636
vn -0.15335788 -0.98628193 0.061068483
vn -0.15335788 -0.98628193 0.061068483
vn -0.48717222 -0.0320753 0.8727167
vn -0.50484556 -0.08084487 0.85941553
vn -0.5043248 -0.08023419 0.85977846
vn -0.48720607 -0.032228112 0.8726921
vn -0.5143129 -0.09174132 0.8526815
vn -0.5143129 -0.09174132 0.8526815
vn -0.47892946 0.0050355806 0.87783897
vn -0.47892946 0.0050355806 0.87783897
vn 0.3264323 0.080112636 -0.9418195
vn 0.32793197 0.06485394 -0.9424726
vn 0.32793263 0.064823546 -0.9424745
vn 0.3264323 0.080112636 -0.9418195
vn 0.3264923 0.033845577 -0.9445937
vn 0.32649165 0.033906545 -0.9445918
vn 0.32353616 0.018220082 -0.94604033
vn 0.32353616 0.018220082 -0.94604033
vn -0.22834304 0.9730672 0.031617668
vn -0.14276981 0.9824504 -0.12003285
vn -0.14276981 0.9824504 -0.12003285
vn -0.22916718 0.9728237 0.033113115
vn -0.3078165 0.9334903 0.18396966
vn -0.3078165 0.9334903 0.18396966
vn -0.22916718 0.9728237 0.033113115
vt 0.448133 0.38422602
vt 0.608493 0.48734498
vt 0.446842 0.494165
vt 0.619806 0.376109
vt 0.214092 0.38518602
vt 0.213845 0.494165
vt 0.012778 0.37641
vt 0.04038 0.48735303
vt 0.210439 0.036508977
vt 0.393744 0.03287399
vt 0.073747 0.029365003
vt 0.527062 0.028035998
vt 0.792867 0.66027
vt 0.772169 0.67027104
vt 0.772935 0.645176
vt 0.748396 0.659183
vt 0.753872 0.685449
vt 0.775218 0.691621
vt 0.789816 0.680014
vt 0.833329 0.702428
vt 0.792867 0.66027
vt 0.823843 0.629551
vt 0.789816 0.680014
vt 0.792867 0.66027
vt 0.770904 0.731883
vt 0.789816 0.680014
vt 0.770904 0.731883
vt 0.775218 0.691621
vt 0.716991 0.698591
vt 0.770904 0.731883
vt 0.753872 0.685449
vt 0.716991 0.640549
vt 0.748396 0.659183
vt 0.762243 0.605054
vt 0.772935 0.645176
vt 0.792867 0.66027
vt 0.840842 0.794591
vt 0.807935 0.807775
vt 0.800765 0.795204
vt 0.834265 0.807641
vt 0.794303 0.831164
vt 0.778397 0.831246
vt 0.809194 0.856018
vt 0.800878 0.871696
vt 0.838042 0.85428
vt 0.846838 0.866984
vt 0.849759 0.829279
vt 0.865074 0.827555
vt 0.931332 0.835122
vt 0.840842 0.794591
vt 0.87371 0.731883
vt 0.865074 0.827555
vt 0.873318 0.92569
vt 0.846838 0.866984
vt 0.774395 0.92569
vt 0.800878 0.871696
vt 0.716991 0.844255
vt 0.778397 0.831246
vt 0.75879 0.74609804
vt 0.800765 0.795204
vt 0.567224 0.58187497
vt 0.433743 0.64837503
vt 0.441605 0.539467
vt 0.591932 0.668019
vt 0.231729 0.654035
vt 0.217909 0.548707
vt 0.052934 0.68681204
vt 0.08216 0.59894896
vt 0.234401 0.95013
vt 0.400549 0.949736
vt 0.130221 0.912841
vt 0.130221 0.912841
vt 0.503698 0.905777
vt 0.056642 0.575965
vt 0.052934 0.68681204
vt 0.019582 0.686797
vt 0.08216 0.59894896
vt 0.130221 0.912841
vt 0.104552 0.936637
vt 0.228888 0.981037
vt 0.400549 0.949736
vt 0.405849 0.981037
vt 0.234401 0.95013
vt 0.503698 0.905777
vt 0.52979 0.929981
vt 0.104552 0.936637
vt 0.130221 0.912841
vt 0.593029 0.558613
vt 0.441605 0.539467
vt 0.446071 0.507774
vt 0.567224 0.58187497
vt 0.217909 0.548707
vt 0.211875 0.51752496
vt 0.08216 0.59894896
vt 0.056642 0.575965
vt 0.626346 0.668889
vt 0.567224 0.58187497
vt 0.593029 0.558613
vt 0.591932 0.668019
vt 0.52979 0.929981
vt 0.503698 0.905777
vt 0.591932 0.668019

g atk_hand_arm_L_lv1
s 1
usemtl atk_hand_arm_L_lv1
f 3/3/3 2/2/2 1/1/1 
f 2/2/2 4/4/4 1/1/1 
f 3/3/3 1/1/1 5/5/5 
f 6/6/6 3/3/3 5/5/5 
f 6/6/6 5/5/5 7/7/7 
f 8/8/8 6/6/6 7/7/7 
f 5/5/5 1/1/1 9/9/9 
f 1/1/1 10/10/10 9/9/9 
f 1/1/1 4/4/4 10/10/10 
f 7/7/7 5/5/5 11/11/11 
f 5/5/5 9/9/9 11/11/11 
f 4/4/4 12/12/12 10/10/10 
f 15/15/15 14/14/14 13/13/13 
f 16/16/16 14/14/14 15/15/15 
f 17/17/17 14/14/14 16/16/16 
f 18/18/18 14/14/14 17/17/17 
f 19/19/19 14/14/14 18/18/18 
f 13/13/13 14/14/14 19/19/19 
f 22/22/22 21/21/21 20/20/20 
f 24/24/24 23/23/23 20/20/20 
f 20/20/20 26/26/26 25/25/25 
f 26/26/26 28/28/28 27/27/27 
f 30/30/30 28/28/28 29/29/29 
f 28/28/28 31/31/31 29/29/29 
f 29/29/29 31/31/31 32/32/32 
f 31/31/31 33/33/33 32/32/32 
f 32/32/32 33/33/33 34/34/34 
f 33/33/33 35/35/35 34/34/34 
f 34/34/34 35/35/35 22/22/22 
f 35/35/35 36/36/36 22/22/22 
f 39/39/39 38/38/38 37/37/37 
f 38/38/38 40/40/40 37/37/37 
f 41/41/41 38/38/38 39/39/39 
f 42/42/42 41/41/41 39/39/39 
f 43/43/43 41/41/41 42/42/42 
f 44/44/44 43/43/43 42/42/42 
f 45/45/45 43/43/43 44/44/44 
f 46/46/46 45/45/45 44/44/44 
f 47/47/47 45/45/45 46/46/46 
f 48/48/48 47/47/47 46/46/46 
f 37/37/37 40/40/40 48/48/48 
f 40/40/40 47/47/47 48/48/48 
f 51/51/51 50/50/50 49/49/49 
f 50/50/50 52/52/52 49/49/49 
f 49/49/49 52/52/52 53/53/53 
f 52/52/52 54/54/54 53/53/53 
f 53/53/53 54/54/54 55/55/55 
f 54/54/54 56/56/56 55/55/55 
f 55/55/55 56/56/56 57/57/57 
f 56/56/56 58/58/58 57/57/57 
f 57/57/57 58/58/58 59/59/59 
f 58/58/58 60/60/60 59/59/59 
f 59/59/59 60/60/60 51/51/51 
f 60/60/60 50/50/50 51/51/51 
f 63/63/63 62/62/62 61/61/61 
f 62/62/62 64/64/64 61/61/61 
f 65/65/65 62/62/62 63/63/63 
f 66/66/66 65/65/65 63/63/63 
f 67/67/67 65/65/65 66/66/66 
f 68/68/68 67/67/67 66/66/66 
f 65/65/65 69/69/69 62/62/62 
f 69/69/69 70/70/70 62/62/62 
f 62/62/62 70/70/70 64/64/64 
f 67/67/67 71/71/71 65/65/65 
f 72/72/72 69/69/69 65/65/65 
f 70/70/70 73/73/73 64/64/64 
f 76/76/76 75/75/75 74/74/74 
f 75/75/75 77/77/77 74/74/74 
f 78/78/78 75/75/75 76/76/76 
f 79/79/79 78/78/78 76/76/76 
f 82/82/82 81/81/81 80/80/80 
f 81/81/81 83/83/83 80/80/80 
f 84/84/84 81/81/81 82/82/82 
f 85/85/85 84/84/84 82/82/82 
f 80/80/80 83/83/83 86/86/86 
f 83/83/83 87/87/87 86/86/86 
f 90/90/90 89/89/89 88/88/88 
f 89/89/89 91/91/91 88/88/88 
f 92/92/92 89/89/89 90/90/90 
f 93/93/93 92/92/92 90/90/90 
f 94/94/94 92/92/92 93/93/93 
f 95/95/95 94/94/94 93/93/93 
f 98/98/98 97/97/97 96/96/96 
f 97/97/97 99/99/99 96/96/96 
f 96/96/96 99/99/99 100/100/100 
f 102/102/102 101/101/101 100/100/100 

