# Created by DisUnity v0.3.4
v 0.0018444399 -0.00405133 8.4002997E-4
v 0.00382137 -0.00188811 -2.0127E-4
v 0.00195745 -0.0035007899 -4.6386998E-4
v 0.00410412 -0.0019699 5.4985E-4
v -0.0 -0.00410753 -5.9099996E-4
v -0.0 -0.0051494003 0.00198758
v -0.0018444399 -0.00405133 8.4002997E-4
v -0.00195745 -0.0035007899 -4.6386998E-4
v -0.00382137 -0.00188811 -2.0127E-4
v -0.00410412 -0.0019699 5.4985E-4
v 0.00410412 -0.0019699 5.4985E-4
v 0.00433579 -2.787E-4 -1.7024999E-4
v 0.00382137 -0.00188811 -2.0127E-4
v 0.00459474 -1.8119E-4 3.778E-4
v 0.00411731 0.00187978 -5.0662E-4
v 0.00434619 0.0019225699 5.8989997E-5
v 0.0033703698 0.00407932 -0.00109225
v 0.0035185302 0.00425507 -3.1466997E-4
v -0.00433579 -2.787E-4 -1.7024999E-4
v -0.00410412 -0.0019699 5.4985E-4
v -0.00382137 -0.00188811 -2.0127E-4
v -0.00459474 -1.8119E-4 3.778E-4
v -0.00411731 0.00187978 -5.0662E-4
v -0.00434619 0.0019225699 5.8989997E-5
v -0.0033703698 0.00407932 -0.00109225
v -0.0035185302 0.00425507 -3.1466997E-4
v 0.0035185302 0.00425507 -3.1466997E-4
v -0.0 0.00413363 -0.0010358499
v 0.0033703698 0.00407932 -0.00109225
v -0.0 0.00427401 -1.925E-4
v -0.0 0.00413363 -0.0010358499
v -0.0035185302 0.00425507 -3.1466997E-4
v -0.0033703698 0.00407932 -0.00109225
v -0.0 0.00427401 -1.925E-4
v 0.00349289 -0.00167427 -6.364E-5
v 0.0016478499 -0.0037171198 9.7098E-4
v 0.0017608599 -0.0031665799 -3.3292E-4
v 0.00377563 -0.0017560599 6.8746996E-4
v -0.0 -0.0037165098 -4.3450002E-4
v -0.0 -0.00475838 0.00214408
v -0.0016478499 -0.0037171198 9.7098E-4
v -0.0017608599 -0.0031665799 -3.3292E-4
v -0.00349289 -0.00167427 -6.364E-5
v -0.00377563 -0.0017560599 6.8746996E-4
v 0.00396469 -2.2926E-4 -1.1259999E-5
v 0.00377563 -0.0017560599 6.8746996E-4
v 0.00349289 -0.00167427 -6.364E-5
v 0.00422363 -1.3176E-4 5.3679E-4
v 0.0037439 0.0018199299 -3.6304997E-4
v 0.00397278 0.0018627199 2.0254999E-4
v 0.00308777 0.0037011297 -9.4200997E-4
v 0.0032359299 0.00387688 -1.6442001E-4
v -0.00377563 -0.0017560599 6.8746996E-4
v -0.00396469 -2.2926E-4 -1.1259999E-5
v -0.00349289 -0.00167427 -6.364E-5
v -0.00422363 -1.3176E-4 5.3679E-4
v -0.0037439 0.0018199299 -3.6304997E-4
v -0.00397278 0.0018627199 2.0254999E-4
v -0.00308777 0.0037011297 -9.4200997E-4
v -0.0032359299 0.00387688 -1.6442001E-4
v -0.0 0.00373955 -9.588E-4
v 0.0032359299 0.00387688 -1.6442001E-4
v 0.00308777 0.0037011297 -9.4200997E-4
v -0.0 0.00387993 -1.1544E-4
v -0.0032359299 0.00387688 -1.6442001E-4
v -0.0 0.00373955 -9.588E-4
v -0.00308777 0.0037011297 -9.4200997E-4
v -0.0 0.00387993 -1.1544E-4
v 0.00411731 0.00187978 -5.0662E-4
v 0.00396469 -2.2926E-4 -1.1259999E-5
v 0.00433579 -2.787E-4 -1.7024999E-4
v 0.0037439 0.0018199299 -3.6304997E-4
v 0.00349289 -0.00167427 -6.364E-5
v 0.00382137 -0.00188811 -2.0127E-4
v 0.0017608599 -0.0031665799 -3.3292E-4
v 0.00195745 -0.0035007899 -4.6386998E-4
v -0.0 -0.0037165098 -4.3450002E-4
v -0.0 -0.00410753 -5.9099996E-4
v -0.0017608599 -0.0031665799 -3.3292E-4
v -0.00195745 -0.0035007899 -4.6386998E-4
v -0.00349289 -0.00167427 -6.364E-5
v -0.00382137 -0.00188811 -2.0127E-4
v 0.0033703698 0.00407932 -0.00109225
v 0.00308777 0.0037011297 -9.4200997E-4
v -0.00396469 -2.2926E-4 -1.1259999E-5
v -0.00433579 -2.787E-4 -1.7024999E-4
v -0.0037439 0.0018199299 -3.6304997E-4
v -0.00411731 0.00187978 -5.0662E-4
v -0.00308777 0.0037011297 -9.4200997E-4
v -0.0033703698 0.00407932 -0.00109225
v -0.0 0.00413363 -0.0010358499
v -0.0 0.00373955 -9.588E-4
v -0.0 0.00373955 -9.588E-4
v -0.0 0.00413363 -0.0010358499
v -0.0018444399 -0.00405133 8.4002997E-4
v -0.0 -0.00475838 0.00214408
v -0.0 -0.0051494003 0.00198758
v -0.0016478499 -0.0037171198 9.7098E-4
v -0.00410412 -0.0019699 5.4985E-4
v -0.00377563 -0.0017560599 6.8746996E-4
v -0.00459474 -1.8119E-4 3.778E-4
v -0.00422363 -1.3176E-4 5.3679E-4
v -0.00434619 0.0019225699 5.8989997E-5
v -0.00397278 0.0018627199 2.0254999E-4
v -0.0035185302 0.00425507 -3.1466997E-4
v -0.0032359299 0.00387688 -1.6442001E-4
v -0.0 0.00427401 -1.925E-4
v -0.0 0.00387993 -1.1544E-4
v 0.0035185302 0.00425507 -3.1466997E-4
v -0.0 0.00387993 -1.1544E-4
v -0.0 0.00427401 -1.925E-4
v 0.0032359299 0.00387688 -1.6442001E-4
v 0.00434619 0.0019225699 5.8989997E-5
v 0.00397278 0.0018627199 2.0254999E-4
v 0.00459474 -1.8119E-4 3.778E-4
v 0.00422363 -1.3176E-4 5.3679E-4
v 0.00410412 -0.0019699 5.4985E-4
v 0.00377563 -0.0017560599 6.8746996E-4
v 0.0018444399 -0.00405133 8.4002997E-4
v 0.0016478499 -0.0037171198 9.7098E-4
v -0.0 -0.0051494003 0.00198758
v -0.0 -0.00475838 0.00214408
vn 0.42195666 -0.84327245 -0.3329325
vn 0.64077175 -0.7173128 -0.27363116
vn 0.4990185 -0.80713975 -0.31544584
vn 0.64077175 -0.7173128 -0.27363116
vn -0.0 -0.92840713 -0.3715643
vn -0.0 -0.92840713 -0.3715643
vn -0.42195666 -0.84327245 -0.3329325
vn -0.4990185 -0.80713975 -0.31544584
vn -0.64077175 -0.7173128 -0.27363116
vn -0.64077175 -0.7173128 -0.27363116
vn 0.88784254 -0.27781892 -0.3668138
vn 0.91126204 -0.13434392 -0.38929832
vn 0.88784254 -0.27781892 -0.3668138
vn 0.9130418 -0.11301246 -0.39189655
vn 0.923362 0.1609589 -0.34856114
vn 0.9227739 0.13678637 -0.36024684
vn 0.9190913 0.25590503 -0.2996393
vn 0.9190913 0.25590503 -0.2996393
vn -0.91126204 -0.13434392 -0.38929832
vn -0.88784254 -0.27781892 -0.3668138
vn -0.88784254 -0.27781892 -0.3668138
vn -0.9130418 -0.11301246 -0.39189655
vn -0.923362 0.1609589 -0.34856114
vn -0.9227739 0.13678637 -0.36024684
vn -0.9190913 0.25590503 -0.2996393
vn -0.9190913 0.25590503 -0.2996393
vn 0.005432378 0.98139876 -0.19190334
vn -0.0 0.98141325 -0.19190617
vn 0.005432378 0.98139876 -0.19190334
vn -0.0 0.98141325 -0.19190617
vn -0.0 0.98141325 -0.19190617
vn -0.005432378 0.98139876 -0.19190334
vn -0.005432378 0.98139876 -0.19190334
vn -0.0 0.98141325 -0.19190617
vn -0.64077175 0.7173128 0.27363116
vn -0.41982457 0.84416604 0.33336315
vn -0.49890217 0.80721015 0.31544954
vn -0.64077175 0.7173128 0.27363116
vn -0.0 0.92840713 0.3715643
vn -0.0 0.92840713 0.3715643
vn 0.41982457 0.84416604 0.33336315
vn 0.49890217 0.80721015 0.31544954
vn 0.64077175 0.7173128 0.27363116
vn 0.64077175 0.7173128 0.27363116
vn -0.91127324 0.13425404 0.38930312
vn -0.88784254 0.27781892 0.3668138
vn -0.88784254 0.27781892 0.3668138
vn -0.91299486 0.11368564 0.39181104
vn -0.9233754 -0.16260391 0.34776118
vn -0.92271775 -0.1353832 0.36092016
vn -0.9190913 -0.25590503 0.2996393
vn -0.9190913 -0.25590503 0.2996393
vn 0.88784254 0.27781892 0.3668138
vn 0.91127324 0.13425404 0.38930312
vn 0.88784254 0.27781892 0.3668138
vn 0.91299486 0.11368564 0.39181104
vn 0.9233754 -0.16260391 0.34776118
vn 0.92271775 -0.1353832 0.36092016
vn 0.9190913 -0.25590503 0.2996393
vn 0.9190913 -0.25590503 0.2996393
vn -0.0 -0.98141325 0.19190617
vn -0.005432378 -0.98139876 0.19190334
vn -0.005432378 -0.98139876 0.19190334
vn -0.0 -0.98141325 0.19190617
vn 0.005432378 -0.98139876 0.19190334
vn -0.0 -0.98141325 0.19190617
vn 0.005432378 -0.98139876 0.19190334
vn -0.0 -0.98141325 0.19190617
vn -0.28095946 -0.2614577 -0.9234185
vn -0.3599743 -0.02575823 -0.9326066
vn -0.3600068 -0.026216162 -0.9325812
vn -0.2835213 -0.2593503 -0.9232297
vn -0.24519233 0.23112296 -0.9415216
vn -0.24299772 0.23313984 -0.9415932
vn -0.097265646 0.3398041 -0.9354532
vn -0.09702077 0.33989316 -0.93544626
vn -0.0 0.35594836 -0.9345056
vn -0.0 0.35594836 -0.9345056
vn 0.097265646 0.3398041 -0.9354532
vn 0.09702077 0.33989316 -0.93544626
vn 0.24519233 0.23112296 -0.9415216
vn 0.24299772 0.23313984 -0.9415932
vn -0.10004126 -0.3054341 -0.9469434
vn -0.103033446 -0.30629256 -0.9463451
vn 0.3599743 -0.02575823 -0.9326066
vn 0.3600068 -0.026216162 -0.9325812
vn 0.2835213 -0.2593503 -0.9232297
vn 0.28095946 -0.2614577 -0.9234185
vn 0.103033446 -0.30629256 -0.9463451
vn 0.10004126 -0.3054341 -0.9469434
vn -0.0 -0.27900726 -0.96028906
vn -0.0 -0.27900726 -0.96028906
vn -0.0 -0.27900726 -0.96028906
vn -0.0 -0.27900726 -0.96028906
vn -0.45769772 -0.16590284 0.8734924
vn -0.60762835 -0.14478095 0.7809138
vn -0.60762835 -0.14478095 0.7809138
vn -0.4550125 -0.16620821 0.87483627
vn -0.33912396 -0.10040657 0.93536806
vn -0.33885556 -0.10086622 0.9354159
vn -0.3779504 0.08588117 0.921834
vn -0.377918 0.08639958 0.92179894
vn -0.31071293 0.22013281 0.92466164
vn -0.30979952 0.22062267 0.92485124
vn -0.14005406 0.26350552 0.9544369
vn -0.13913669 0.26359367 0.9545467
vn -0.0 0.2738181 0.9617815
vn -0.0 0.2738181 0.9617815
vn 0.14005406 0.26350552 0.9544369
vn -0.0 0.2738181 0.9617815
vn -0.0 0.2738181 0.9617815
vn 0.13913669 0.26359367 0.9545467
vn 0.31071293 0.22013281 0.92466164
vn 0.30979952 0.22062267 0.92485124
vn 0.3779504 0.08588117 0.921834
vn 0.377918 0.08639958 0.92179894
vn 0.33912396 -0.10040657 0.93536806
vn 0.33885556 -0.10086622 0.9354159
vn 0.45769772 -0.16590284 0.8734924
vn 0.4550125 -0.16620821 0.87483627
vn 0.60762835 -0.14478095 0.7809138
vn 0.60762835 -0.14478095 0.7809138
vt 0.443299 0.957588
vt 0.344412 0.917329
vt 0.432388 0.910038
vt 0.342366 0.944992
vt 0.502366 0.909932
vt 0.509722 1.0
vt 0.568379 0.94737
vt 0.57143 0.898687
vt 0.659404 0.89161503
vt 0.665909 0.91856897
vt 0.342366 0.944992
vt 0.282615 0.923205
vt 0.344412 0.917329
vt 0.281926 0.944185
vt 0.207936 0.931758
vt 0.215622 0.951209
vt 0.125912 0.953416
vt 0.134927 0.979764
vt 0.721303 0.887393
vt 0.665909 0.91856897
vt 0.659404 0.89161503
vt 0.725383 0.907969
vt 0.796316 0.88373
vt 0.791889 0.90415
vt 0.880673 0.891801
vt 0.876052 0.919231
vt 0.134927 0.979764
vt 0.008556 0.964606
vt 0.125912 0.953416
vt 0.012499 1.0
vt 0.998158 0.88383603
vt 0.876052 0.919231
vt 0.880673 0.891801
vt 1.0 0.919361
vt 0.342636 0.901148
vt 0.437972 0.845096
vt 0.431847 0.896957
vt 0.334723 0.873194
vt 0.501122 0.894697
vt 0.494548 0.81413
vt 0.555393 0.835517
vt 0.569842 0.885694
vt 0.658534 0.875366
vt 0.66181 0.84651
vt 0.281222 0.90908897
vt 0.334723 0.873194
vt 0.342636 0.901148
vt 0.274987 0.887889
vt 0.206076 0.919261
vt 0.207674 0.899869
vt 0.123579 0.936928
vt 0.121224 0.901345
vt 0.66181 0.84651
vt 0.720391 0.873248
vt 0.658534 0.875366
vt 0.723106 0.851333
vt 0.796126 0.871109
vt 0.791412 0.85225
vt 0.880304 0.875171
vt 0.876867 0.839716
vt 0.007283 0.952916
vt 0.121224 0.901345
vt 0.123579 0.936928
vt 0.003156 0.930862
vt 0.876867 0.839716
vt 0.99752 0.872109
vt 0.880304 0.875171
vt 0.998018 0.849703
vt 0.207936 0.931758
vt 0.281222 0.90908897
vt 0.282615 0.923205
vt 0.206076 0.919261
vt 0.342636 0.901148
vt 0.344412 0.917329
vt 0.431847 0.896957
vt 0.432388 0.910038
vt 0.501122 0.894697
vt 0.502366 0.909932
vt 0.569842 0.885694
vt 0.57143 0.898687
vt 0.658534 0.875366
vt 0.659404 0.89161503
vt 0.125912 0.953416
vt 0.123579 0.936928
vt 0.720391 0.873248
vt 0.721303 0.887393
vt 0.796126 0.871109
vt 0.796316 0.88373
vt 0.880304 0.875171
vt 0.880673 0.891801
vt 0.008556 0.964606
vt 0.007283 0.952916
vt 0.99752 0.872109
vt 0.998158 0.88383603
vt 0.557972 0.822385
vt 0.494548 0.81413
vt 0.493594 0.802432
vt 0.555393 0.835517
vt 0.663183 0.832103
vt 0.66181 0.84651
vt 0.723962 0.838242
vt 0.723106 0.851333
vt 0.79029 0.839853
vt 0.791412 0.85225
vt 0.876056 0.82253397
vt 0.876867 0.839716
vt 0.999162 0.837211
vt 0.998018 0.849703
vt 0.119239 0.884239
vt 0.003156 0.930862
vt 0.0 0.918706
vt 0.121224 0.901345
vt 0.206773 0.887442
vt 0.207674 0.899869
vt 0.27202 0.875101
vt 0.274987 0.887889
vt 0.331033 0.859195
vt 0.334723 0.873194
vt 0.433299 0.832553
vt 0.437972 0.845096
vt 0.493594 0.802432
vt 0.494548 0.81413

g atk_body_arm_lv3
s 1
usemtl atk_body_arm_lv3
f 3/3/3 2/2/2 1/1/1 
f 2/2/2 4/4/4 1/1/1 
f 3/3/3 1/1/1 5/5/5 
f 1/1/1 6/6/6 5/5/5 
f 6/6/6 7/7/7 5/5/5 
f 7/7/7 8/8/8 5/5/5 
f 8/8/8 7/7/7 9/9/9 
f 7/7/7 10/10/10 9/9/9 
f 13/13/13 12/12/12 11/11/11 
f 12/12/12 14/14/14 11/11/11 
f 12/12/12 15/15/15 14/14/14 
f 15/15/15 16/16/16 14/14/14 
f 15/15/15 17/17/17 16/16/16 
f 17/17/17 18/18/18 16/16/16 
f 21/21/21 20/20/20 19/19/19 
f 20/20/20 22/22/22 19/19/19 
f 19/19/19 22/22/22 23/23/23 
f 22/22/22 24/24/24 23/23/23 
f 23/23/23 24/24/24 25/25/25 
f 24/24/24 26/26/26 25/25/25 
f 29/29/29 28/28/28 27/27/27 
f 28/28/28 30/30/30 27/27/27 
f 33/33/33 32/32/32 31/31/31 
f 32/32/32 34/34/34 31/31/31 
f 37/37/37 36/36/36 35/35/35 
f 36/36/36 38/38/38 35/35/35 
f 37/37/37 39/39/39 36/36/36 
f 39/39/39 40/40/40 36/36/36 
f 40/40/40 39/39/39 41/41/41 
f 39/39/39 42/42/42 41/41/41 
f 42/42/42 43/43/43 41/41/41 
f 43/43/43 44/44/44 41/41/41 
f 47/47/47 46/46/46 45/45/45 
f 46/46/46 48/48/48 45/45/45 
f 45/45/45 48/48/48 49/49/49 
f 48/48/48 50/50/50 49/49/49 
f 49/49/49 50/50/50 51/51/51 
f 50/50/50 52/52/52 51/51/51 
f 55/55/55 54/54/54 53/53/53 
f 54/54/54 56/56/56 53/53/53 
f 54/54/54 57/57/57 56/56/56 
f 57/57/57 58/58/58 56/56/56 
f 57/57/57 59/59/59 58/58/58 
f 59/59/59 60/60/60 58/58/58 
f 63/63/63 62/62/62 61/61/61 
f 62/62/62 64/64/64 61/61/61 
f 67/67/67 66/66/66 65/65/65 
f 66/66/66 68/68/68 65/65/65 
f 71/71/71 70/70/70 69/69/69 
f 70/70/70 72/72/72 69/69/69 
f 73/73/73 70/70/70 71/71/71 
f 74/74/74 73/73/73 71/71/71 
f 75/75/75 73/73/73 74/74/74 
f 76/76/76 75/75/75 74/74/74 
f 77/77/77 75/75/75 76/76/76 
f 78/78/78 77/77/77 76/76/76 
f 79/79/79 77/77/77 78/78/78 
f 80/80/80 79/79/79 78/78/78 
f 81/81/81 79/79/79 80/80/80 
f 82/82/82 81/81/81 80/80/80 
f 69/69/69 72/72/72 83/83/83 
f 72/72/72 84/84/84 83/83/83 
f 85/85/85 81/81/81 82/82/82 
f 86/86/86 85/85/85 82/82/82 
f 87/87/87 85/85/85 86/86/86 
f 88/88/88 87/87/87 86/86/86 
f 89/89/89 87/87/87 88/88/88 
f 90/90/90 89/89/89 88/88/88 
f 83/83/83 84/84/84 91/91/91 
f 84/84/84 92/92/92 91/91/91 
f 93/93/93 89/89/89 90/90/90 
f 94/94/94 93/93/93 90/90/90 
f 97/97/97 96/96/96 95/95/95 
f 96/96/96 98/98/98 95/95/95 
f 95/95/95 98/98/98 99/99/99 
f 98/98/98 100/100/100 99/99/99 
f 99/99/99 100/100/100 101/101/101 
f 100/100/100 102/102/102 101/101/101 
f 101/101/101 102/102/102 103/103/103 
f 102/102/102 104/104/104 103/103/103 
f 103/103/103 104/104/104 105/105/105 
f 104/104/104 106/106/106 105/105/105 
f 105/105/105 106/106/106 107/107/107 
f 106/106/106 108/108/108 107/107/107 
f 111/111/111 110/110/110 109/109/109 
f 110/110/110 112/112/112 109/109/109 
f 109/109/109 112/112/112 113/113/113 
f 112/112/112 114/114/114 113/113/113 
f 113/113/113 114/114/114 115/115/115 
f 114/114/114 116/116/116 115/115/115 
f 115/115/115 116/116/116 117/117/117 
f 116/116/116 118/118/118 117/117/117 
f 117/117/117 118/118/118 119/119/119 
f 118/118/118 120/120/120 119/119/119 
f 119/119/119 120/120/120 121/121/121 
f 120/120/120 122/122/122 121/121/121 

