# Created by DisUnity v0.3.4
v 0.00407065 -0.00279448 9.1424E-4
v 0.0041383 -7.5046E-4 0.0019266
v 0.0044031995 -0.00257069 7.0974E-4
v 0.00382294 -0.00100997 0.00211552
v 0.0031802498 0.00107702 0.00333769
v 0.0029963898 6.7455E-4 0.0034195797
v 0.00178596 0.00127573 0.00431288
v 0.00179009 8.2958996E-4 0.00425431
v 2.6446E-4 7.2991E-4 0.0049419096
v 4.9122E-4 3.7522E-4 0.00478295
v 0.0029963898 6.7455E-4 0.0034195797
v 0.00382294 -0.00100997 0.00211552
v -0.001477 -0.00175101 0.00406027
v -0.00107545 -0.00187617 0.0039003198
v -0.00200763 -0.0033178 0.00281774
v -0.00158225 -0.00338858 0.00268913
v 0.00230334 -0.00154467 -0.00128488
v 0.0026937 -0.0013275399 -0.00105408
v 0.00263652 -0.0013021099 -0.0014655399
v 0.00231069 -0.00153216 -9.3607994E-4
v 0.0044031995 -0.00257069 7.0974E-4
v 0.00407065 -0.00279448 9.1424E-4
v 0.0018900599 -0.00137106 -0.0013848599
v 0.0022097698 -0.00112761 -0.00158736
v 0.00126094 -0.00104246 -0.0034796398
v 0.00168974 -9.1028E-4 -0.0034457298
v 0.00155789 -3.6538E-4 -0.0049945596
v 0.00198364 -2.8357998E-4 -0.00487399
v 0.00126094 -0.00104246 -0.0034796398
v -0.00205144 -0.00119846 -1.0551E-4
v -0.00327587 -3.6968998E-4 -0.00175706
v -0.00247539 -0.00106108 -4.319E-5
v -0.00292958 -3.7951997E-4 -0.00204427
v -0.00460401 6.2159E-4 -0.0026749398
v -0.0043310896 6.569399E-4 -0.00303097
v -0.00225081 -0.0014255799 1.9442999E-4
v -0.0026756998 -0.0013025 2.7691E-4
v -0.00205144 -0.00119846 -1.0551E-4
v -0.00205477 -0.0014714899 4.3839996E-4
v -0.00246128 -0.0014259499 6.259399E-4
v -0.00225081 -0.0014255799 1.9442999E-4
v -0.00158225 -0.00338858 0.00268913
v -0.00200763 -0.0033178 0.00281774
v 8.4549E-4 0.0020688 -0.0039712596
v 0.00198364 -2.8357998E-4 -0.00487399
v 0.00115503 0.00228035 -0.0037224097
v 0.00155789 -3.6538E-4 -0.0049945596
v -0.00150339 0.0025630097 -0.00324574
v -0.00140485 0.00284361 -0.0029080398
v -0.00391707 0.0020568098 -0.00250901
v -0.0040553096 0.00218609 -0.00210075
v -0.0043310896 6.569399E-4 -0.00303097
v -0.00460401 6.2159E-4 -0.0026749398
v 0.00164265 9.6297E-4 0.0017015999
v -9.296E-5 1.6107E-4 5.1206E-4
v 5.7457E-4 9.8523E-4 0.00219018
v 0.00181406 -3.588E-5 1.8917999E-4
v -0.0015172599 -2.2553E-4 0.00132772
v -3.9891998E-4 9.2402E-4 0.0027252599
v 7.3345995E-4 6.8054E-4 -0.00258547
v -0.00150339 0.0025630097 -0.00324574
v -8.5891E-4 9.0635E-4 -0.00207846
v 8.4549E-4 0.0020688 -0.0039712596
v -0.00391707 0.0020568098 -0.00250901
v -0.00264039 7.8346994E-4 -0.0016278499
v -3.0286E-4 2.6484E-4 -2.0016E-4
v 0.00144374 4.239E-5 -4.8222998E-4
v -0.0016899 -9.983E-5 5.7915E-4
v 0.00126094 -0.00104246 -0.0034796398
v 8.4549E-4 0.0020688 -0.0039712596
v 7.3345995E-4 6.8054E-4 -0.00258547
v 0.00155789 -3.6538E-4 -0.0049945596
v 0.00144374 4.239E-5 -4.8222998E-4
v 0.0018900599 -0.00137106 -0.0013848599
v -0.00264039 7.8346994E-4 -0.0016278499
v -0.0043310896 6.569399E-4 -0.00303097
v -0.00292958 -3.7951997E-4 -0.00204427
v -0.00391707 0.0020568098 -0.00250901
v -0.00205144 -0.00119846 -1.0551E-4
v -0.0016899 -9.983E-5 5.7915E-4
v -3.9891998E-4 9.2402E-4 0.0027252599
v -0.00107545 -0.00187617 0.0039003198
v 4.9122E-4 3.7522E-4 0.00478295
v -0.0015172599 -2.2553E-4 0.00132772
v -0.00158225 -0.00338858 0.00268913
v -0.00205477 -0.0014714899 4.3839996E-4
v -0.00158225 -0.00338858 0.00268913
v -0.00176823 -1.0594E-4 9.5921E-4
v -0.00225081 -0.0014255799 1.9442999E-4
v 0.0029963898 6.7455E-4 0.0034195797
v 0.00181406 -3.588E-5 1.8917999E-4
v 0.00164265 9.6297E-4 0.0017015999
v 0.00382294 -0.00100997 0.00211552
v 0.00231069 -0.00153216 -9.3607994E-4
v 0.00407065 -0.00279448 9.1424E-4
v 0.00230334 -0.00154467 -0.00128488
v 0.0017416399 6.961E-5 -2.4033998E-4
v 0.00164265 9.6297E-4 0.0017015999
v 0.00179009 8.2958996E-4 0.00425431
v 0.0029963898 6.7455E-4 0.0034195797
v 5.7457E-4 9.8523E-4 0.00219018
v 4.9122E-4 3.7522E-4 0.00478295
v -3.9891998E-4 9.2402E-4 0.0027252599
v -9.296E-5 1.6107E-4 5.1206E-4
v 0.0017416399 6.961E-5 -2.4033998E-4
v -2.2663998E-4 2.9825998E-4 1.0366999E-4
v 0.00181406 -3.588E-5 1.8917999E-4
v -0.0015172599 -2.2553E-4 0.00132772
v -0.00176823 -1.0594E-4 9.5921E-4
v -0.0016899 -9.983E-5 5.7915E-4
v -0.00225081 -0.0014255799 1.9442999E-4
v -0.00176823 -1.0594E-4 9.5921E-4
v -0.00205144 -0.00119846 -1.0551E-4
v 0.0017416399 6.961E-5 -2.4033998E-4
v 0.0018900599 -0.00137106 -0.0013848599
v 0.00144374 4.239E-5 -4.8222998E-4
v 0.00230334 -0.00154467 -0.00128488
v -2.2663998E-4 2.9825998E-4 1.0366999E-4
v 0.00144374 4.239E-5 -4.8222998E-4
v -3.0286E-4 2.6484E-4 -2.0016E-4
v 0.0017416399 6.961E-5 -2.4033998E-4
v -0.00176823 -1.0594E-4 9.5921E-4
v -0.0016899 -9.983E-5 5.7915E-4
v -1.3457E-4 6.0911995E-4 5.0811E-4
v 0.00175793 0.00137234 0.0015546
v 5.1193E-4 0.00142475 0.00211675
v 0.00207304 3.15E-4 7.8260004E-5
v -0.0018559298 3.087E-5 0.00147625
v -6.5056E-4 0.0012916999 0.00278838
v -0.00140485 0.00284361 -0.0029080398
v 0.0010579299 9.6137E-4 -0.0024500298
v -7.8216E-4 0.0012742699 -0.001831
v 0.00115503 0.00228035 -0.0037224097
v -0.0040553096 0.00218609 -0.00210075
v -0.00283637 9.9565E-4 -0.00128278
v -2.9876E-4 7.1085995E-4 -1.4057E-4
v 0.00163734 4.3627998E-4 -5.8155996E-4
v -0.0019604599 2.5365E-4 6.4498995E-4
v 0.00115503 0.00228035 -0.0037224097
v 0.00168974 -9.1028E-4 -0.0034457298
v 0.0010579299 9.6137E-4 -0.0024500298
v 0.00198364 -2.8357998E-4 -0.00487399
v 0.00163734 4.3627998E-4 -5.8155996E-4
v 0.0022097698 -0.00112761 -0.00158736
v -0.00460401 6.2159E-4 -0.0026749398
v -0.00283637 9.9565E-4 -0.00128278
v -0.00327587 -3.6968998E-4 -0.00175706
v -0.0040553096 0.00218609 -0.00210075
v -0.00247539 -0.00106108 -4.319E-5
v -0.0019604599 2.5365E-4 6.4498995E-4
v -0.001477 -0.00175101 0.00406027
v -6.5056E-4 0.0012916999 0.00278838
v 2.6446E-4 7.2991E-4 0.0049419096
v -0.0018559298 3.087E-5 0.00147625
v -0.00200763 -0.0033178 0.00281774
v -0.00246128 -0.0014259499 6.259399E-4
v -0.0020747199 1.9271999E-4 0.00109834
v -0.0026756998 -0.0013025 2.7691E-4
v 0.00207304 3.15E-4 7.8260004E-5
v 0.0031802498 0.00107702 0.00333769
v 0.00175793 0.00137234 0.0015546
v 0.0041383 -7.5046E-4 0.0019266
v 0.0026937 -0.0013275399 -0.00105408
v 0.0044031995 -0.00257069 7.0974E-4
v 0.00263652 -0.0013021099 -0.0014655399
v 0.00199153 4.3655E-4 -3.1378E-4
v 0.00178596 0.00127573 0.00431288
v 0.00175793 0.00137234 0.0015546
v 0.0031802498 0.00107702 0.00333769
v 5.1193E-4 0.00142475 0.00211675
v 2.6446E-4 7.2991E-4 0.0049419096
v -6.5056E-4 0.0012916999 0.00278838
v 0.00199153 4.3655E-4 -3.1378E-4
v -1.3457E-4 6.0911995E-4 5.0811E-4
v -2.3787998E-4 7.4435E-4 1.6178E-4
v 0.00207304 3.15E-4 7.8260004E-5
v -0.0018559298 3.087E-5 0.00147625
v -0.0020747199 1.9271999E-4 0.00109834
v -0.0026756998 -0.0013025 2.7691E-4
v -0.0019604599 2.5365E-4 6.4498995E-4
v -0.0020747199 1.9271999E-4 0.00109834
v -0.00247539 -0.00106108 -4.319E-5
v 0.0022097698 -0.00112761 -0.00158736
v 0.00199153 4.3655E-4 -3.1378E-4
v 0.00163734 4.3627998E-4 -5.8155996E-4
v 0.00263652 -0.0013021099 -0.0014655399
v 0.00163734 4.3627998E-4 -5.8155996E-4
v -2.3787998E-4 7.4435E-4 1.6178E-4
v -2.9876E-4 7.1085995E-4 -1.4057E-4
v 0.00199153 4.3655E-4 -3.1378E-4
v -0.0020747199 1.9271999E-4 0.00109834
v -0.0019604599 2.5365E-4 6.4498995E-4
vn 0.66287464 -0.34980983 0.6619896
vn 0.6673319 -0.27983016 0.69019073
vn 0.66288173 -0.34978306 0.66199666
vn 0.6672044 -0.28358167 0.68878126
vn 0.61526334 -0.15305287 0.77332133
vn 0.6177488 -0.1557114 0.77080506
vn 0.49051088 -0.11069456 0.86437595
vn 0.48745835 -0.11130483 0.86602294
vn 0.28614667 -0.2729014 0.9185015
vn 0.27339017 -0.28636077 0.91828936
vn 0.6177488 -0.1557114 0.77080506
vn 0.6672044 -0.28358167 0.68878126
vn 0.12238017 -0.537191 0.8345352
vn 0.12219811 -0.5393014 0.83319956
vn 0.11243317 -0.642157 0.758283
vn 0.11243317 -0.642157 0.758283
vn 0.2722936 -0.82600605 -0.49352834
vn 0.3533199 -0.8548101 -0.38008514
vn 0.27772638 -0.8286623 -0.48599067
vn 0.347191 -0.85277873 -0.3901626
vn 0.14795874 -0.74058723 -0.6554682
vn 0.14795874 -0.74058723 -0.6554682
vn 0.1982813 -0.80408156 -0.56047964
vn 0.19370577 -0.80088645 -0.5666206
vn 0.33842736 -0.8949754 -0.29066485
vn 0.34117365 -0.8947911 -0.2880093
vn 0.28578258 -0.89610726 -0.3395881
vn 0.28578258 -0.89610726 -0.3395881
vn 0.33842736 -0.8949754 -0.29066485
vn -0.31410357 -0.815534 -0.4860487
vn -0.32777333 -0.8897795 -0.31758
vn -0.31422254 -0.81439674 -0.48787507
vn -0.32768968 -0.889862 -0.3174351
vn -0.36327398 -0.8491449 -0.38338634
vn -0.36327398 -0.8491449 -0.38338634
vn -0.2908806 -0.85796183 -0.42342642
vn -0.29152018 -0.85551643 -0.42791077
vn -0.31410357 -0.815534 -0.4860487
vn -0.29075274 -0.8822683 -0.3702237
vn -0.28773272 -0.8895359 -0.3548744
vn -0.2908806 -0.85796183 -0.42342642
vn -0.32384357 -0.7505687 -0.5759965
vn -0.32384357 -0.7505687 -0.5759965
vn 0.11582032 0.62961084 -0.768229
vn 0.25090042 0.45025346 -0.8569252
vn 0.10996017 0.63638335 -0.7634952
vn 0.25090042 0.45025346 -0.8569252
vn -0.1824425 0.80969924 -0.557765
vn -0.1840318 0.809923 -0.5569174
vn -0.57821983 0.6520157 -0.49044615
vn -0.58115524 0.6493971 -0.49045077
vn -0.77440614 0.42486438 -0.4688127
vn -0.77440614 0.42486438 -0.4688127
vn 0.06860719 -0.87077415 0.486873
vn 0.2219026 -0.87988913 0.4201836
vn 0.22267088 -0.87987965 0.4197969
vn 0.06860719 -0.87077415 0.486873
vn 0.35792983 -0.8664112 0.34816366
vn 0.35792983 -0.8664112 0.34816366
vn -0.27338907 -0.823097 -0.49776465
vn -0.22135499 -0.63400376 -0.7409731
vn -0.17337854 -0.8216025 -0.54305536
vn -0.33345303 -0.63928616 -0.69290847
vn -0.12534392 -0.6223552 -0.7726337
vn -0.073185176 -0.78004164 -0.621433
vn -0.08658248 -0.94908077 -0.30290133
vn -0.18595278 -0.9511272 -0.24653316
vn 0.0073550846 -0.9359573 -0.3520369
vn -0.95952016 -0.27638087 -0.054171383
vn -0.95278555 -0.16724637 -0.2534332
vn -0.958355 -0.28245255 -0.042146623
vn -0.95278555 -0.16724637 -0.2534332
vn -0.89885545 -0.39168513 0.19657506
vn -0.89885545 -0.39168513 0.19657506
vn 0.7797748 0.033510476 -0.62516266
vn 0.6300154 0.10868016 -0.7689404
vn 0.7953853 0.02426258 -0.60561836
vn 0.6300154 0.10868016 -0.7689404
vn 0.90502673 -0.055026747 -0.4217802
vn 0.90502673 -0.055026747 -0.4217802
vn 0.8283474 -0.3748347 -0.41634053
vn 0.89678705 -0.26335338 -0.35555297
vn 0.8283474 -0.3748347 -0.41634053
vn 0.893912 -0.16242401 -0.41777948
vn 0.94801366 -0.14203572 -0.2847734
vn 0.88683665 -0.0329611 -0.46090603
vn 0.94801366 -0.14203572 -0.2847734
vn 0.813173 0.05050859 -0.57982635
vn 0.813173 0.05050859 -0.57982635
vn -0.6586349 -0.6474344 0.3834433
vn -0.7976733 -0.51271796 0.31754947
vn -0.6586349 -0.6474344 0.3834433
vn -0.7064596 -0.56866515 0.42134872
vn -0.8749649 -0.4246795 0.23255894
vn -0.7447265 -0.49013633 0.4529336
vn -0.93343824 -0.35475844 0.05328701
vn -0.93343824 -0.35475844 0.05328701
vn -0.104129754 -0.99350536 -0.04586959
vn 0.0033570512 -0.9908794 -0.1347093
vn -0.104129754 -0.99350536 -0.04586959
vn 0.010010369 -0.9900804 -0.14014517
vn 0.11472013 -0.9678119 -0.2240079
vn 0.11472013 -0.9678119 -0.2240079
vn -0.04165818 -0.95499486 -0.29368258
vn -0.14691779 -0.9591773 -0.24164835
vn -0.0471216 -0.9555246 -0.29112235
vn -0.14691779 -0.9591773 -0.24164835
vn 0.058993403 -0.9387673 -0.33946386
vn 0.058993403 -0.9387673 -0.33946386
vn 0.87706673 -0.4320327 0.21000405
vn 0.87706673 -0.4320327 0.21000405
vn 0.87706673 -0.4320327 0.21000405
vn 0.87706673 -0.4320327 0.21000405
vn -0.44612542 -0.5844371 0.67779446
vn -0.44612542 -0.5844371 0.67779446
vn -0.44612542 -0.5844371 0.67779446
vn -0.44612542 -0.5844371 0.67779446
vn 0.10278796 -0.989273 0.10379508
vn -0.09030708 -0.9811395 0.17090896
vn 0.08307337 -0.9903493 0.11093743
vn -0.09030708 -0.9811395 0.17090896
vn 0.27415103 -0.96088666 0.039216753
vn 0.27415103 -0.96088666 0.039216753
vn -0.24464267 0.8671753 -0.43377078
vn -0.061496142 0.85609335 -0.51314944
vn -0.24534787 0.86715627 -0.4334103
vn -0.061496142 0.85609335 -0.51314944
vn -0.40505368 0.84666955 -0.34508303
vn -0.40505368 0.84666955 -0.34508303
vn 0.21897653 0.6235719 0.7504715
vn 0.29726017 0.8184726 0.49166954
vn 0.17057198 0.8176102 0.54992604
vn 0.35124335 0.6284476 0.6940329
vn 0.105045855 0.60961384 0.78570753
vn 0.038698386 0.7755242 0.6301306
vn 0.07339853 0.9516477 0.29829404
vn 0.21171267 0.9504943 0.22746064
vn -0.056276746 0.9322286 0.35746723
vn 0.94612724 0.18177266 0.267959
vn 0.95290786 0.29374942 0.07535245
vn 0.9510789 0.30369946 0.056705214
vn 0.94612724 0.18177266 0.267959
vn 0.8909468 0.4170143 -0.17975806
vn 0.8909468 0.4170143 -0.17975806
vn -0.60649693 -0.07855498 0.7911957
vn -0.76060617 0.015564928 0.64902693
vn -0.7695292 0.021851394 0.6382377
vn -0.60649693 -0.07855498 0.7911957
vn -0.88355136 0.11807746 0.453205
vn -0.88355136 0.11807746 0.453205
vn -0.8923472 0.27815083 0.35545564
vn -0.8163744 0.39704788 0.41938752
vn -0.8163744 0.39704788 0.41938752
vn -0.88898546 0.2036222 0.41017422
vn -0.94528943 0.15729392 0.28580862
vn -0.9033622 0.101200975 0.41676742
vn -0.84931374 0.049440805 0.525568
vn -0.84931374 0.049440805 0.525568
vn 0.7844015 0.5337787 -0.31590304
vn 0.64893734 0.6619082 -0.37517694
vn 0.64893734 0.6619082 -0.37517694
vn 0.7008261 0.5767021 -0.41983038
vn 0.8511495 0.45473582 -0.2622208
vn 0.7390199 0.4973087 -0.45445982
vn 0.91306245 0.3989422 -0.08462873
vn 0.91306245 0.3989422 -0.08462873
vn -0.009186307 0.9914498 0.13016479
vn 0.113989435 0.99291354 0.033601705
vn 0.113989435 0.99291354 0.033601705
vn -0.014649009 0.9908223 0.13437414
vn -0.13477014 0.9648761 0.22550195
vn -0.13477014 0.9648761 0.22550195
vn 0.18510166 0.94165325 0.2811165
vn 0.051088475 0.93537074 0.3499591
vn 0.063449025 0.93684214 0.34394926
vn 0.18510166 0.94165325 0.2811165
vn -0.072086476 0.9111218 0.405784
vn -0.072086476 0.9111218 0.405784
vn -0.8763618 0.445887 -0.18213919
vn -0.8763618 0.445887 -0.18213919
vn -0.8763618 0.445887 -0.18213919
vn -0.8763618 0.445887 -0.18213919
vn 0.46059835 0.5982101 -0.6557391
vn 0.46059835 0.5982101 -0.6557391
vn 0.46059835 0.5982101 -0.6557391
vn 0.46059835 0.5982101 -0.6557391
vn 0.10761032 0.9847595 -0.13663398
vn -0.09769057 0.9936605 -0.055635706
vn -0.066775694 0.99544 -0.06811853
vn 0.10761032 0.9847595 -0.13663398
vn -0.26978943 0.9627881 0.015900485
vn -0.26978943 0.9627881 0.015900485
vt 0.017521 0.807235
vt 0.0 0.722701
vt 0.0 0.81651497
vt 0.019009 0.72598004
vt 0.02878 0.60878503
vt 0.04763 0.618943
vt 0.077994 0.545339
vt 0.092937 0.558335
vt 0.138107 0.492554
vt 0.148427 0.510615
vt 0.04763 0.618943
vt 0.019009 0.72598004
vt 0.282019 0.468314
vt 0.281545 0.48660398
vt 0.359575 0.491023
vt 0.348499 0.504745
vt 0.126488 0.870148
vt 0.100914 0.873317
vt 0.115042 0.889865
vt 0.116684 0.854463
vt 0.0 0.81651497
vt 0.017521 0.807235
vt 0.150043 0.872599
vt 0.139295 0.893032
vt 0.214109 0.945007
vt 0.199395 0.956594
vt 0.24386 0.984658
vt 0.238197 1.0
vt 0.214109 0.945007
vt 0.400053 0.639059
vt 0.483618 0.69755
vt 0.420469 0.630569
vt 0.470211 0.711802
vt 0.536876 0.74565196
vt 0.521433 0.752407
vt 0.399154 0.617696
vt 0.420528 0.608849
vt 0.400053 0.639059
vt 0.386555 0.605649
vt 0.405976 0.593778
vt 0.399154 0.617696
vt 0.348499 0.504745
vt 0.359575 0.491023
vt 0.345333 0.977051
vt 0.238197 1.0
vt 0.353207 0.994156
vt 0.24386 0.984658
vt 0.437905 0.898975
vt 0.451463 0.913473
vt 0.525253 0.81171
vt 0.543667 0.8184
vt 0.521433 0.752407
vt 0.536876 0.74565196
vt 0.141819 0.67196
vt 0.251412 0.70496297
vt 0.179571 0.633475
vt 0.159826 0.763687
vt 0.305326 0.62938297
vt 0.212214 0.597479
vt 0.288186 0.886642
vt 0.437905 0.898975
vt 0.355904 0.82659
vt 0.345333 0.977051
vt 0.525253 0.81171
vt 0.433182 0.764986
vt 0.279879 0.738361
vt 0.192352 0.790954
vt 0.332004 0.662163
vt 0.214109 0.945007
vt 0.345333 0.977051
vt 0.288186 0.886642
vt 0.24386 0.984658
vt 0.192352 0.790954
vt 0.150043 0.872599
vt 0.433182 0.764986
vt 0.521433 0.752407
vt 0.470211 0.711802
vt 0.525253 0.81171
vt 0.400053 0.639059
vt 0.332004 0.662163
vt 0.212214 0.597479
vt 0.281545 0.48660398
vt 0.148427 0.510615
vt 0.305326 0.62938297
vt 0.348499 0.504745
vt 0.386555 0.605649
vt 0.348499 0.504745
vt 0.32289 0.64521503
vt 0.399154 0.617696
vt 0.04763 0.618943
vt 0.159826 0.763687
vt 0.141819 0.67196
vt 0.019009 0.72598004
vt 0.116684 0.854463
vt 0.017521 0.807235
vt 0.126488 0.870148
vt 0.174639 0.781721
vt 0.141819 0.67196
vt 0.092937 0.558335
vt 0.04763 0.618943
vt 0.179571 0.633475
vt 0.148427 0.510615
vt 0.212214 0.597479
vt 0.251412 0.70496297
vt 0.174639 0.781721
vt 0.269644 0.725592
vt 0.159826 0.763687
vt 0.305326 0.62938297
vt 0.32289 0.64521503
vt 0.332004 0.662163
vt 0.399154 0.617696
vt 0.32289 0.64521503
vt 0.400053 0.639059
vt 0.174639 0.781721
vt 0.150043 0.872599
vt 0.192352 0.790954
vt 0.126488 0.870148
vt 0.269644 0.725592
vt 0.192352 0.790954
vt 0.279879 0.738361
vt 0.174639 0.781721
vt 0.32289 0.64521503
vt 0.332004 0.662163
vt 0.79308 0.715007
vt 0.88685 0.778839
vt 0.888728 0.71893096
vt 0.817735 0.835979
vt 0.812602 0.604766
vt 0.897127 0.662549
vt 0.554359 0.729212
vt 0.660805 0.837893
vt 0.65406 0.73068
vt 0.572318 0.849317
vt 0.543667 0.599589
vt 0.639488 0.612244
vt 0.754526 0.719578
vt 0.775488 0.829613
vt 0.767522 0.61409104
vt 0.572318 0.849317
vt 0.674744 0.947465
vt 0.660805 0.837893
vt 0.611801 0.968368
vt 0.775488 0.829613
vt 0.752496 0.923826
vt 0.564012 0.525643
vt 0.639488 0.612244
vt 0.648033 0.534926
vt 0.543667 0.599589
vt 0.737268 0.540546
vt 0.767522 0.61409104
vt 0.942901 0.52272403
vt 0.897127 0.662549
vt 1.0 0.652333
vt 0.812602 0.604766
vt 0.887364 0.44533098
vt 0.777733 0.524004
vt 0.789109 0.605438
vt 0.755464 0.525887
vt 0.817735 0.835979
vt 0.984844 0.807718
vt 0.88685 0.778839
vt 0.941087 0.911565
vt 0.792201 0.934778
vt 0.896935 1.0
vt 0.771366 0.939154
vt 0.796595 0.83735096
vt 1.0 0.73177004
vt 0.88685 0.778839
vt 0.984844 0.807718
vt 0.888728 0.71893096
vt 1.0 0.652333
vt 0.897127 0.662549
vt 0.796595 0.83735096
vt 0.79308 0.715007
vt 0.77028 0.71708703
vt 0.817735 0.835979
vt 0.812602 0.604766
vt 0.789109 0.605438
vt 0.755464 0.525887
vt 0.767522 0.61409104
vt 0.789109 0.605438
vt 0.737268 0.540546
vt 0.752496 0.923826
vt 0.796595 0.83735096
vt 0.775488 0.829613
vt 0.771366 0.939154
vt 0.775488 0.829613
vt 0.77028 0.71708703
vt 0.754526 0.719578
vt 0.796595 0.83735096
vt 0.789109 0.605438
vt 0.767522 0.61409104

g atk_forearm_arm_R_lv3
s 1
usemtl atk_forearm_arm_R_lv3
f 3/3/3 2/2/2 1/1/1 
f 2/2/2 4/4/4 1/1/1 
f 4/4/4 2/2/2 5/5/5 
f 5/5/5 7/7/7 6/6/6 
f 7/7/7 9/9/9 8/8/8 
f 9/9/9 10/10/10 8/8/8 
f 7/7/7 8/8/8 11/11/11 
f 11/11/11 12/12/12 5/5/5 
f 9/9/9 13/13/13 10/10/10 
f 13/13/13 14/14/14 10/10/10 
f 13/13/13 15/15/15 14/14/14 
f 15/15/15 16/16/16 14/14/14 
f 19/19/19 18/18/18 17/17/17 
f 18/18/18 20/20/20 17/17/17 
f 18/18/18 21/21/21 20/20/20 
f 21/21/21 22/22/22 20/20/20 
f 19/19/19 17/17/17 23/23/23 
f 24/24/24 19/19/19 23/23/23 
f 24/24/24 23/23/23 25/25/25 
f 26/26/26 24/24/24 25/25/25 
f 28/28/28 26/26/26 27/27/27 
f 26/26/26 29/29/29 27/27/27 
f 32/32/32 31/31/31 30/30/30 
f 31/31/31 33/33/33 30/30/30 
f 31/31/31 34/34/34 33/33/33 
f 34/34/34 35/35/35 33/33/33 
f 37/37/37 32/32/32 36/36/36 
f 32/32/32 38/38/38 36/36/36 
f 40/40/40 37/37/37 39/39/39 
f 37/37/37 41/41/41 39/39/39 
f 40/40/40 39/39/39 42/42/42 
f 43/43/43 40/40/40 42/42/42 
f 46/46/46 45/45/45 44/44/44 
f 45/45/45 47/47/47 44/44/44 
f 46/46/46 44/44/44 48/48/48 
f 49/49/49 46/46/46 48/48/48 
f 49/49/49 48/48/48 50/50/50 
f 51/51/51 49/49/49 50/50/50 
f 51/51/51 50/50/50 52/52/52 
f 53/53/53 51/51/51 52/52/52 
f 56/56/56 55/55/55 54/54/54 
f 55/55/55 57/57/57 54/54/54 
f 58/58/58 55/55/55 56/56/56 
f 59/59/59 58/58/58 56/56/56 
f 62/62/62 61/61/61 60/60/60 
f 61/61/61 63/63/63 60/60/60 
f 64/64/64 61/61/61 62/62/62 
f 65/65/65 64/64/64 62/62/62 
f 62/62/62 60/60/60 66/66/66 
f 60/60/60 67/67/67 66/66/66 
f 66/66/66 68/68/68 62/62/62 
f 68/68/68 65/65/65 62/62/62 
f 71/71/71 70/70/70 69/69/69 
f 70/70/70 72/72/72 69/69/69 
f 71/71/71 69/69/69 73/73/73 
f 69/69/69 74/74/74 73/73/73 
f 77/77/77 76/76/76 75/75/75 
f 76/76/76 78/78/78 75/75/75 
f 79/79/79 77/77/77 75/75/75 
f 80/80/80 79/79/79 75/75/75 
f 83/83/83 82/82/82 81/81/81 
f 82/82/82 84/84/84 81/81/81 
f 82/82/82 85/85/85 84/84/84 
f 87/87/87 86/86/86 84/84/84 
f 84/84/84 86/86/86 88/88/88 
f 86/86/86 89/89/89 88/88/88 
f 92/92/92 91/91/91 90/90/90 
f 91/91/91 93/93/93 90/90/90 
f 91/91/91 94/94/94 93/93/93 
f 94/94/94 95/95/95 93/93/93 
f 96/96/96 94/94/94 91/91/91 
f 97/97/97 96/96/96 91/91/91 
f 100/100/100 99/99/99 98/98/98 
f 99/99/99 101/101/101 98/98/98 
f 101/101/101 99/99/99 102/102/102 
f 103/103/103 101/101/101 102/102/102 
f 106/106/106 105/105/105 104/104/104 
f 105/105/105 107/107/107 104/104/104 
f 106/106/106 104/104/104 108/108/108 
f 109/109/109 106/106/106 108/108/108 
f 112/112/112 111/111/111 110/110/110 
f 111/111/111 113/113/113 110/110/110 
f 116/116/116 115/115/115 114/114/114 
f 115/115/115 117/117/117 114/114/114 
f 120/120/120 119/119/119 118/118/118 
f 119/119/119 121/121/121 118/118/118 
f 118/118/118 122/122/122 120/120/120 
f 122/122/122 123/123/123 120/120/120 
f 126/126/126 125/125/125 124/124/124 
f 125/125/125 127/127/127 124/124/124 
f 126/126/126 124/124/124 128/128/128 
f 129/129/129 126/126/126 128/128/128 
f 132/132/132 131/131/131 130/130/130 
f 131/131/131 133/133/133 130/130/130 
f 132/132/132 130/130/130 134/134/134 
f 135/135/135 132/132/132 134/134/134 
f 132/132/132 136/136/136 131/131/131 
f 136/136/136 137/137/137 131/131/131 
f 136/136/136 132/132/132 138/138/138 
f 132/132/132 135/135/135 138/138/138 
f 141/141/141 140/140/140 139/139/139 
f 140/140/140 142/142/142 139/139/139 
f 141/141/141 143/143/143 140/140/140 
f 143/143/143 144/144/144 140/140/140 
f 147/147/147 146/146/146 145/145/145 
f 146/146/146 148/148/148 145/145/145 
f 146/146/146 147/147/147 149/149/149 
f 150/150/150 146/146/146 149/149/149 
f 153/153/153 152/152/152 151/151/151 
f 152/152/152 154/154/154 151/151/151 
f 151/151/151 154/154/154 155/155/155 
f 154/154/154 156/156/156 155/155/155 
f 154/154/154 157/157/157 156/156/156 
f 157/157/157 158/158/158 156/156/156 
f 161/161/161 160/160/160 159/159/159 
f 160/160/160 162/162/162 159/159/159 
f 159/159/159 162/162/162 163/163/163 
f 162/162/162 164/164/164 163/163/163 
f 159/159/159 163/163/163 165/165/165 
f 166/166/166 159/159/159 165/165/165 
f 169/169/169 168/168/168 167/167/167 
f 168/168/168 170/170/170 167/167/167 
f 171/171/171 167/167/167 170/170/170 
f 172/172/172 171/171/171 170/170/170 
f 175/175/175 174/174/174 173/173/173 
f 174/174/174 176/176/176 173/173/173 
f 177/177/177 174/174/174 175/175/175 
f 178/178/178 177/177/177 175/175/175 
f 181/181/181 180/180/180 179/179/179 
f 180/180/180 182/182/182 179/179/179 
f 185/185/185 184/184/184 183/183/183 
f 184/184/184 186/186/186 183/183/183 
f 189/189/189 188/188/188 187/187/187 
f 188/188/188 190/190/190 187/187/187 
f 188/188/188 189/189/189 191/191/191 
f 189/189/189 192/192/192 191/191/191 

