# Created by DisUnity v0.3.4
v -3.6779E-4 0.00452864 -0.00165584
v 0.0015852 0.00305357 0.0025611
v -7.6468993E-4 0.0046108398 -0.0014603899
v -8.7966E-4 0.0044357 -0.0030306599
v -0.0012964699 0.0045140097 -0.0028802098
v -3.6779E-4 0.00452864 -0.00165584
v 0.0019562298 0.0029683597 0.00232118
v -0.0011684799 -0.00313285 -0.00331691
v -0.0018245799 -8.2549994E-4 -0.00304805
v -0.0015926299 -0.0031802298 -0.00317429
v -0.00139953 -8.0647995E-4 -0.0031945899
v -0.00171525 0.00235277 -0.00291827
v -0.0012933699 0.00230985 -0.0030688301
v -0.0012964699 0.0045140097 -0.0028802098
v -8.7966E-4 0.0044357 -0.0030306599
v 0.0011544899 -0.0030395498 0.0024345298
v 0.00133453 -0.0011694599 0.00232554
v 0.0015475699 -0.00298862 0.00222148
v 9.4066997E-4 -0.0011896 0.00254224
v 0.0015114 0.00125364 0.0024119199
v 0.00112719 0.00129936 0.0026416501
v 0.0019562298 0.0029683597 0.00232118
v 0.0015852 0.00305357 0.0025611
v 0.00437538 -0.00226719 0.0011164399
v 0.00366972 -0.00415802 -7.2158995E-4
v 0.0045404197 -0.00263305 0.00131993
v 0.0035046898 -0.0037921597 -9.2506997E-4
v 0.00146987 -0.00301569 0.0021213
v 0.0045404197 -0.00263305 0.00131993
v 0.0016349099 -0.0033815498 0.00232479
v 0.00146987 -0.00301569 0.0021213
v 0.00437538 -0.00226719 0.0011164399
v 0.0045404197 -0.00263305 0.00131993
v 0.00183807 -0.00437355 -6.1283E-4
v 0.0016349099 -0.0033815498 0.00232479
v 0.00200311 -0.00473941 -4.0934997E-4
v 0.00146987 -0.00301569 0.0021213
v 0.0035046898 -0.0037921597 -9.2506997E-4
v 0.00200311 -0.00473941 -4.0934997E-4
v 0.00366972 -0.00415802 -7.2158995E-4
v 0.0035046898 -0.0037921597 -9.2506997E-4
v 0.00183807 -0.00437355 -6.1283E-4
v 0.0015475699 -0.00298862 0.00222148
v -0.00108223 -0.00364522 -0.00177722
v 0.0011544899 -0.0030395498 0.0024345298
v -6.7303E-4 -0.00359578 -0.00195777
v -0.0015926299 -0.0031802298 -0.00317429
v -0.0011684799 -0.00313285 -0.00331691
v 0.0015114 0.00125364 0.0024119199
v -3.6779E-4 0.00452864 -0.00165584
v -8.0968E-4 0.00225647 -0.00169327
v 0.0019562298 0.0029683597 0.00232118
v 0.00133453 -0.0011694599 0.00232554
v -9.2047E-4 -8.8326E-4 -0.0018232401
v 0.0015475699 -0.00298862 0.00222148
v -0.0012933699 0.00230985 -0.0030688301
v -0.00139953 -8.0647995E-4 -0.0031945899
v -6.7303E-4 -0.00359578 -0.00195777
v 0.0015475699 -0.00298862 0.00222148
v -0.0011684799 -0.00313285 -0.00331691
v -8.7966E-4 0.0044357 -0.0030306599
v 0.00437538 -0.00226719 0.0011164399
v 0.00183807 -0.00437355 -6.1283E-4
v 0.0035046898 -0.0037921597 -9.2506997E-4
v 0.00437538 -0.00226719 0.0011164399
v 0.00146987 -0.00301569 0.0021213
v -3.8800001E-4 6.0101E-4 0.0017310301
v 2.5476998E-4 0.0017933699 9.493E-4
v 5.6998E-4 5.2044E-4 0.00145759
v -6.2644E-4 0.00156394 0.00134652
v -6.9742E-4 -2.7225E-4 0.0012079299
v 1.6093999E-4 -6.3393E-4 7.6609995E-4
v -0.0012452899 -1.8256999E-4 3.0033E-4
v -5.6328997E-4 -5.1539E-4 -4.3368E-4
v -0.0014837299 7.8036E-4 -8.418E-5
v -8.7849994E-4 7.5754E-4 -9.4197E-4
v -0.00117431 0.0016536199 4.3891E-4
v -4.6947E-4 0.00191191 -2.5048E-4
v -7.355E-4 0.00125615 0.00116215
v -0.00117431 0.0016536199 4.3891E-4
v -6.2644E-4 0.00156394 0.00134652
v -0.00109026 0.0013142199 5.7444E-4
v -0.0014837299 7.8036E-4 -8.418E-5
v -0.00129062 7.4876E-4 2.3572E-4
v -0.0012452899 -1.8256999E-4 3.0033E-4
v -0.00113622 1.2522E-4 4.847E-4
v -6.9742E-4 -2.7225E-4 0.0012079299
v -7.8146E-4 6.715E-5 0.0010724099
v -3.8800001E-4 6.0101E-4 0.0017310301
v -5.811E-4 6.3262E-4 0.00141113
v -1.7433999E-4 7.5760996E-4 0.00102223
v -7.355E-4 0.00125615 0.00116215
v -5.811E-4 6.3262E-4 0.00141113
v -3.2874E-4 0.00138114 7.7325E-4
v -3.747E-4 1.9214E-4 6.8351E-4
v -7.8146E-4 6.715E-5 0.0010724099
v -7.2946E-4 2.5021E-4 9.580999E-5
v -0.00113622 1.2522E-4 4.847E-4
v -8.8386E-4 8.7374E-4 -1.5318E-4
v -0.00129062 7.4876E-4 2.3572E-4
v -6.835E-4 0.00143921 1.8554E-4
v -0.00129062 7.4876E-4 2.3572E-4
v -0.00129062 7.4876E-4 2.3572E-4
v -0.00109026 0.0013142199 5.7444E-4
v -3.2874E-4 0.00138114 7.7325E-4
v -3.2874E-4 0.00138114 7.7325E-4
v -6.835E-4 0.00143921 1.8554E-4
v -5.291E-4 8.1566995E-4 4.3453E-4
v -6.835E-4 0.00143921 1.8554E-4
v -3.2874E-4 0.00138114 7.7325E-4
v -8.8386E-4 8.7374E-4 -1.5318E-4
v -7.2946E-4 2.5021E-4 9.580999E-5
v -3.747E-4 1.9214E-4 6.8351E-4
v -1.7433999E-4 7.5760996E-4 0.00102223
v -7.6468993E-4 0.0046108398 -0.0014603899
v 0.00112719 0.00129936 0.0026416501
v -0.00121408 0.0023047 -0.0015018999
v 0.0015852 0.00305357 0.0025611
v 9.4066997E-4 -0.0011896 0.00254224
v -0.00133166 -9.0264995E-4 -0.00164146
v 0.0011544899 -0.0030395498 0.0024345298
v -0.00108223 -0.00364522 -0.00177722
v -0.0018245799 -8.2549994E-4 -0.00304805
v -0.0015926299 -0.0031802298 -0.00317429
v -0.00171525 0.00235277 -0.00291827
v -0.0012964699 0.0045140097 -0.0028802098
v 0.00200311 -0.00473941 -4.0934997E-4
v 0.0045404197 -0.00263305 0.00131993
v 0.00366972 -0.00415802 -7.2158995E-4
v 0.0016349099 -0.0033815498 0.00232479
vn 0.22916718 0.9728237 0.033113115
vn 0.3078165 0.9334903 0.18396966
vn 0.22834304 0.9730672 0.031617668
vn 0.14276981 0.9824504 -0.12003285
vn 0.14276981 0.9824504 -0.12003285
vn 0.22916718 0.9728237 0.033113115
vn 0.3078165 0.9334903 0.18396966
vn -0.32353616 0.018220082 -0.94604033
vn -0.32649165 0.033906545 -0.9445918
vn -0.32353616 0.018220082 -0.94604033
vn -0.3264923 0.033845577 -0.9445937
vn -0.32793263 0.064823546 -0.9424745
vn -0.32793197 0.06485394 -0.9424726
vn -0.3264323 0.080112636 -0.9418195
vn -0.3264323 0.080112636 -0.9418195
vn 0.47892946 0.0050355806 0.87783897
vn 0.48720607 -0.032228112 0.8726921
vn 0.47892946 0.0050355806 0.87783897
vn 0.48717222 -0.0320753 0.8727167
vn 0.50484556 -0.08084487 0.85941553
vn 0.5043248 -0.08023419 0.85977846
vn 0.5143129 -0.09174132 0.8526815
vn 0.5143129 -0.09174132 0.8526815
vn 0.87245715 0.13181315 -0.47057813
vn 0.87245715 0.13181315 -0.47057813
vn 0.87245715 0.13181315 -0.47057813
vn 0.87245715 0.13181315 -0.47057813
vn 0.1512217 0.53170216 0.8333216
vn 0.1512217 0.53170216 0.8333216
vn 0.1512217 0.53170216 0.8333216
vn 0.1512217 0.53170216 0.8333216
vn 0.1512217 0.53170216 0.8333216
vn 0.1512217 0.53170216 0.8333216
vn -0.92263025 -0.3802405 0.06457892
vn -0.92263025 -0.3802405 0.06457892
vn -0.92263025 -0.3802405 0.06457892
vn -0.92263025 -0.3802405 0.06457892
vn 0.0050356174 -0.4843043 -0.8748851
vn 0.0050356174 -0.4843043 -0.8748851
vn 0.0050356174 -0.4843043 -0.8748851
vn 0.0050356174 -0.4843043 -0.8748851
vn 0.0050356174 -0.4843043 -0.8748851
vn 0.15335788 -0.98628193 0.061068483
vn 0.07251295 -0.9889655 -0.12918659
vn 0.15335788 -0.98628193 0.061068483
vn 0.071994394 -0.98884714 -0.13037731
vn -0.011932841 -0.94898134 -0.31510636
vn -0.011932841 -0.94898134 -0.31510636
vn 0.85360193 -0.10172175 -0.51089764
vn 0.8821873 -0.18342026 -0.433708
vn 0.89884937 -0.10742734 -0.42488733
vn 0.82386297 -0.1903476 -0.5338705
vn 0.87509865 0.045167957 -0.48183224
vn 0.91394335 0.04336706 -0.40351817
vn 0.87331045 0.113653965 -0.47372097
vn 0.93798214 -0.09570873 -0.3332104
vn 0.94498986 0.042512946 -0.32432526
vn 0.9094329 0.110295326 -0.40095738
vn 0.87331045 0.113653965 -0.47372097
vn 0.9429757 0.105626225 -0.3156579
vn 0.9266651 -0.17454132 -0.33290726
vn -0.36674693 0.8130263 -0.4522001
vn -0.36674693 0.8130263 -0.4522001
vn -0.36674693 0.8130263 -0.4522001
vn -0.36674693 0.8130263 -0.4522001
vn -0.36674693 0.8130263 -0.4522001
vn 0.26927018 -0.06039733 0.961169
vn 0.062228937 0.79823345 0.5991252
vn 0.2652769 -0.100135006 0.9589583
vn 0.07187293 0.78629905 0.6136514
vn -0.071934775 -0.83574957 0.5443787
vn -0.10382478 -0.8589502 0.50142306
vn -0.6133181 -0.7565761 -0.22678971
vn -0.62191653 -0.74545753 -0.23981845
vn -0.81204075 0.09677469 -0.57552105
vn -0.81486666 0.059940007 -0.576541
vn -0.46807444 0.87044084 -0.15244389
vn -0.49990314 0.84385365 -0.19495612
vn -0.8563587 -0.0058596176 0.51634824
vn -0.8563587 -0.0058596176 0.51634824
vn -0.8563587 -0.0058596176 0.51634824
vn -0.8563587 -0.0058596176 0.51634824
vn -0.8563587 -0.0058596176 0.51634824
vn -0.8563587 -0.0058596176 0.51634824
vn -0.8563587 -0.0058596176 0.51634824
vn -0.8563587 -0.0058596176 0.51634824
vn -0.8563587 -0.0058596176 0.51634824
vn -0.8563587 -0.0058596176 0.51634824
vn -0.8563587 -0.0058596176 0.51634824
vn -0.8563587 -0.0058596176 0.51634824
vn -0.6931888 0.013703243 -0.72062576
vn -0.31062245 -0.76105255 -0.5694847
vn -0.70599973 0.13373496 -0.69547063
vn -0.1789045 -0.86668897 -0.46566448
vn -0.4375144 0.88220066 -0.17407797
vn -0.47261932 0.8533456 -0.2200735
vn 0.31062245 0.76105255 0.5694847
vn 0.1789045 0.86668897 0.46566448
vn 0.70599973 -0.13373496 0.69547063
vn 0.6931888 -0.013703243 0.72062576
vn 0.47261932 -0.8533456 0.2200735
vn 0.6931888 -0.013703243 0.72062576
vn 0.6931888 -0.013703243 0.72062576
vn 0.4375144 -0.88220066 0.17407797
vn -0.1789045 -0.86668897 -0.46566448
vn -0.1789045 -0.86668897 -0.46566448
vn 0.47261932 -0.8533456 0.2200735
vn -0.8563587 -0.0058596176 0.51634824
vn -0.8563587 -0.0058596176 0.51634824
vn -0.8563587 -0.0058596176 0.51634824
vn -0.8563587 -0.0058596176 0.51634824
vn -0.8563587 -0.0058596176 0.51634824
vn -0.8563587 -0.0058596176 0.51634824
vn -0.8563587 -0.0058596176 0.51634824
vn -0.88202626 0.18268603 0.43434477
vn -0.8538384 0.10159874 0.5105268
vn -0.89869195 0.10718261 0.4252818
vn -0.8245397 0.1893722 0.5331721
vn -0.8752657 -0.044771954 0.4815655
vn -0.9137663 -0.043092683 0.40394813
vn -0.87352014 -0.113195665 0.47344416
vn -0.90935963 -0.10987028 0.40124014
vn -0.94454753 -0.042269483 0.32564288
vn -0.94258267 -0.10529093 0.31694096
vn -0.93752706 0.09537329 0.33458477
vn -0.92624927 0.17401889 0.33433476
vn 0.36674693 -0.8130263 0.4522001
vn 0.36674693 -0.8130263 0.4522001
vn 0.36674693 -0.8130263 0.4522001
vn 0.36674693 -0.8130263 0.4522001
vt 0.591932 0.668019
vt 0.52979 0.929981
vt 0.626346 0.668889
vt 0.567224 0.58187497
vt 0.593029 0.558613
vt 0.591932 0.668019
vt 0.503698 0.905777
vt 0.08216 0.59894896
vt 0.211875 0.51752496
vt 0.056642 0.575965
vt 0.217909 0.548707
vt 0.446071 0.507774
vt 0.441605 0.539467
vt 0.593029 0.558613
vt 0.567224 0.58187497
vt 0.104552 0.936637
vt 0.234401 0.95013
vt 0.130221 0.912841
vt 0.228888 0.981037
vt 0.400549 0.949736
vt 0.405849 0.981037
vt 0.503698 0.905777
vt 0.52979 0.929981
vt 0.911572 0.48923498
vt 0.708033 0.521152
vt 0.940553 0.521152
vt 0.754186 0.47728097
vt 0.91273 0.32120198
vt 0.940553 0.521152
vt 0.957491 0.265958
vt 0.91273 0.32120198
vt 0.911572 0.48923498
vt 0.940553 0.521152
vt 0.740007 0.359415
vt 0.957491 0.265958
vt 0.702896 0.334386
vt 0.91273 0.32120198
vt 0.754186 0.47728097
vt 0.702896 0.334386
vt 0.708033 0.521152
vt 0.754186 0.47728097
vt 0.740007 0.359415
vt 0.130221 0.912841
vt 0.019582 0.686797
vt 0.104552 0.936637
vt 0.052934 0.68681204
vt 0.056642 0.575965
vt 0.08216 0.59894896
vt 0.400549 0.949736
vt 0.591932 0.668019
vt 0.433743 0.64837503
vt 0.503698 0.905777
vt 0.234401 0.95013
vt 0.231729 0.654035
vt 0.130221 0.912841
vt 0.441605 0.539467
vt 0.217909 0.548707
vt 0.052934 0.68681204
vt 0.130221 0.912841
vt 0.08216 0.59894896
vt 0.567224 0.58187497
vt 0.911572 0.48923498
vt 0.740007 0.359415
vt 0.754186 0.47728097
vt 0.911572 0.48923498
vt 0.91273 0.32120198
vt 0.800765 0.795204
vt 0.87371 0.731883
vt 0.75879 0.74609804
vt 0.840842 0.794591
vt 0.778397 0.831246
vt 0.716991 0.844255
vt 0.800878 0.871696
vt 0.774395 0.92569
vt 0.846838 0.866984
vt 0.873318 0.92569
vt 0.865074 0.827555
vt 0.931332 0.835122
vt 0.834265 0.807641
vt 0.865074 0.827555
vt 0.840842 0.794591
vt 0.849759 0.829279
vt 0.846838 0.866984
vt 0.838042 0.85428
vt 0.800878 0.871696
vt 0.809194 0.856018
vt 0.778397 0.831246
vt 0.794303 0.831164
vt 0.800765 0.795204
vt 0.807935 0.807775
vt 0.772935 0.645176
vt 0.823843 0.629551
vt 0.762243 0.605054
vt 0.792867 0.66027
vt 0.748396 0.659183
vt 0.716991 0.640549
vt 0.753872 0.685449
vt 0.716991 0.698591
vt 0.775218 0.691621
vt 0.770904 0.731883
vt 0.789816 0.680014
vt 0.770904 0.731883
vt 0.770904 0.731883
vt 0.833329 0.702428
vt 0.792867 0.66027
vt 0.792867 0.66027
vt 0.789816 0.680014
vt 0.772169 0.67027104
vt 0.789816 0.680014
vt 0.792867 0.66027
vt 0.775218 0.691621
vt 0.753872 0.685449
vt 0.748396 0.659183
vt 0.772935 0.645176
vt 0.619806 0.376109
vt 0.393744 0.03287399
vt 0.448133 0.38422602
vt 0.527062 0.028035998
vt 0.210439 0.036508977
vt 0.214092 0.38518602
vt 0.073747 0.029365003
vt 0.012778 0.37641
vt 0.213845 0.494165
vt 0.04038 0.48735303
vt 0.446842 0.494165
vt 0.608493 0.48734498
vt 0.82056 0.24100798
vt 0.646192 0.01570499
vt 0.68536 0.21798098
vt 0.888287 0.01570499

g atk_hand_arm_R_lv3
s 1
usemtl atk_hand_arm_R_lv3
f 3/3/3 2/2/2 1/1/1 
f 3/3/3 1/1/1 4/4/4 
f 5/5/5 3/3/3 4/4/4 
f 2/2/2 7/7/7 6/6/6 
f 10/10/10 9/9/9 8/8/8 
f 9/9/9 11/11/11 8/8/8 
f 9/9/9 12/12/12 11/11/11 
f 12/12/12 13/13/13 11/11/11 
f 12/12/12 14/14/14 13/13/13 
f 14/14/14 15/15/15 13/13/13 
f 18/18/18 17/17/17 16/16/16 
f 17/17/17 19/19/19 16/16/16 
f 19/19/19 17/17/17 20/20/20 
f 21/21/21 19/19/19 20/20/20 
f 21/21/21 20/20/20 22/22/22 
f 23/23/23 21/21/21 22/22/22 
f 26/26/26 25/25/25 24/24/24 
f 25/25/25 27/27/27 24/24/24 
f 30/30/30 29/29/29 28/28/28 
f 33/33/33 32/32/32 31/31/31 
f 36/36/36 35/35/35 34/34/34 
f 35/35/35 37/37/37 34/34/34 
f 40/40/40 39/39/39 38/38/38 
f 39/39/39 42/42/42 41/41/41 
f 45/45/45 44/44/44 43/43/43 
f 44/44/44 46/46/46 43/43/43 
f 44/44/44 47/47/47 46/46/46 
f 47/47/47 48/48/48 46/46/46 
f 51/51/51 50/50/50 49/49/49 
f 50/50/50 52/52/52 49/49/49 
f 51/51/51 49/49/49 53/53/53 
f 54/54/54 51/51/51 53/53/53 
f 54/54/54 53/53/53 55/55/55 
f 56/56/56 51/51/51 54/54/54 
f 57/57/57 56/56/56 54/54/54 
f 57/57/57 54/54/54 58/58/58 
f 58/58/58 54/54/54 59/59/59 
f 60/60/60 57/57/57 58/58/58 
f 56/56/56 61/61/61 51/51/51 
f 61/61/61 50/50/50 51/51/51 
f 64/64/64 63/63/63 62/62/62 
f 63/63/63 66/66/66 65/65/65 
f 69/69/69 68/68/68 67/67/67 
f 68/68/68 70/70/70 67/67/67 
f 69/69/69 67/67/67 71/71/71 
f 72/72/72 69/69/69 71/71/71 
f 72/72/72 71/71/71 73/73/73 
f 74/74/74 72/72/72 73/73/73 
f 74/74/74 73/73/73 75/75/75 
f 76/76/76 74/74/74 75/75/75 
f 76/76/76 75/75/75 77/77/77 
f 78/78/78 76/76/76 77/77/77 
f 68/68/68 78/78/78 70/70/70 
f 78/78/78 77/77/77 70/70/70 
f 81/81/81 80/80/80 79/79/79 
f 80/80/80 82/82/82 79/79/79 
f 80/80/80 83/83/83 82/82/82 
f 83/83/83 84/84/84 82/82/82 
f 83/83/83 85/85/85 84/84/84 
f 85/85/85 86/86/86 84/84/84 
f 85/85/85 87/87/87 86/86/86 
f 87/87/87 88/88/88 86/86/86 
f 87/87/87 89/89/89 88/88/88 
f 89/89/89 90/90/90 88/88/88 
f 89/89/89 81/81/81 90/90/90 
f 81/81/81 79/79/79 90/90/90 
f 93/93/93 92/92/92 91/91/91 
f 92/92/92 94/94/94 91/91/91 
f 93/93/93 91/91/91 95/95/95 
f 96/96/96 93/93/93 95/95/95 
f 96/96/96 95/95/95 97/97/97 
f 98/98/98 96/96/96 97/97/97 
f 98/98/98 97/97/97 99/99/99 
f 100/100/100 98/98/98 99/99/99 
f 102/102/102 99/99/99 101/101/101 
f 104/104/104 103/103/103 101/101/101 
f 92/92/92 104/104/104 105/105/105 
f 104/104/104 107/107/107 106/106/106 
f 110/110/110 109/109/109 108/108/108 
f 109/109/109 111/111/111 108/108/108 
f 111/111/111 112/112/112 108/108/108 
f 112/112/112 113/113/113 108/108/108 
f 113/113/113 114/114/114 108/108/108 
f 114/114/114 110/110/110 108/108/108 
f 117/117/117 116/116/116 115/115/115 
f 116/116/116 118/118/118 115/115/115 
f 119/119/119 116/116/116 117/117/117 
f 120/120/120 119/119/119 117/117/117 
f 121/121/121 119/119/119 120/120/120 
f 122/122/122 121/121/121 120/120/120 
f 122/122/122 120/120/120 123/123/123 
f 124/124/124 122/122/122 123/123/123 
f 123/123/123 120/120/120 125/125/125 
f 120/120/120 117/117/117 125/125/125 
f 125/125/125 117/117/117 126/126/126 
f 117/117/117 115/115/115 126/126/126 
f 129/129/129 128/128/128 127/127/127 
f 128/128/128 130/130/130 127/127/127 

