# Created by DisUnity v0.3.4
v 0.00255773 -0.0014679501 5.1451003E-4
v 0.00453466 6.9526E-4 -5.2679E-4
v 0.0026707398 -9.1741E-4 -7.8938995E-4
v 0.0048173997 6.1348E-4 2.2433E-4
v 7.1328995E-4 -0.00152415 -9.1651996E-4
v 7.1328995E-4 -0.0025660198 0.00166206
v -0.0011311601 -0.0014679501 5.1451003E-4
v -0.00124417 -9.1741E-4 -7.8938995E-4
v -0.0031080898 6.9526E-4 -5.2679E-4
v -0.0033908298 6.1348E-4 2.2433E-4
v -0.00362251 0.00230468 -4.9577E-4
v -0.0033908298 6.1348E-4 2.2433E-4
v -0.0031080898 6.9526E-4 -5.2679E-4
v -0.0031080898 6.9526E-4 -5.2679E-4
v -0.00325141 0.00235411 -3.3677998E-4
v -0.0027796 9.0911E-4 -3.8915998E-4
v -0.00124417 -9.1741E-4 -7.8938995E-4
v -0.00104758 -5.832E-4 -6.5844E-4
v 7.1328995E-4 -0.00152415 -9.1651996E-4
v 7.1328995E-4 -0.0011331299 -7.6002E-4
v 0.0026707398 -9.1741E-4 -7.8938995E-4
v 0.00247415 -5.832E-4 -6.5844E-4
v 0.00453466 6.9526E-4 -5.2679E-4
v 0.00420618 9.0911E-4 -3.8915998E-4
v 0.00448892 8.2732E-4 3.6195E-4
v -0.0030623497 8.2732E-4 3.6195E-4
v -0.0027796 9.0911E-4 -3.8915998E-4
v -0.00351035 0.0024516198 2.1127E-4
v -0.00325141 0.00235411 -3.3677998E-4
v -0.0038814498 0.0024021799 5.228E-5
v -0.0030623497 8.2732E-4 3.6195E-4
v -0.0033908298 6.1348E-4 2.2433E-4
v -9.3457E-4 -0.00113374 6.4546E-4
v -0.0011311601 -0.0014679501 5.1451003E-4
v 7.1328995E-4 -0.002175 0.0018185601
v 7.1328995E-4 -0.0025660198 0.00166206
v 0.0048173997 6.1348E-4 2.2433E-4
v 0.00448892 8.2732E-4 3.6195E-4
v -0.00362251 0.00230468 -4.9577E-4
v -0.0038814498 0.0024021799 5.228E-5
v -0.0033908298 6.1348E-4 2.2433E-4
v 0.00420618 9.0911E-4 -3.8915998E-4
v 0.00236114 -0.00113374 6.4546E-4
v 0.00247415 -5.832E-4 -6.5844E-4
v 0.00448892 8.2732E-4 3.6195E-4
v 7.1328995E-4 -0.0011331299 -7.6002E-4
v 7.1328995E-4 -0.002175 0.0018185601
v -9.3457E-4 -0.00113374 6.4546E-4
v -0.00104758 -5.832E-4 -6.5844E-4
v -0.0027796 9.0911E-4 -3.8915998E-4
v -0.0030623497 8.2732E-4 3.6195E-4
v 7.1328995E-4 -0.0025660198 0.00166206
v 0.00236114 -0.00113374 6.4546E-4
v 0.00255773 -0.0014679501 5.1451003E-4
v 7.1328995E-4 -0.002175 0.0018185601
v 0.00448892 8.2732E-4 3.6195E-4
v 0.00255773 -0.0014679501 5.1451003E-4
v 0.00448892 8.2732E-4 3.6195E-4
v 0.0048173997 6.1348E-4 2.2433E-4
v -0.0038814498 0.0024021799 5.228E-5
v -0.00325141 0.00235411 -3.3677998E-4
v -0.00351035 0.0024516198 2.1127E-4
v -0.0038814498 0.0024021799 5.228E-5
v -0.00362251 0.00230468 -4.9577E-4
vn 0.42195666 -0.84327245 -0.3329325
vn 0.64077175 -0.7173128 -0.27363116
vn 0.4990185 -0.80713975 -0.31544584
vn 0.64077175 -0.7173128 -0.27363116
vn -0.0 -0.92840713 -0.3715643
vn -0.0 -0.92840713 -0.3715643
vn -0.42195666 -0.84327245 -0.3329325
vn -0.4990185 -0.80713975 -0.31544584
vn -0.64077175 -0.7173128 -0.27363116
vn -0.64077175 -0.7173128 -0.27363116
vn -0.43069115 0.42300016 -0.79723024
vn -0.88784254 -0.27781892 -0.3668138
vn -0.88784254 -0.27781892 -0.3668138
vn 0.24299073 0.23313315 -0.94159675
vn 0.64740294 0.6726118 -0.35841703
vn 0.24519233 0.23112296 -0.9415216
vn 0.09702077 0.33989316 -0.93544626
vn 0.097265646 0.3398041 -0.9354532
vn -0.0 0.35594836 -0.9345056
vn -0.0 0.35594836 -0.9345056
vn -0.09702077 0.33989316 -0.93544626
vn -0.097265646 0.3398041 -0.9354532
vn 0.26466238 0.75632644 -0.5982676
vn 0.20090938 0.7049988 -0.680156
vn 0.5852685 0.4431096 0.67905426
vn 0.88784254 0.27781892 0.3668138
vn 0.88784254 0.27781892 0.3668138
vn 0.18409288 0.7159235 0.67347103
vn 0.64740294 0.6726118 -0.35841703
vn -0.8359246 0.5025619 0.22059377
vn -0.33885556 -0.10086622 0.9354159
vn -0.33912396 -0.10040657 0.93536806
vn -0.4550125 -0.16620821 0.87483627
vn -0.45769772 -0.16590284 0.8734924
vn -0.60762835 -0.14478095 0.7809138
vn -0.60762835 -0.14478095 0.7809138
vn 0.61051524 0.56357604 0.5564649
vn 0.5852685 0.4431096 0.67905426
vn -0.43069115 0.42300016 -0.79723024
vn -0.8359246 0.5025619 0.22059377
vn -0.88784254 -0.27781892 -0.3668138
vn -0.64077175 0.7173128 0.27363116
vn -0.41982457 0.84416604 0.33336315
vn -0.49890217 0.80721015 0.31544954
vn -0.64077175 0.7173128 0.27363116
vn -0.0 0.92840713 0.3715643
vn -0.0 0.92840713 0.3715643
vn 0.41982457 0.84416604 0.33336315
vn 0.49890217 0.80721015 0.31544954
vn 0.64077175 0.7173128 0.27363116
vn 0.64077175 0.7173128 0.27363116
vn 0.60762835 -0.14478095 0.7809138
vn 0.4550125 -0.16620821 0.87483627
vn 0.45769772 -0.16590284 0.8734924
vn 0.60762835 -0.14478095 0.7809138
vn 0.5852685 0.4431096 0.67905426
vn 0.45769772 -0.16590284 0.8734924
vn 0.5852685 0.4431096 0.67905426
vn 0.61051524 0.56357604 0.5564649
vn -0.8359246 0.5025619 0.22059377
vn 0.64740294 0.6726118 -0.35841703
vn 0.18409288 0.7159235 0.67347103
vn -0.8359246 0.5025619 0.22059377
vn -0.43069115 0.42300016 -0.79723024
vt 0.722111 0.54921
vt 0.868488 0.678691
vt 0.746911 0.67877
vt 1.0 0.64398396
vt 0.566933 0.70359504
vt 0.510065 0.44946802
vt 0.361778 0.630485
vt 0.381337 0.770133
vt 0.15389 0.841537
vt 0.1037 0.777364
vt 0.064646 0.892603
vt 0.1037 0.777364
vt 0.15389 0.841537
vt 0.15389 0.841537
vt 0.077014 0.906027
vt 0.167713 0.878103
vt 0.381337 0.770133
vt 0.392861 0.805066
vt 0.566933 0.70359504
vt 0.577092 0.743937
vt 0.746911 0.67877
vt 0.750696 0.70834196
vt 0.868488 0.678691
vt 0.864348 0.694503
vt 0.909101 0.710407
vt 0.164718 0.960996
vt 0.167713 0.878103
vt 0.061677 0.923475
vt 0.077014 0.906027
vt 0.0 0.931265
vt 0.164718 0.960996
vt 0.157984 1.0
vt 0.461212 0.94344
vt 0.460834 0.982247
vt 0.647644 0.967564
vt 0.658114 1.0
vt 1.0 0.64398396
vt 0.909101 0.710407
vt 0.064646 0.892603
vt 0.0 0.931265
vt 0.1037 0.777364
vt 0.864348 0.694503
vt 0.776225 0.845797
vt 0.750696 0.70834196
vt 0.909101 0.710407
vt 0.577092 0.743937
vt 0.647644 0.967564
vt 0.461212 0.94344
vt 0.392861 0.805066
vt 0.167713 0.878103
vt 0.164718 0.960996
vt 0.658114 1.0
vt 0.776225 0.845797
vt 0.801435 0.872073
vt 0.647644 0.967564
vt 0.909101 0.710407
vt 0.801435 0.872073
vt 0.909101 0.710407
vt 1.0 0.64398396
vt 0.0 0.931265
vt 0.077014 0.906027
vt 0.061677 0.923475
vt 0.0 0.931265
vt 0.064646 0.892603

g atk_body_arm_lv1
s 1
usemtl atk_body_arm_lv1
f 3/3/3 2/2/2 1/1/1 
f 2/2/2 4/4/4 1/1/1 
f 3/3/3 1/1/1 5/5/5 
f 1/1/1 6/6/6 5/5/5 
f 6/6/6 7/7/7 5/5/5 
f 7/7/7 8/8/8 5/5/5 
f 8/8/8 7/7/7 9/9/9 
f 7/7/7 10/10/10 9/9/9 
f 13/13/13 12/12/12 11/11/11 
f 11/11/11 15/15/15 14/14/14 
f 15/15/15 16/16/16 14/14/14 
f 14/14/14 16/16/16 17/17/17 
f 16/16/16 18/18/18 17/17/17 
f 17/17/17 18/18/18 19/19/19 
f 18/18/18 20/20/20 19/19/19 
f 19/19/19 20/20/20 21/21/21 
f 20/20/20 22/22/22 21/21/21 
f 21/21/21 22/22/22 23/23/23 
f 22/22/22 24/24/24 23/23/23 
f 24/24/24 25/25/25 23/23/23 
f 27/27/27 15/15/15 26/26/26 
f 29/29/29 28/28/28 26/26/26 
f 31/31/31 28/28/28 30/30/30 
f 32/32/32 31/31/31 30/30/30 
f 33/33/33 31/31/31 32/32/32 
f 34/34/34 33/33/33 32/32/32 
f 35/35/35 33/33/33 34/34/34 
f 36/36/36 35/35/35 34/34/34 
f 38/38/38 37/37/37 23/23/23 
f 41/41/41 40/40/40 39/39/39 
f 44/44/44 43/43/43 42/42/42 
f 43/43/43 45/45/45 42/42/42 
f 44/44/44 46/46/46 43/43/43 
f 46/46/46 47/47/47 43/43/43 
f 47/47/47 46/46/46 48/48/48 
f 46/46/46 49/49/49 48/48/48 
f 49/49/49 50/50/50 48/48/48 
f 50/50/50 51/51/51 48/48/48 
f 54/54/54 53/53/53 52/52/52 
f 53/53/53 55/55/55 52/52/52 
f 56/56/56 53/53/53 54/54/54 
f 59/59/59 58/58/58 57/57/57 
f 62/62/62 61/61/61 60/60/60 
f 15/15/15 64/64/64 63/63/63 

