# Created by DisUnity v0.3.4
v 0.5 -0.49999994 -1.5
v 1.4999995 -1.4999998 -1.5
v 1.4999995 -0.49999994 -1.5
v 0.5 -1.4999998 -1.5
v -0.4999999 -0.49999994 -1.5
v -0.4999999 -1.4999998 -1.5
v -0.4999999 0.50000006 -1.5
v 0.5 0.50000006 -1.5
v 1.4999995 0.50000006 -1.5
v 1.4999995 -0.49999994 0.50000006
v 0.5 0.50000006 0.5000002
v 1.4999995 0.50000006 0.5000002
v 0.5 -0.49999994 0.50000006
v -0.4999999 -0.49999994 0.50000006
v -0.4999999 0.50000006 0.5000002
v -0.4999999 -1.4999998 0.50000006
v 0.5 -1.4999998 0.50000006
v 1.4999995 -1.4999998 0.50000006
v 0.5 -1.4999998 0.50000006
v -0.4999999 -1.4999998 -1.5
v -0.4999999 -1.4999998 0.50000006
v 0.5 -1.4999998 -1.5
v 1.4999995 -1.4999998 -1.5
v 1.4999995 -1.4999998 0.50000006
v 0.5 0.50000006 -1.5
v -0.4999999 0.50000006 0.5000002
v -0.4999999 0.50000006 -1.5
v 0.5 0.50000006 0.5000002
v 1.4999995 0.50000006 0.5000002
v 1.4999995 0.50000006 -1.5
v -0.4999999 -0.49999994 -1.5
v -0.4999999 0.50000006 0.5000002
v -0.4999999 -0.49999994 0.50000006
v -0.4999999 0.50000006 -1.5
v -0.4999999 -1.4999998 0.50000006
v -0.4999999 -1.4999998 -1.5
v 1.4999995 -0.49999994 0.50000006
v 1.4999995 -1.4999998 -1.5
v 1.4999995 -1.4999998 0.50000006
v 1.4999995 -0.49999994 -1.5
v 1.4999995 0.50000006 -1.5
v 1.4999995 0.50000006 0.5000002
vn -0.0 0.0 -1.0
vn -0.0 0.0 -1.0
vn -0.0 0.0 -1.0
vn -0.0 0.0 -1.0
vn -0.0 0.0 -1.0
vn -0.0 0.0 -1.0
vn -0.0 0.0 -1.0
vn -0.0 0.0 -1.0
vn -0.0 0.0 -1.0
vn -0.0 0.0 1.0
vn -0.0 0.0 1.0
vn -0.0 0.0 1.0
vn -0.0 0.0 1.0
vn -0.0 0.0 1.0
vn -0.0 0.0 1.0
vn -0.0 0.0 1.0
vn -0.0 0.0 1.0
vn -0.0 0.0 1.0
vn -0.0 -1.0 0.0
vn -0.0 -1.0 0.0
vn -0.0 -1.0 0.0
vn -0.0 -1.0 0.0
vn -0.0 -1.0 0.0
vn -0.0 -1.0 0.0
vn -0.0 1.0 0.0
vn -0.0 1.0 0.0
vn -0.0 1.0 0.0
vn -0.0 1.0 0.0
vn -0.0 1.0 0.0
vn -0.0 1.0 0.0
vn -1.0 0.0 0.0
vn -1.0 0.0 0.0
vn -1.0 0.0 0.0
vn -1.0 0.0 0.0
vn -1.0 0.0 0.0
vn -1.0 0.0 0.0
vn 1.0 0.0 0.0
vn 1.0 0.0 0.0
vn 1.0 0.0 0.0
vn 1.0 0.0 0.0
vn 1.0 0.0 0.0
vn 1.0 0.0 0.0
vt 0.7497487 0.73934495
vt 0.527774 0.96323895
vt 0.527774 0.73934495
vt 0.7497487 0.96323895
vt 0.9717231 0.73934495
vt 0.9717231 0.96323895
vt 0.9717231 0.5154507
vt 0.7497487 0.5154507
vt 0.527774 0.5154507
vt 0.527774 0.24866849
vt 0.7497487 0.024774253
vt 0.527774 0.024774253
vt 0.7497487 0.24866849
vt 0.9717231 0.24866849
vt 0.9717231 0.024774253
vt 0.9717231 0.47256243
vt 0.7497487 0.47256243
vt 0.527774 0.47256243
vt 0.27619487 0.25738537
vt 0.5027639 0.48831165
vt 0.27619487 0.48831165
vt 0.5027639 0.25738537
vt 0.5027639 0.026459098
vt 0.27619487 0.026459098
vt 0.020378709 0.25773162
vt 0.24694788 0.488658
vt 0.020378709 0.488658
vt 0.24694788 0.25773162
vt 0.24694788 0.02680552
vt 0.020378709 0.02680552
vt 0.27908137 0.7455938
vt 0.5056505 0.5146675
vt 0.5056505 0.7455938
vt 0.27908137 0.5146675
vt 0.5056505 0.97652
vt 0.27908137 0.97652
vt 0.022514597 0.74490094
vt 0.24908377 0.9758272
vt 0.022514597 0.9758272
vt 0.24908377 0.74490094
vt 0.24908377 0.5139748
vt 0.022514597 0.5139748

g Block_Rect2x2
s 1
usemtl Block_Rect2x2
f 3/3/3 2/2/2 1/1/1 
f 2/2/2 4/4/4 1/1/1 
f 1/1/1 4/4/4 5/5/5 
f 4/4/4 6/6/6 5/5/5 
f 1/1/1 5/5/5 7/7/7 
f 8/8/8 1/1/1 7/7/7 
f 3/3/3 1/1/1 8/8/8 
f 9/9/9 3/3/3 8/8/8 
f 12/12/12 11/11/11 10/10/10 
f 11/11/11 13/13/13 10/10/10 
f 14/14/14 13/13/13 11/11/11 
f 15/15/15 14/14/14 11/11/11 
f 14/14/14 16/16/16 13/13/13 
f 16/16/16 17/17/17 13/13/13 
f 10/10/10 13/13/13 18/18/18 
f 13/13/13 17/17/17 18/18/18 
f 21/21/21 20/20/20 19/19/19 
f 20/20/20 22/22/22 19/19/19 
f 22/22/22 23/23/23 19/19/19 
f 23/23/23 24/24/24 19/19/19 
f 27/27/27 26/26/26 25/25/25 
f 26/26/26 28/28/28 25/25/25 
f 28/28/28 29/29/29 25/25/25 
f 29/29/29 30/30/30 25/25/25 
f 33/33/33 32/32/32 31/31/31 
f 32/32/32 34/34/34 31/31/31 
f 35/35/35 33/33/33 31/31/31 
f 36/36/36 35/35/35 31/31/31 
f 39/39/39 38/38/38 37/37/37 
f 38/38/38 40/40/40 37/37/37 
f 40/40/40 41/41/41 37/37/37 
f 41/41/41 42/42/42 37/37/37 

