# Created by DisUnity v0.3.4
v -0.5 0.50000006 -1.5
v -0.5 -0.4999999 0.50000006
v -0.5 -0.49999988 -1.5
v -0.5 0.50000006 0.50000006
v -0.5 1.5 0.5000002
v -0.5 1.5 -1.5
v 1.5 -0.49999988 -1.5
v 1.5 0.50000006 0.50000006
v 1.5 0.50000006 -1.5
v 1.5 -0.4999999 0.50000006
v -0.5 0.50000006 0.50000006
v 0.5 -0.4999999 0.50000006
v -0.5 -0.4999999 0.50000006
v 0.5 0.50000006 0.50000006
v 1.5 -0.4999999 0.50000006
v 1.5 0.50000006 0.50000006
v 0.5 1.5 0.5000002
v -0.5 1.5 0.5000002
v 0.5 1.5 -1.5
v -0.5 1.5 0.5000002
v -0.5 1.5 -1.5
v 0.5 1.5 0.5000002
v -0.5 -0.49999988 -1.5
v 0.5 0.50000006 -1.5
v -0.5 0.50000006 -1.5
v 0.5 -0.49999988 -1.5
v 1.5 0.50000006 -1.5
v 1.5 -0.49999988 -1.5
v -0.5 1.5 -1.5
v 0.5 1.5 -1.5
v 0.5 -0.4999999 0.50000006
v -0.5 -0.49999988 -1.5
v -0.5 -0.4999999 0.50000006
v 0.5 -0.49999988 -1.5
v 1.5 -0.49999988 -1.5
v 1.5 -0.4999999 0.50000006
v 1.5 0.50000006 0.50000006
v 0.5 0.50000006 -1.5
v 1.5 0.50000006 -1.5
v 0.5 0.50000006 0.50000006
v 0.5 0.50000006 -1.5
v 0.5 1.5 0.5000002
v 0.5 1.5 -1.5
v 0.5 0.50000006 0.50000006
vn -1.0 0.0 0.0
vn -1.0 0.0 0.0
vn -1.0 0.0 0.0
vn -1.0 0.0 0.0
vn -1.0 0.0 0.0
vn -1.0 0.0 0.0
vn 1.0 0.0 0.0
vn 1.0 0.0 0.0
vn 1.0 0.0 0.0
vn 1.0 0.0 0.0
vn -0.0 0.0 1.0
vn -0.0 0.0 1.0
vn -0.0 0.0 1.0
vn -0.0 0.0 1.0
vn -0.0 0.0 1.0
vn -0.0 0.0 1.0
vn -0.0 0.0 1.0
vn -0.0 0.0 1.0
vn -0.0 1.0 0.0
vn -0.0 1.0 0.0
vn -0.0 1.0 0.0
vn -0.0 1.0 0.0
vn -0.0 0.0 -1.0
vn -0.0 0.0 -1.0
vn -0.0 0.0 -1.0
vn -0.0 0.0 -1.0
vn -0.0 0.0 -1.0
vn -0.0 0.0 -1.0
vn -0.0 0.0 -1.0
vn -0.0 0.0 -1.0
vn -0.0 -1.0 0.0
vn -0.0 -1.0 0.0
vn -0.0 -1.0 0.0
vn -0.0 -1.0 0.0
vn -0.0 -1.0 0.0
vn -0.0 -1.0 0.0
vn -0.0 1.0 0.0
vn -0.0 1.0 0.0
vn -0.0 1.0 0.0
vn -0.0 1.0 0.0
vn 1.0 0.0 0.0
vn 1.0 0.0 0.0
vn 1.0 0.0 0.0
vn 1.0 0.0 0.0
vt 0.52198404 0.2573868
vt 0.2995936 0.47977734
vt 0.2995936 0.2573868
vt 0.5219841 0.47977746
vt 0.7443748 0.47977746
vt 0.7443748 0.25738668
vt 0.03211976 0.0149278045
vt 0.25451028 0.23731834
vt 0.03211952 0.23731834
vt 0.25451064 0.0149278045
vt 0.9781381 0.75311613
vt 0.7545004 0.97675365
vt 0.9781381 0.97675365
vt 0.7545004 0.75311613
vt 0.5308628 0.9767538
vt 0.5308628 0.7531161
vt 0.7545004 0.5294786
vt 0.9781381 0.5294786
vt 0.03211976 0.0149278045
vt 0.2545104 0.23731834
vt 0.032119997 0.23731834
vt 0.25451028 0.0149278045
vt 0.2859978 0.50268304
vt 0.50963545 0.7263205
vt 0.28599775 0.72632056
vt 0.50963545 0.50268304
vt 0.73327285 0.72632056
vt 0.7332729 0.50268304
vt 0.28599775 0.949958
vt 0.50963545 0.9499581
vt 0.24501283 0.5204017
vt 0.022621997 0.29801083
vt 0.24501283 0.29801083
vt 0.022621997 0.5204017
vt 0.022621997 0.96518296
vt 0.24501283 0.96518296
vt 0.96676564 0.23731881
vt 0.5219843 0.014927685
vt 0.9667659 0.014928162
vt 0.52198404 0.23731834
vt 0.5219843 0.014927685
vt 0.2995936 0.23731834
vt 0.29959357 0.0149278045
vt 0.52198404 0.23731834

g Block_L2x1
s 1
usemtl Block_L2x1
f 3/3/3 2/2/2 1/1/1 
f 2/2/2 4/4/4 1/1/1 
f 4/4/4 5/5/5 1/1/1 
f 5/5/5 6/6/6 1/1/1 
f 9/9/9 8/8/8 7/7/7 
f 8/8/8 10/10/10 7/7/7 
f 13/13/13 12/12/12 11/11/11 
f 12/12/12 14/14/14 11/11/11 
f 12/12/12 15/15/15 14/14/14 
f 15/15/15 16/16/16 14/14/14 
f 11/11/11 14/14/14 17/17/17 
f 18/18/18 11/11/11 17/17/17 
f 21/21/21 20/20/20 19/19/19 
f 20/20/20 22/22/22 19/19/19 
f 25/25/25 24/24/24 23/23/23 
f 24/24/24 26/26/26 23/23/23 
f 24/24/24 27/27/27 26/26/26 
f 27/27/27 28/28/28 26/26/26 
f 24/24/24 25/25/25 29/29/29 
f 30/30/30 24/24/24 29/29/29 
f 33/33/33 32/32/32 31/31/31 
f 32/32/32 34/34/34 31/31/31 
f 31/31/31 34/34/34 35/35/35 
f 36/36/36 31/31/31 35/35/35 
f 39/39/39 38/38/38 37/37/37 
f 38/38/38 40/40/40 37/37/37 
f 43/43/43 42/42/42 41/41/41 
f 42/42/42 44/44/44 41/41/41 

