# Created by DisUnity v0.3.4
v -0.5 -0.5 -1.4999999
v 0.5 -0.5 0.5000001
v 0.5 -0.5 -1.4999999
v -0.5 -0.5 0.5000001
v -1.5 -0.5 -1.4999999
v -1.5 -0.5 0.5000001
v 1.5 -0.5 0.5000001
v 1.5 -0.5 -1.4999999
v -0.5 0.5 -1.4999999
v 0.5 -0.5 -1.4999999
v 0.5 0.5 -1.4999999
v -0.5 -0.5 -1.4999999
v -1.5 0.5 -1.4999999
v -1.5 -0.5 -1.4999999
v 1.5 0.5 -1.4999999
v 1.5 -0.5 -1.4999999
v 0.5 0.5 -1.4999999
v -0.5 0.5 0.5000001
v -0.5 0.5 -1.4999999
v 0.5 0.5 0.5000001
v -1.5 0.5 0.5000001
v -1.5 0.5 -1.4999999
v 1.5 0.5 -1.4999999
v 1.5 0.5 0.5000001
v 0.5 0.5 0.5000001
v -0.5 -0.5 0.5000001
v -0.5 0.5 0.5000001
v 0.5 -0.5 0.5000001
v -1.5 -0.5 0.5000001
v -1.5 0.5 0.5000001
v 1.5 0.5 0.5000001
v 1.5 -0.5 0.5000001
v -1.5 0.5 -1.4999999
v -1.5 -0.5 0.5000001
v -1.5 -0.5 -1.4999999
v -1.5 0.5 0.5000001
v 1.5 -0.5 0.5000001
v 1.5 0.5 -1.4999999
v 1.5 -0.5 -1.4999999
v 1.5 0.5 0.5000001
vn -0.0 -1.0 0.0
vn -0.0 -1.0 0.0
vn -0.0 -1.0 0.0
vn -0.0 -1.0 0.0
vn -0.0 -1.0 0.0
vn -0.0 -1.0 0.0
vn -0.0 -1.0 0.0
vn -0.0 -1.0 0.0
vn -0.0 0.0 -1.0
vn -0.0 0.0 -1.0
vn -0.0 0.0 -1.0
vn -0.0 0.0 -1.0
vn -0.0 0.0 -1.0
vn -0.0 0.0 -1.0
vn -0.0 0.0 -1.0
vn -0.0 0.0 -1.0
vn -0.0 1.0 0.0
vn -0.0 1.0 0.0
vn -0.0 1.0 0.0
vn -0.0 1.0 0.0
vn -0.0 1.0 0.0
vn -0.0 1.0 0.0
vn -0.0 1.0 0.0
vn -0.0 1.0 0.0
vn -0.0 0.0 1.0
vn -0.0 0.0 1.0
vn -0.0 0.0 1.0
vn -0.0 0.0 1.0
vn -0.0 0.0 1.0
vn -0.0 0.0 1.0
vn -0.0 0.0 1.0
vn -0.0 0.0 1.0
vn -1.0 0.0 0.0
vn -1.0 0.0 0.0
vn -1.0 0.0 0.0
vn -1.0 0.0 0.0
vn 1.0 0.0 0.0
vn 1.0 0.0 0.0
vn 1.0 0.0 0.0
vn 1.0 0.0 0.0
vt 0.25587258 0.52265924
vt 0.4836952 0.7505085
vt 0.25587258 0.7505085
vt 0.4836952 0.52265924
vt 0.25587258 0.29481
vt 0.4836952 0.29481
vt 0.4836952 0.9783578
vt 0.25587258 0.9783578
vt 0.014374226 0.5226593
vt 0.24222344 0.7505085
vt 0.014374226 0.7505085
vt 0.24222344 0.5226593
vt 0.014374226 0.29481
vt 0.24222344 0.29481
vt 0.014374226 0.9783578
vt 0.24222344 0.9783578
vt 0.2421968 0.7505084
vt 0.014374145 0.5226592
vt 0.2421968 0.5226592
vt 0.014374145 0.7505084
vt 0.014374145 0.29481
vt 0.2421968 0.29481
vt 0.2421968 0.97835773
vt 0.014374145 0.97835773
vt 0.48369512 0.7505085
vt 0.25584593 0.5226593
vt 0.48369512 0.5226593
vt 0.25584593 0.7505085
vt 0.25584593 0.29481
vt 0.48369512 0.29481
vt 0.48369512 0.9783578
vt 0.25584593 0.9783578
vt 0.25013667 0.025823176
vt 0.47795922 0.2536723
vt 0.25013667 0.2536723
vt 0.47795922 0.025823176
vt 0.016178548 0.2536723
vt 0.24400115 0.025823176
vt 0.24400115 0.2536723
vt 0.016178548 0.025823176

g Block_Rect3x1
s 1
usemtl Block_Rect3x1
f 3/3/3 2/2/2 1/1/1 
f 2/2/2 4/4/4 1/1/1 
f 1/1/1 4/4/4 5/5/5 
f 4/4/4 6/6/6 5/5/5 
f 2/2/2 3/3/3 7/7/7 
f 3/3/3 8/8/8 7/7/7 
f 11/11/11 10/10/10 9/9/9 
f 10/10/10 12/12/12 9/9/9 
f 9/9/9 12/12/12 13/13/13 
f 12/12/12 14/14/14 13/13/13 
f 10/10/10 11/11/11 15/15/15 
f 16/16/16 10/10/10 15/15/15 
f 19/19/19 18/18/18 17/17/17 
f 18/18/18 20/20/20 17/17/17 
f 21/21/21 18/18/18 19/19/19 
f 22/22/22 21/21/21 19/19/19 
f 17/17/17 20/20/20 23/23/23 
f 20/20/20 24/24/24 23/23/23 
f 27/27/27 26/26/26 25/25/25 
f 26/26/26 28/28/28 25/25/25 
f 29/29/29 26/26/26 27/27/27 
f 30/30/30 29/29/29 27/27/27 
f 25/25/25 28/28/28 31/31/31 
f 28/28/28 32/32/32 31/31/31 
f 35/35/35 34/34/34 33/33/33 
f 34/34/34 36/36/36 33/33/33 
f 39/39/39 38/38/38 37/37/37 
f 38/38/38 40/40/40 37/37/37 

