# Created by DisUnity v0.3.4
v -0.5 -0.49999988 -1.5
v -0.5 -1.4999998 0.50000006
v -0.5 -1.4999998 -1.5
v -0.5 -0.49999988 0.50000006
v 1.5 -1.4999998 -1.5
v 1.5 -0.49999988 0.50000006
v 1.5 -0.49999988 -1.5
v 1.5 -1.4999998 0.50000006
v -0.5 -0.49999988 0.50000006
v 0.5 -1.4999998 0.50000006
v -0.5 -1.4999998 0.50000006
v 0.5 -0.49999988 0.50000006
v 1.5 -1.4999998 0.50000006
v 1.5 -0.49999988 0.50000006
v 0.5 0.5 0.50000006
v -0.5 0.5 0.50000006
v -1.4999999 -0.49999988 0.50000006
v -1.4999999 0.5 0.50000006
v 0.5 0.5 -1.5
v -0.5 0.5 0.50000006
v -0.5 0.5 -1.5
v 0.5 0.5 0.50000006
v -1.4999999 0.5 0.50000006
v -1.4999999 0.5 -1.5
v -0.5 -1.4999998 -1.5
v 0.5 -0.49999988 -1.5
v -0.5 -0.49999988 -1.5
v 0.5 -1.4999998 -1.5
v 1.5 -0.49999988 -1.5
v 1.5 -1.4999998 -1.5
v -0.5 0.5 -1.5
v 0.5 0.5 -1.5
v -1.4999999 -0.49999988 -1.5
v -1.4999999 0.5 -1.5
v 0.5 -1.4999998 0.50000006
v -0.5 -1.4999998 -1.5
v -0.5 -1.4999998 0.50000006
v 0.5 -1.4999998 -1.5
v 1.5 -1.4999998 -1.5
v 1.5 -1.4999998 0.50000006
v 1.5 -0.49999988 0.50000006
v 0.5 -0.49999988 -1.5
v 1.5 -0.49999988 -1.5
v 0.5 -0.49999988 0.50000006
v 0.5 -0.49999988 -1.5
v 0.5 0.5 0.50000006
v 0.5 0.5 -1.5
v 0.5 -0.49999988 0.50000006
v -1.4999999 -0.49999988 -1.5
v -1.4999999 0.5 0.50000006
v -1.4999999 -0.49999988 0.50000006
v -1.4999999 0.5 -1.5
v -1.4999999 -0.49999988 -1.5
v -0.5 -0.49999988 0.50000006
v -0.5 -0.49999988 -1.5
v -1.4999999 -0.49999988 0.50000006
vn -1.0 0.0 0.0
vn -1.0 0.0 0.0
vn -1.0 0.0 0.0
vn -1.0 0.0 0.0
vn 1.0 0.0 0.0
vn 1.0 0.0 0.0
vn 1.0 0.0 0.0
vn 1.0 0.0 0.0
vn -0.0 0.0 1.0
vn -0.0 0.0 1.0
vn -0.0 0.0 1.0
vn -0.0 0.0 1.0
vn -0.0 0.0 1.0
vn -0.0 0.0 1.0
vn -0.0 0.0 1.0
vn -0.0 0.0 1.0
vn -0.0 0.0 1.0
vn -0.0 0.0 1.0
vn -0.0 1.0 0.0
vn -0.0 1.0 0.0
vn -0.0 1.0 0.0
vn -0.0 1.0 0.0
vn -0.0 1.0 0.0
vn -0.0 1.0 0.0
vn -0.0 0.0 -1.0
vn -0.0 0.0 -1.0
vn -0.0 0.0 -1.0
vn -0.0 0.0 -1.0
vn -0.0 0.0 -1.0
vn -0.0 0.0 -1.0
vn -0.0 0.0 -1.0
vn -0.0 0.0 -1.0
vn -0.0 0.0 -1.0
vn -0.0 0.0 -1.0
vn -0.0 -1.0 0.0
vn -0.0 -1.0 0.0
vn -0.0 -1.0 0.0
vn -0.0 -1.0 0.0
vn -0.0 -1.0 0.0
vn -0.0 -1.0 0.0
vn -0.0 1.0 0.0
vn -0.0 1.0 0.0
vn -0.0 1.0 0.0
vn -0.0 1.0 0.0
vn 1.0 0.0 0.0
vn 1.0 0.0 0.0
vn 1.0 0.0 0.0
vn 1.0 0.0 0.0
vn -1.0 0.0 0.0
vn -1.0 0.0 0.0
vn -1.0 0.0 0.0
vn -1.0 0.0 0.0
vn -0.0 -1.0 0.0
vn -0.0 -1.0 0.0
vn -0.0 -1.0 0.0
vn -0.0 -1.0 0.0
vt 0.2545262 0.014927745
vt 0.032117456 0.23731828
vt 0.032102883 0.014927745
vt 0.25452727 0.2373184
vt 0.03211976 0.0149278045
vt 0.25451028 0.23731834
vt 0.03211952 0.23731834
vt 0.25451064 0.0149278045
vt 0.72750115 0.7382012
vt 0.50350475 0.96219754
vt 0.72750115 0.96219754
vt 0.50350475 0.7382012
vt 0.27950847 0.9621975
vt 0.27950847 0.7382012
vt 0.5035048 0.5142051
vt 0.72750115 0.5142051
vt 0.9514973 0.73820126
vt 0.95149744 0.5142051
vt 0.7446544 0.2574016
vt 0.52224886 0.47977734
vt 0.52226377 0.25738674
vt 0.7446393 0.47979212
vt 0.29983902 0.47977746
vt 0.29983997 0.25738668
vt 0.72750115 0.96219766
vt 0.5035049 0.73820126
vt 0.72750115 0.73820126
vt 0.5035049 0.9621976
vt 0.2795086 0.73820126
vt 0.27950847 0.96219766
vt 0.72750115 0.5142052
vt 0.5035049 0.5142052
vt 0.9514974 0.73820126
vt 0.95149744 0.5142052
vt 0.24501283 0.5204017
vt 0.022621997 0.29801083
vt 0.24501283 0.29801083
vt 0.022621997 0.5204017
vt 0.022621997 0.96518296
vt 0.24501283 0.96518296
vt 0.96676564 0.23731881
vt 0.5219843 0.014927685
vt 0.9667659 0.014928162
vt 0.52198404 0.23731834
vt 0.5219843 0.014927685
vt 0.2995936 0.23731834
vt 0.29959357 0.0149278045
vt 0.52198404 0.23731834
vt 0.032110274 0.014927208
vt 0.2545262 0.23731786
vt 0.032110274 0.23731786
vt 0.25452715 0.014927089
vt 0.25452703 0.014927387
vt 0.03211093 0.23731804
vt 0.032109857 0.014927387
vt 0.25452703 0.23731804

g Block_Z2x2
s 1
usemtl Block_Z2x2
f 3/3/3 2/2/2 1/1/1 
f 2/2/2 4/4/4 1/1/1 
f 7/7/7 6/6/6 5/5/5 
f 6/6/6 8/8/8 5/5/5 
f 11/11/11 10/10/10 9/9/9 
f 10/10/10 12/12/12 9/9/9 
f 10/10/10 13/13/13 12/12/12 
f 13/13/13 14/14/14 12/12/12 
f 9/9/9 12/12/12 15/15/15 
f 16/16/16 9/9/9 15/15/15 
f 9/9/9 16/16/16 17/17/17 
f 16/16/16 18/18/18 17/17/17 
f 21/21/21 20/20/20 19/19/19 
f 20/20/20 22/22/22 19/19/19 
f 20/20/20 21/21/21 23/23/23 
f 21/21/21 24/24/24 23/23/23 
f 27/27/27 26/26/26 25/25/25 
f 26/26/26 28/28/28 25/25/25 
f 26/26/26 29/29/29 28/28/28 
f 29/29/29 30/30/30 28/28/28 
f 26/26/26 27/27/27 31/31/31 
f 32/32/32 26/26/26 31/31/31 
f 31/31/31 27/27/27 33/33/33 
f 34/34/34 31/31/31 33/33/33 
f 37/37/37 36/36/36 35/35/35 
f 36/36/36 38/38/38 35/35/35 
f 35/35/35 38/38/38 39/39/39 
f 40/40/40 35/35/35 39/39/39 
f 43/43/43 42/42/42 41/41/41 
f 42/42/42 44/44/44 41/41/41 
f 47/47/47 46/46/46 45/45/45 
f 46/46/46 48/48/48 45/45/45 
f 51/51/51 50/50/50 49/49/49 
f 50/50/50 52/52/52 49/49/49 
f 55/55/55 54/54/54 53/53/53 
f 54/54/54 56/56/56 53/53/53 

