# Created by DisUnity v0.3.4
v 0.00119537 -0.00148165 -0.00411682
v -0.0 -4.5301998E-4 -0.00452951
v -0.0 -0.00198634 -0.00452951
v 0.00119537 5.888E-4 -0.00411682
v -0.0 -4.5301998E-4 -0.00452951
v -0.0 -4.5301998E-4 -0.00452951
v -0.00119537 -0.00148165 -0.00411682
v -0.0 -0.00198634 -0.00452951
v -0.0 -4.5301998E-4 -0.00452951
v -0.00119537 5.888E-4 -0.00411682
v -0.0 -5.4722995E-4 0.00111808
v 0.00183556 0.0018422399 3.2634E-4
v 0.00183556 -3.388E-5 3.2634E-4
v -0.0 0.00190933 0.00111808
v -0.00183556 0.0018422399 3.2634E-4
v -0.0 -5.4722995E-4 0.00111808
v -0.00183556 -3.388E-5 3.2634E-4
v -0.0 0.00190933 0.00111808
v 0.00183556 -3.388E-5 3.2634E-4
v -0.0 -5.3073E-4 7.4009E-4
v -0.0 -5.4722995E-4 0.00111808
v 0.00156314 -1.62E-4 1.8061999E-4
v -0.00183556 -3.388E-5 3.2634E-4
v -0.00156314 -1.62E-4 1.8061999E-4
v 0.00119537 -0.00148165 -0.00411682
v 0.00156314 -1.62E-4 1.8061999E-4
v 0.00183556 -3.388E-5 3.2634E-4
v 0.0014394 -4.5125998E-4 -6.7675003E-4
v -0.0 -0.00198634 -0.00452951
v -0.0 -8.1997993E-4 -0.00123292
v -0.0014394 -4.5125998E-4 -6.7675003E-4
v -0.00119537 -0.00148165 -0.00411682
v -0.00156314 -1.62E-4 1.8061999E-4
v -0.00183556 -3.388E-5 3.2634E-4
v -0.00156314 -1.62E-4 1.8061999E-4
v -0.0014394 -4.5125998E-4 -6.7675003E-4
v -0.00119537 -0.00148165 -0.00411682
v -0.0 -8.1997993E-4 -0.00123292
v 0.00138989 -2.1500001E-4 -7.3022995E-4
v 0.0014394 -4.5125998E-4 -6.7675003E-4
v -0.0 -5.8372E-4 -0.0012863999
v -0.00138989 -2.1500001E-4 -7.3022995E-4
v -0.0014394 -4.5125998E-4 -6.7675003E-4
v 0.00150581 7.425E-5 1.2714E-4
v 0.00150581 7.425E-5 1.2714E-4
v 0.00156314 -1.62E-4 1.8061999E-4
v -0.00150581 7.425E-5 1.2714E-4
v -0.00156314 -1.62E-4 1.8061999E-4
v -0.00150581 7.425E-5 1.2714E-4
v -0.00138989 -2.1500001E-4 -7.3022995E-4
v 0.00156314 -1.62E-4 1.8061999E-4
v -0.0 -2.9447E-4 6.8662E-4
v -0.0 -5.3073E-4 7.4009E-4
v -0.00156314 -1.62E-4 1.8061999E-4
v -0.00150581 7.425E-5 1.2714E-4
v 0.00150581 7.425E-5 1.2714E-4
v -0.0 -2.9447E-4 6.8662E-4
v -0.0 -5.8372E-4 -0.0012863999
v 0.00150581 7.425E-5 1.2714E-4
v 0.00138989 -2.1500001E-4 -7.3022995E-4
v -0.0 -2.9447E-4 6.8662E-4
v -0.00150581 7.425E-5 1.2714E-4
v -0.00150581 7.425E-5 1.2714E-4
v -0.00138989 -2.1500001E-4 -7.3022995E-4
v 0.00183556 -3.388E-5 3.2634E-4
v 0.00119537 5.888E-4 -0.00411682
v 0.00119537 -0.00148165 -0.00411682
v 0.00183556 0.0018422399 3.2634E-4
v -0.00119537 5.888E-4 -0.00411682
v -0.00183556 -3.388E-5 3.2634E-4
v -0.00119537 -0.00148165 -0.00411682
v -0.00183556 0.0018422399 3.2634E-4
v 0.00234843 -5.0516997E-4 0.0015376
v 0.008497289 0.00130077 0.0056221597
v 0.00320129 4.038E-5 6.1143E-4
v 0.0021688798 -4.4806E-4 8.6264993E-4
v 0.00249403 -2.4008E-4 5.0955E-4
v 0.00234843 -5.0516997E-4 0.0015376
v 0.00834572 0.00118186 0.0058977995
v 0.008497289 0.00130077 0.0056221597
v -0.008497289 0.00130077 0.0056221597
v -0.00234843 -5.0516997E-4 0.0015376
v -0.00320129 4.038E-5 6.1143E-4
v -0.00834572 0.00118186 0.0058977995
v -0.0021688798 -4.4806E-4 8.6264993E-4
v -0.00249403 -2.4008E-4 5.0955E-4
v 0.00320129 4.038E-5 6.1143E-4
v 0.00240231 -2.427E-5 5.5220997E-4
v 0.00249403 -2.4008E-4 5.0955E-4
v 0.0031095701 2.5619E-4 6.5408996E-4
v -0.00240231 -2.427E-5 5.5220997E-4
v -0.00320129 4.038E-5 6.1143E-4
v -0.00249403 -2.4008E-4 5.0955E-4
v -0.0031095701 2.5619E-4 6.5408996E-4
v 0.00249403 -2.4008E-4 5.0955E-4
v 0.00207716 -2.3226E-4 9.0529997E-4
v 0.0021688798 -4.4806E-4 8.6264993E-4
v 0.00249403 -2.4008E-4 5.0955E-4
v 0.00240231 -2.427E-5 5.5220997E-4
v 0.00207716 -2.3226E-4 9.0529997E-4
v -0.00207716 -2.3226E-4 9.0529997E-4
v -0.00249403 -2.4008E-4 5.0955E-4
v -0.0021688798 -4.4806E-4 8.6264993E-4
v -0.00207716 -2.3226E-4 9.0529997E-4
v -0.00240231 -2.427E-5 5.5220997E-4
v 0.0021688798 -4.4806E-4 8.6264993E-4
v 0.0022567098 -2.8937001E-4 0.00158025
v 0.00234843 -5.0516997E-4 0.0015376
v 0.00207716 -2.3226E-4 9.0529997E-4
v -0.0022567098 -2.8937001E-4 0.00158025
v -0.0021688798 -4.4806E-4 8.6264993E-4
v -0.00234843 -5.0516997E-4 0.0015376
v -0.00207716 -2.3226E-4 9.0529997E-4
v 0.00234843 -5.0516997E-4 0.0015376
v 0.008254 0.00139767 0.0059404597
v 0.00834572 0.00118186 0.0058977995
v 0.00234843 -5.0516997E-4 0.0015376
v 0.0022567098 -2.8937001E-4 0.00158025
v 0.008254 0.00139767 0.0059404597
v -0.008254 0.00139767 0.0059404597
v -0.00234843 -5.0516997E-4 0.0015376
v -0.00834572 0.00118186 0.0058977995
v -0.008254 0.00139767 0.0059404597
v -0.0022567098 -2.8937001E-4 0.00158025
v -0.00234843 -5.0516997E-4 0.0015376
v 0.008497289 0.00130077 0.0056221597
v 0.0031095701 2.5619E-4 6.5408996E-4
v 0.00320129 4.038E-5 6.1143E-4
v 0.00840557 0.00151657 0.00566482
v -0.0031095701 2.5619E-4 6.5408996E-4
v -0.008497289 0.00130077 0.0056221597
v -0.00320129 4.038E-5 6.1143E-4
v -0.00840557 0.00151657 0.00566482
v 0.00834572 0.00118186 0.0058977995
v 0.00840557 0.00151657 0.00566482
v 0.008497289 0.00130077 0.0056221597
v 0.008254 0.00139767 0.0059404597
v -0.00840557 0.00151657 0.00566482
v -0.00834572 0.00118186 0.0058977995
v -0.008497289 0.00130077 0.0056221597
v -0.008254 0.00139767 0.0059404597
v 0.0031095701 2.5619E-4 6.5408996E-4
v 0.00207716 -2.3226E-4 9.0529997E-4
v 0.00240231 -2.427E-5 5.5220997E-4
v 0.0022567098 -2.8937001E-4 0.00158025
v 0.00840557 0.00151657 0.00566482
v 0.008254 0.00139767 0.0059404597
v -0.00207716 -2.3226E-4 9.0529997E-4
v -0.0031095701 2.5619E-4 6.5408996E-4
v -0.00240231 -2.427E-5 5.5220997E-4
v -0.0022567098 -2.8937001E-4 0.00158025
v -0.00840557 0.00151657 0.00566482
v -0.008254 0.00139767 0.0059404597
vn 0.32633582 0.0 -0.94525385
vn 0.32633582 0.0 -0.94525385
vn 0.32633582 0.0 -0.94525385
vn 0.32633582 0.0 -0.94525385
vn 0.32633582 0.0 -0.94525385
vn -0.32633582 0.0 -0.94525385
vn -0.32633582 0.0 -0.94525385
vn -0.32633582 0.0 -0.94525385
vn -0.32633582 0.0 -0.94525385
vn -0.32633582 0.0 -0.94525385
vn 0.39604723 0.0 0.9182301
vn 0.39604723 0.0 0.9182301
vn 0.39604723 0.0 0.9182301
vn 0.39604723 0.0 0.9182301
vn -0.39604723 0.0 0.9182301
vn -0.39604723 0.0 0.9182301
vn -0.39604723 0.0 0.9182301
vn -0.39604723 0.0 0.9182301
vn 0.27379116 -0.9597798 0.06213787
vn -0.0 -0.9979107 0.06460875
vn -0.0 -0.9979107 0.06460875
vn 0.27379116 -0.9597798 0.06213787
vn -0.27379116 -0.9597798 0.06213787
vn -0.27379116 -0.9597798 0.06213787
vn 0.20438613 -0.9331507 0.2957297
vn 0.3215491 -0.9125512 0.25269803
vn 0.3215491 -0.9125512 0.25269803
vn 0.29020655 -0.91960293 0.2647841
vn -0.0 -0.9528869 0.30332586
vn -0.0 -0.9528869 0.30332586
vn -0.29020655 -0.91960293 0.2647841
vn -0.20438613 -0.9331507 0.2957297
vn -0.3215491 -0.9125512 0.25269803
vn -0.3215491 -0.9125512 0.25269803
vn -0.3215491 -0.9125512 0.25269803
vn -0.29020655 -0.91960293 0.2647841
vn -0.20438613 -0.9331507 0.2957297
vn -0.0 0.17734633 0.9841485
vn -0.78343374 -0.009277907 0.62140614
vn -0.77503675 -0.0043032165 0.6319014
vn -0.0 0.17734633 0.9841485
vn 0.78343374 -0.009277907 0.62140614
vn 0.77503675 -0.0043032165 0.6319014
vn -0.96541834 -0.17441803 0.1937673
vn -0.96541834 -0.17441803 0.1937673
vn -0.96541834 -0.17441803 0.1937673
vn 0.96541834 -0.17441803 0.1937673
vn 0.96541834 -0.17441803 0.1937673
vn 0.96541834 -0.17441803 0.1937673
vn 0.78343374 -0.009277907 0.62140614
vn -0.2798626 -0.24409392 -0.9284907
vn -0.0 -0.25425893 -0.96713626
vn -0.0 -0.25425893 -0.96713626
vn 0.2798626 -0.24409392 -0.9284907
vn 0.2798626 -0.24409392 -0.9284907
vn -0.2798626 -0.24409392 -0.9284907
vn -0.0 -0.25425893 -0.96713626
vn -0.0 -0.98171073 0.1903787
vn 0.24274775 -0.952344 0.1847007
vn 0.24274775 -0.952344 0.1847007
vn -0.0 -0.98171073 0.1903787
vn -0.24274775 -0.952344 0.1847007
vn -0.24274775 -0.952344 0.1847007
vn -0.24274775 -0.952344 0.1847007
vn 0.98978275 0.0 -0.1425834
vn 0.98978275 0.0 -0.1425834
vn 0.98978275 0.0 -0.1425834
vn 0.98978275 0.0 -0.1425834
vn -0.98978275 0.0 -0.1425834
vn -0.98978275 0.0 -0.1425834
vn -0.98978275 0.0 -0.1425834
vn -0.98978275 0.0 -0.1425834
vn 0.38481745 -0.90547615 -0.17896499
vn 0.38481745 -0.90547615 -0.17896499
vn 0.38481745 -0.90547615 -0.17896499
vn 0.38481745 -0.90547615 -0.17896499
vn 0.38481745 -0.90547615 -0.17896499
vn 0.38481745 -0.90547615 -0.17896499
vn 0.38481745 -0.90547615 -0.17896499
vn 0.38481745 -0.90547615 -0.17896499
vn -0.38481745 -0.90547615 -0.17896499
vn -0.38481745 -0.90547615 -0.17896499
vn -0.38481745 -0.90547615 -0.17896499
vn -0.38481745 -0.90547615 -0.17896499
vn -0.38481745 -0.90547615 -0.17896499
vn -0.38481745 -0.90547615 -0.17896499
vn 0.05478111 0.21598099 -0.97485954
vn 0.05478111 0.21598099 -0.97485954
vn 0.05478111 0.21598099 -0.97485954
vn 0.05478111 0.21598099 -0.97485954
vn -0.05478111 0.21598099 -0.97485954
vn -0.05478111 0.21598099 -0.97485954
vn -0.05478111 0.21598099 -0.97485954
vn -0.05478111 0.21598099 -0.97485954
vn -0.6823254 -0.14850809 -0.71580535
vn -0.6823254 -0.14850809 -0.71580535
vn -0.6823254 -0.14850809 -0.71580535
vn -0.6823254 -0.14850809 -0.71580535
vn -0.6823254 -0.14850809 -0.71580535
vn -0.6823254 -0.14850809 -0.71580535
vn 0.6823254 -0.14850809 -0.71580535
vn 0.6823254 -0.14850809 -0.71580535
vn 0.6823254 -0.14850809 -0.71580535
vn 0.6823254 -0.14850809 -0.71580535
vn 0.6823254 -0.14850809 -0.71580535
vn -0.8867079 -0.41652745 0.20063391
vn -0.8867079 -0.41652745 0.20063391
vn -0.8867079 -0.41652745 0.20063391
vn -0.8867079 -0.41652745 0.20063391
vn 0.8867079 -0.41652745 0.20063391
vn 0.8867079 -0.41652745 0.20063391
vn 0.8867079 -0.41652745 0.20063391
vn 0.8867079 -0.41652745 0.20063391
vn -0.4794566 -0.36180508 0.79951143
vn -0.4794566 -0.36180508 0.79951143
vn -0.4794566 -0.36180508 0.79951143
vn -0.4794566 -0.36180508 0.79951143
vn -0.4794566 -0.36180508 0.79951143
vn -0.4794566 -0.36180508 0.79951143
vn 0.4794566 -0.36180508 0.79951143
vn 0.4794566 -0.36180508 0.79951143
vn 0.4794566 -0.36180508 0.79951143
vn 0.4794566 -0.36180508 0.79951143
vn 0.4794566 -0.36180508 0.79951143
vn 0.4794566 -0.36180508 0.79951143
vn 0.5827146 0.38873076 -0.7136751
vn 0.5827146 0.38873076 -0.7136751
vn 0.5827146 0.38873076 -0.7136751
vn 0.5827146 0.38873076 -0.7136751
vn -0.5827146 0.38873076 -0.7136751
vn -0.5827146 0.38873076 -0.7136751
vn -0.5827146 0.38873076 -0.7136751
vn -0.5827146 0.38873076 -0.7136751
vn 0.80545473 0.23475136 0.5441825
vn 0.80545473 0.23475136 0.5441825
vn 0.80545473 0.23475136 0.5441825
vn 0.80545473 0.23475136 0.5441825
vn -0.80545473 0.23475136 0.5441825
vn -0.80545473 0.23475136 0.5441825
vn -0.80545473 0.23475136 0.5441825
vn -0.80545473 0.23475136 0.5441825
vn -0.38481745 0.90547615 0.17896499
vn -0.38481745 0.90547615 0.17896499
vn -0.38481745 0.90547615 0.17896499
vn -0.38481745 0.90547615 0.17896499
vn -0.38481745 0.90547615 0.17896499
vn -0.38481745 0.90547615 0.17896499
vn 0.38481745 0.90547615 0.17896499
vn 0.38481745 0.90547615 0.17896499
vn 0.38481745 0.90547615 0.17896499
vn 0.38481745 0.90547615 0.17896499
vn 0.38481745 0.90547615 0.17896499
vn 0.38481745 0.90547615 0.17896499
vt 0.264663 0.82089996
vt 0.22529 0.950008
vt 0.222436 0.84016
vt 0.400248 0.89647
vt 0.22529 0.950008
vt 0.22529 0.950008
vt 0.179266 0.823118
vt 0.222436 0.84016
vt 0.22529 0.950008
vt 0.047788 0.905625
vt 0.217329 0.643569
vt 0.382364 0.552468
vt 0.294985 0.64923
vt 0.212778 0.46834302
vt 0.047788 0.561159
vt 0.217329 0.643569
vt 0.140072 0.65325403
vt 0.212778 0.46834302
vt 0.650484 0.608374
vt 0.512682 0.635447
vt 0.501643 0.610608
vt 0.633886 0.62744296
vt 0.400248 0.719593
vt 0.425524 0.72005
vt 0.703859 0.893106
vt 0.633886 0.62744296
vt 0.650484 0.608374
vt 0.64434 0.69609404
vt 0.65249 0.950008
vt 0.57054 0.765624
vt 0.469477 0.773812
vt 0.575831 0.950008
vt 0.425524 0.72005
vt 0.400248 0.719593
vt 0.425524 0.72005
vt 0.469477 0.773812
vt 0.575831 0.950008
vt 0.761039 0.26059598
vt 0.857816 0.243972
vt 0.865845 0.26059598
vt 0.767847 0.24578297
vt 0.710633 0.17632598
vt 0.692789 0.181059
vt 0.885438 0.20338702
vt 0.885438 0.20338702
vt 0.908121 0.20414501
vt 0.723445 0.12893498
vt 0.708099 0.11221403
vt 0.723445 0.12893498
vt 0.710633 0.17632598
vt 0.908121 0.20414501
vt 0.824155 0.12326902
vt 0.831745 0.106754005
vt 0.708099 0.11221403
vt 0.723445 0.12893498
vt 0.885438 0.20338702
vt 0.824155 0.12326902
vt 0.767847 0.24578297
vt 0.885438 0.20338702
vt 0.857816 0.243972
vt 0.824155 0.12326902
vt 0.723445 0.12893498
vt 0.723445 0.12893498
vt 0.710633 0.17632598
vt 0.294985 0.64923
vt 0.400248 0.89647
vt 0.264663 0.82089996
vt 0.382364 0.552468
vt 0.047788 0.905625
vt 0.140072 0.65325403
vt 0.179266 0.823118
vt 0.047788 0.561159
vt 0.088737 0.26059598
vt 0.2583 0.393874
vt 0.12766 0.369336
vt 0.047788 0.317146
vt 0.067766 0.365286
vt 0.088737 0.26059598
vt 0.707894 0.407956
vt 0.2583 0.393874
vt 0.492918 0.17519599
vt 0.641512 0.049992025
vt 0.640559 0.158957
vt 0.047788 0.16037798
vt 0.688679 0.07952601
vt 0.688316 0.121068
vt 0.12766 0.369336
vt 0.082573 0.387282
vt 0.067766 0.365286
vt 0.123761 0.389332
vt 0.674126 0.19692302
vt 0.640559 0.158957
vt 0.692789 0.18596601
vt 0.639749 0.180785
vt 0.067766 0.365286
vt 0.0698 0.410703
vt 0.047788 0.413454
vt 0.067766 0.365286
vt 0.082573 0.387282
vt 0.0698 0.410703
vt 0.676364 0.22011298
vt 0.692789 0.18596601
vt 0.692789 0.22937799
vt 0.676364 0.22011298
vt 0.674126 0.19692302
vt 0.047788 0.413454
vt 0.092929 0.44012898
vt 0.087499 0.46834302
vt 0.0698 0.410703
vt 0.646868 0.23697299
vt 0.692789 0.22937799
vt 0.646427 0.26059598
vt 0.676364 0.22011298
vt 0.087499 0.46834302
vt 0.270127 0.42881602
vt 0.707894 0.407956
vt 0.087499 0.46834302
vt 0.092929 0.44012898
vt 0.270127 0.42881602
vt 0.477886 0.21108502
vt 0.646427 0.26059598
vt 0.047788 0.16037798
vt 0.477886 0.21108502
vt 0.646868 0.23697299
vt 0.646427 0.26059598
vt 0.2583 0.393874
vt 0.123761 0.389332
vt 0.12766 0.369336
vt 0.249076 0.407646
vt 0.639749 0.180785
vt 0.492918 0.17519599
vt 0.640559 0.158957
vt 0.50155 0.19011497
vt 0.707894 0.407956
vt 0.249076 0.407646
vt 0.2583 0.393874
vt 0.270127 0.42881602
vt 0.50155 0.19011497
vt 0.047788 0.16037798
vt 0.492918 0.17519599
vt 0.477886 0.21108502
vt 0.123761 0.389332
vt 0.0698 0.410703
vt 0.082573 0.387282
vt 0.092929 0.44012898
vt 0.249076 0.407646
vt 0.270127 0.42881602
vt 0.676364 0.22011298
vt 0.639749 0.180785
vt 0.674126 0.19692302
vt 0.646868 0.23697299
vt 0.50155 0.19011497
vt 0.477886 0.21108502

g Combo_Multiplier
s 1
usemtl Combo_Multiplier
f 3/3/3 2/2/2 1/1/1 
f 5/5/5 4/4/4 1/1/1 
f 8/8/8 7/7/7 6/6/6 
f 7/7/7 10/10/10 9/9/9 
f 13/13/13 12/12/12 11/11/11 
f 12/12/12 14/14/14 11/11/11 
f 17/17/17 16/16/16 15/15/15 
f 16/16/16 18/18/18 15/15/15 
f 21/21/21 20/20/20 19/19/19 
f 20/20/20 22/22/22 19/19/19 
f 21/21/21 23/23/23 20/20/20 
f 23/23/23 24/24/24 20/20/20 
f 27/27/27 26/26/26 25/25/25 
f 26/26/26 28/28/28 25/25/25 
f 25/25/25 28/28/28 29/29/29 
f 28/28/28 30/30/30 29/29/29 
f 29/29/29 30/30/30 31/31/31 
f 32/32/32 29/29/29 31/31/31 
f 34/34/34 32/32/32 33/33/33 
f 37/37/37 36/36/36 35/35/35 
f 40/40/40 39/39/39 38/38/38 
f 39/39/39 41/41/41 38/38/38 
f 38/38/38 41/41/41 42/42/42 
f 43/43/43 38/38/38 42/42/42 
f 44/44/44 39/39/39 40/40/40 
f 46/46/46 45/45/45 40/40/40 
f 48/48/48 43/43/43 47/47/47 
f 43/43/43 50/50/50 49/49/49 
f 53/53/53 52/52/52 51/51/51 
f 53/53/53 54/54/54 52/52/52 
f 54/54/54 55/55/55 52/52/52 
f 57/57/57 56/56/56 51/51/51 
f 60/60/60 59/59/59 58/58/58 
f 59/59/59 61/61/61 58/58/58 
f 58/58/58 61/61/61 62/62/62 
f 64/64/64 58/58/58 63/63/63 
f 67/67/67 66/66/66 65/65/65 
f 66/66/66 68/68/68 65/65/65 
f 71/71/71 70/70/70 69/69/69 
f 70/70/70 72/72/72 69/69/69 
f 75/75/75 74/74/74 73/73/73 
f 73/73/73 76/76/76 75/75/75 
f 76/76/76 77/77/77 75/75/75 
f 80/80/80 79/79/79 78/78/78 
f 83/83/83 82/82/82 81/81/81 
f 82/82/82 84/84/84 81/81/81 
f 82/82/82 83/83/83 85/85/85 
f 83/83/83 86/86/86 85/85/85 
f 89/89/89 88/88/88 87/87/87 
f 88/88/88 90/90/90 87/87/87 
f 93/93/93 92/92/92 91/91/91 
f 92/92/92 94/94/94 91/91/91 
f 97/97/97 96/96/96 95/95/95 
f 100/100/100 99/99/99 98/98/98 
f 103/103/103 102/102/102 101/101/101 
f 102/102/102 105/105/105 104/104/104 
f 108/108/108 107/107/107 106/106/106 
f 107/107/107 109/109/109 106/106/106 
f 112/112/112 111/111/111 110/110/110 
f 111/111/111 113/113/113 110/110/110 
f 116/116/116 115/115/115 114/114/114 
f 119/119/119 118/118/118 117/117/117 
f 122/122/122 121/121/121 120/120/120 
f 125/125/125 124/124/124 123/123/123 
f 128/128/128 127/127/127 126/126/126 
f 127/127/127 129/129/129 126/126/126 
f 132/132/132 131/131/131 130/130/130 
f 131/131/131 133/133/133 130/130/130 
f 136/136/136 135/135/135 134/134/134 
f 135/135/135 137/137/137 134/134/134 
f 140/140/140 139/139/139 138/138/138 
f 139/139/139 141/141/141 138/138/138 
f 144/144/144 143/143/143 142/142/142 
f 143/143/143 145/145/145 142/142/142 
f 146/146/146 142/142/142 145/145/145 
f 147/147/147 146/146/146 145/145/145 
f 150/150/150 149/149/149 148/148/148 
f 149/149/149 151/151/151 148/148/148 
f 151/151/151 149/149/149 152/152/152 
f 153/153/153 151/151/151 152/152/152 

