# Created by DisUnity v0.3.4
v -2.1974999E-4 -0.00337956 -0.00162616
v 0.00194941 -0.00130326 -0.00266648
v 0.00124769 -0.00120368 -0.0029248397
v 4.2757E-4 -0.00367785 -0.0013790099
v 5.1683997E-4 0.0041776 -0.0012205
v 9.9641E-4 0.0018626199 -0.0029234497
v 0.0016807499 0.00199258 -0.0026338499
v -1.0955E-4 0.0039064297 -0.0015417399
v -0.0013551299 0.0026375698 0.0027410998
v -1.0955E-4 0.0039064297 -0.0015417399
v 5.1683997E-4 0.0041776 -0.0012205
v -0.00198151 0.0023664 0.00241986
v -1.0955E-4 0.0039064297 -0.0015417399
v 0.0016807499 0.00199258 -0.0026338499
v 0.00124769 -0.00120368 -0.0029248397
v 0.00194941 -0.00130326 -0.00266648
v 9.9641E-4 0.0018626199 -0.0029234497
v 1.9819998E-4 -0.0016319499 0.0016907599
v -4.4148002E-4 9.3374E-4 0.0016398799
v 2.3429E-4 0.0010904099 0.00193632
v -4.8978E-4 -0.0014588401 0.0014342199
v -0.00165064 -0.0030069598 0.0024033599
v 4.2757E-4 -0.00367785 -0.0013790099
v -2.1974999E-4 -0.00337956 -0.00162616
v -0.00165064 -0.0030069598 0.0024033599
v -0.00100332 -0.00330525 0.0026505198
v -0.00100332 -0.00330525 0.0026505198
v -4.8978E-4 -0.0014588401 0.0014342199
v 1.9819998E-4 -0.0016319499 0.0016907599
v -0.00100332 -0.00330525 0.0026505198
v -0.00165064 -0.0030069598 0.0024033599
v 2.3429E-4 0.0010904099 0.00193632
v -0.00198151 0.0023664 0.00241986
v -0.0013551299 0.0026375698 0.0027410998
v -4.4148002E-4 9.3374E-4 0.0016398799
v -0.00198151 0.0023664 0.00241986
v 0.00124769 -0.00120368 -0.0029248397
v -0.00165064 -0.0030069598 0.0024033599
v -2.1974999E-4 -0.00337956 -0.00162616
v -4.8978E-4 -0.0014588401 0.0014342199
v -0.00165064 -0.0030069598 0.0024033599
v -1.0955E-4 0.0039064297 -0.0015417399
v -4.4148002E-4 9.3374E-4 0.0016398799
v 9.9641E-4 0.0018626199 -0.0029234497
v -0.00198151 0.0023664 0.00241986
v 9.9641E-4 0.0018626199 -0.0029234497
v -4.8978E-4 -0.0014588401 0.0014342199
v 0.00124769 -0.00120368 -0.0029248397
v -4.4148002E-4 9.3374E-4 0.0016398799
v 0.00194941 -0.00130326 -0.00266648
v -0.00100332 -0.00330525 0.0026505198
v 1.9819998E-4 -0.0016319499 0.0016907599
v 4.2757E-4 -0.00367785 -0.0013790099
v 2.3429E-4 0.0010904099 0.00193632
v 5.1683997E-4 0.0041776 -0.0012205
v 0.0016807499 0.00199258 -0.0026338499
v -0.0013551299 0.0026375698 0.0027410998
v 1.9819998E-4 -0.0016319499 0.0016907599
v 0.0016807499 0.00199258 -0.0026338499
v 0.00194941 -0.00130326 -0.00266648
v 2.3429E-4 0.0010904099 0.00193632
vn 0.14185327 -0.55789113 -0.81770116
vn 0.14185327 -0.55789113 -0.81770116
vn 0.14185327 -0.55789113 -0.81770116
vn 0.14185327 -0.55789113 -0.81770116
vn 0.17563967 0.606697 -0.7752867
vn 0.17563967 0.606697 -0.7752867
vn 0.17563967 0.606697 -0.7752867
vn 0.17563967 0.606697 -0.7752867
vn -0.44967264 0.8835363 0.13098921
vn -0.44967264 0.8835363 0.13098921
vn -0.44967264 0.8835363 0.13098921
vn -0.44967264 0.8835363 0.13098921
vn -0.44967264 0.8835363 0.13098921
vn 0.36674494 0.034944072 -0.92966497
vn 0.36674494 0.034944072 -0.92966497
vn 0.36674494 0.034944072 -0.92966497
vn 0.36674494 0.034944072 -0.92966497
vn -0.37548223 -0.075291775 0.9237664
vn -0.37548223 -0.075291775 0.9237664
vn -0.37548223 -0.075291775 0.9237664
vn -0.37548223 -0.075291775 0.9237664
vn -0.39967483 -0.91486347 -0.057314392
vn -0.39967483 -0.91486347 -0.057314392
vn -0.39967483 -0.91486347 -0.057314392
vn -0.39967483 -0.91486347 -0.057314392
vn -0.39967483 -0.91486347 -0.057314392
vn -0.107518226 0.5675913 0.8162597
vn -0.107518226 0.5675913 0.8162597
vn -0.107518226 0.5675913 0.8162597
vn -0.107518226 0.5675913 0.8162597
vn -0.107518226 0.5675913 0.8162597
vn -0.17414354 -0.59869856 0.7818147
vn -0.17414354 -0.59869856 0.7818147
vn -0.17414354 -0.59869856 0.7818147
vn -0.17414354 -0.59869856 0.7818147
vn -0.17414354 -0.59869856 0.7818147
vn -0.8542897 0.40300432 -0.3282936
vn -0.8542897 0.40300432 -0.3282936
vn -0.8542897 0.40300432 -0.3282936
vn -0.8542897 0.40300432 -0.3282936
vn -0.8542897 0.40300432 -0.3282936
vn -0.82761747 -0.3644593 -0.42687088
vn -0.82761747 -0.3644593 -0.42687088
vn -0.82761747 -0.3644593 -0.42687088
vn -0.82761747 -0.3644593 -0.42687088
vn -0.94095296 -0.022156585 -0.33781162
vn -0.94095296 -0.022156585 -0.33781162
vn -0.94095296 -0.022156585 -0.33781162
vn -0.94095296 -0.022156585 -0.33781162
vn 0.8580859 -0.39541048 0.3276267
vn 0.8580859 -0.39541048 0.3276267
vn 0.8580859 -0.39541048 0.3276267
vn 0.8580859 -0.39541048 0.3276267
vn 0.83033556 0.35945502 0.42583427
vn 0.83033556 0.35945502 0.42583427
vn 0.83033556 0.35945502 0.42583427
vn 0.83033556 0.35945502 0.42583427
vn 0.94032633 0.020630963 0.33964792
vn 0.94032633 0.020630963 0.33964792
vn 0.94032633 0.020630963 0.33964792
vn 0.94032633 0.020630963 0.33964792
vt 0.100961 0.66382897
vt 0.221545 0.510833
vt 0.237109 0.558406
vt 0.060704 0.63585496
vt 0.605135 0.613344
vt 0.431602 0.562695
vt 0.448398 0.510833
vt 0.564164 0.637823
vt 0.636524 0.899936
vt 0.564164 0.637823
vt 0.605135 0.613344
vt 0.582957 0.862724
vt 0.564164 0.637823
vt 0.448398 0.510833
vt 0.237109 0.558406
vt 0.221545 0.510833
vt 0.431602 0.562695
vt 0.186877 0.974094
vt 0.420793 0.930281
vt 0.431055 1.0
vt 0.204366 0.91239
vt 0.058906 0.86605597
vt 0.060704 0.63585496
vt 0.100961 0.66382897
vt 0.058906 0.86605597
vt 0.0 0.901204
vt 0.0 0.901204
vt 0.204366 0.91239
vt 0.186877 0.974094
vt 0.0 0.901204
vt 0.058906 0.86605597
vt 0.431055 1.0
vt 0.582957 0.862724
vt 0.636524 0.899936
vt 0.420793 0.930281
vt 0.582957 0.862724
vt 0.237109 0.558406
vt 0.058906 0.86605597
vt 0.100961 0.66382897
vt 0.204366 0.91239
vt 0.058906 0.86605597
vt 0.564164 0.637823
vt 0.420793 0.930281
vt 0.431602 0.562695
vt 0.582957 0.862724
vt 0.431602 0.562695
vt 0.204366 0.91239
vt 0.237109 0.558406
vt 0.420793 0.930281
vt 0.347626 0.510833
vt 0.0 0.259938
vt 0.152094 0.263682
vt 0.14007 0.510833
vt 0.294623 0.14889199
vt 0.586625 0.198582
vt 0.525835 0.379484
vt 0.347384 0.0
vt 0.152094 0.263682
vt 0.525835 0.379484
vt 0.347626 0.510833
vt 0.294623 0.14889199

g def_hand_arm_L_lv3
s 1
usemtl def_hand_arm_L_lv3
f 3/3/3 2/2/2 1/1/1 
f 2/2/2 4/4/4 1/1/1 
f 7/7/7 6/6/6 5/5/5 
f 6/6/6 8/8/8 5/5/5 
f 11/11/11 10/10/10 9/9/9 
f 13/13/13 12/12/12 9/9/9 
f 16/16/16 15/15/15 14/14/14 
f 15/15/15 17/17/17 14/14/14 
f 20/20/20 19/19/19 18/18/18 
f 19/19/19 21/21/21 18/18/18 
f 24/24/24 23/23/23 22/22/22 
f 23/23/23 26/26/26 25/25/25 
f 29/29/29 28/28/28 27/27/27 
f 28/28/28 31/31/31 30/30/30 
f 34/34/34 33/33/33 32/32/32 
f 36/36/36 35/35/35 32/32/32 
f 39/39/39 38/38/38 37/37/37 
f 41/41/41 40/40/40 37/37/37 
f 44/44/44 43/43/43 42/42/42 
f 43/43/43 45/45/45 42/42/42 
f 48/48/48 47/47/47 46/46/46 
f 47/47/47 49/49/49 46/46/46 
f 52/52/52 51/51/51 50/50/50 
f 51/51/51 53/53/53 50/50/50 
f 56/56/56 55/55/55 54/54/54 
f 55/55/55 57/57/57 54/54/54 
f 60/60/60 59/59/59 58/58/58 
f 59/59/59 61/61/61 58/58/58 

