# Created by DisUnity v0.3.4
v -0.0019440199 -5.7464995E-4 -0.00206034
v -0.00260613 0.00238971 -0.00286878
v -0.0019761599 0.0021368898 -0.0017051899
v -0.00274358 -5.4454E-4 -0.00306214
v -7.7014E-4 0.00441774 -0.0019193699
v 5.69E-5 0.0038351698 -8.5226E-4
v -5.3117E-4 -0.0026705898 -0.00122698
v -0.00118455 -0.0028472398 -0.00255293
v -0.00236973 -6.7726E-4 -0.0016532799
v -5.3117E-4 -0.0026705898 -0.00122698
v -0.0019440199 -5.7464995E-4 -0.00206034
v -0.0010019 -0.00260583 -7.7826E-4
v -0.00230034 0.00210427 -0.0013699199
v -0.0019761599 0.0021368898 -0.0017051899
v -4.1382998E-4 0.0038999398 -4.0355E-4
v 5.69E-5 0.0038351698 -8.5226E-4
v -8.6515E-4 0.00182925 5.4546E-4
v -0.00236973 -6.7726E-4 -0.0016532799
v -0.00230034 0.00210427 -0.0013699199
v -8.7563996E-4 -8.5690996E-4 2.8115E-4
v 0.00114692 0.00345213 0.00138135
v -4.1382998E-4 0.0038999398 -4.0355E-4
v -0.0010019 -0.00260583 -7.7826E-4
v 5.1435E-4 -0.00261905 9.2031E-4
v -0.0012674499 -9.5564994E-4 7.1776E-4
v 5.1435E-4 -0.00261905 9.2031E-4
v -8.7563996E-4 -8.5690996E-4 2.8115E-4
v 7.5849995E-5 -0.00258346 0.00139806
v -0.00114421 0.00183238 9.0930995E-4
v -8.6515E-4 0.00182925 5.4546E-4
v 7.0841995E-4 0.00348771 0.0018591
v 0.00114692 0.00345213 0.00138135
v 0.00102431 0.00143334 0.00399885
v -0.0012674499 -9.5564994E-4 7.1776E-4
v -0.00114421 0.00183238 9.0930995E-4
v 9.7237993E-4 -0.0011841999 0.00358235
v 0.0016505399 0.00313838 0.0029366498
v 7.0841995E-4 0.00348771 0.0018591
v 7.5849995E-5 -0.00258346 0.00139806
v 0.00110161 -0.00274957 0.0025990598
v 0.00135106 -0.00265023 -0.0013227799
v 0.0020270199 -0.0029697001 0.00221277
v 2.1888998E-4 -0.00274676 -4.6992E-4
v 0.0038472898 -0.0028145 8.4156997E-4
v -0.00122919 -3.3374E-4 -0.00205133
v -0.00200816 0.00226685 -0.0033119898
v -0.0021221 -4.1205E-4 -0.0034687298
v -0.00130079 0.00180114 -0.00172104
v -2.5595E-4 0.00410325 -0.00237301
v 5.7247997E-4 0.00328505 -8.7756E-4
v 6.171E-5 -0.00220972 -0.00115514
v -5.9804996E-4 -0.0025680899 -0.00293657
v 6.171E-5 -0.00220972 -0.00115514
v 6.171E-5 -0.00220972 -0.00115514
v -0.0016553999 -4.5320997E-4 -0.0015603199
v -0.00122919 -3.3374E-4 -0.00205133
v -3.8267E-4 -0.00218046 -8.4687E-4
v -0.0016021699 0.0018223999 -0.0013230599
v -0.00130079 0.00180114 -0.00172104
v 1.0965E-4 0.0033696298 -5.2107E-4
v 5.7247997E-4 0.00328505 -8.7756E-4
v -0.0016553999 -4.5320997E-4 -0.0015603199
v -1.9107001E-4 0.00149885 4.7104998E-4
v -0.0016021699 0.0018223999 -0.0013230599
v -1.6202999E-4 -6.1747E-4 2.3096999E-4
v 0.00163833 0.00287979 0.0013785099
v 1.0965E-4 0.0033696298 -5.2107E-4
v -3.8267E-4 -0.00218046 -8.4687E-4
v 0.00109693 -0.00214456 9.8787E-4
v 0.00109693 -0.00214456 9.8787E-4
v -5.5481E-4 -7.1621E-4 7.8034995E-4
v -1.6202999E-4 -6.1747E-4 2.3096999E-4
v -4.5386E-4 0.0015297399 9.3946E-4
v -1.9107001E-4 0.00149885 4.7104998E-4
v 0.0012098199 0.0029353697 0.0017468799
v 0.00163833 0.00287979 0.0013785099
v 0.00109693 -0.00214456 9.8787E-4
v 6.7065E-4 -0.00212528 0.0013248201
v -5.5481E-4 -7.1621E-4 7.8034995E-4
v 0.00160218 0.00127616 0.0035400998
v -4.5386E-4 0.0015297399 9.3946E-4
v 0.0015666499 -0.0010372299 0.0031415098
v 0.00214051 0.0027624601 0.00250339
v 6.7065E-4 -0.00212528 0.0013248201
v 0.0016564999 -0.00245411 0.00218207
v 0.00214051 0.0027624601 0.00250339
v 0.0012098199 0.0029353697 0.0017468799
v 0.0020383 -0.00372074 0.00214277
v 0.00136235 -0.00340127 -0.0013927799
v 2.3017E-4 -0.0034977999 -5.3992E-4
v 0.0038585698 -0.0035655298 7.7156996E-4
v 6.171E-5 -0.00220972 -0.00115514
v -0.00118455 -0.0028472398 -0.00255293
v -5.3117E-4 -0.0026705898 -0.00122698
v 6.171E-5 -0.00220972 -0.00115514
v -5.9804996E-4 -0.0025680899 -0.00293657
v -0.00200816 0.00226685 -0.0033119898
v -7.7014E-4 0.00441774 -0.0019193699
v -0.00260613 0.00238971 -0.00286878
v -2.5595E-4 0.00410325 -0.00237301
v 0.00160218 0.00127616 0.0035400998
v 9.7237993E-4 -0.0011841999 0.00358235
v 0.00102431 0.00143334 0.00399885
v 0.0015666499 -0.0010372299 0.0031415098
v 0.00214051 0.0027624601 0.00250339
v 0.0016505399 0.00313838 0.0029366498
v 0.00110161 -0.00274957 0.0025990598
v 0.0016564999 -0.00245411 0.00218207
v 6.7065E-4 -0.00212528 0.0013248201
v 5.1435E-4 -0.00261905 9.2031E-4
v 7.5849995E-5 -0.00258346 0.00139806
v 6.7065E-4 -0.00212528 0.0013248201
v 0.00109693 -0.00214456 9.8787E-4
v -0.0021221 -4.1205E-4 -0.0034687298
v -0.00260613 0.00238971 -0.00286878
v -0.00274358 -5.4454E-4 -0.00306214
v -0.00200816 0.00226685 -0.0033119898
v 0.0020383 -0.00372074 0.00214277
v 2.1888998E-4 -0.00274676 -4.6992E-4
v 0.0020270199 -0.0029697001 0.00221277
v 2.3017E-4 -0.0034977999 -5.3992E-4
v 0.00109693 -0.00214456 9.8787E-4
v -0.0010019 -0.00260583 -7.7826E-4
v 5.1435E-4 -0.00261905 9.2031E-4
v -3.8267E-4 -0.00218046 -8.4687E-4
v -2.5595E-4 0.00410325 -0.00237301
v 5.69E-5 0.0038351698 -8.5226E-4
v -7.7014E-4 0.00441774 -0.0019193699
v -2.5595E-4 0.00410325 -0.00237301
v 5.7247997E-4 0.00328505 -8.7756E-4
v 0.00136235 -0.00340127 -0.0013927799
v 0.0038472898 -0.0028145 8.4156997E-4
v 0.00135106 -0.00265023 -0.0013227799
v 0.00136235 -0.00340127 -0.0013927799
v 0.0038585698 -0.0035655298 7.7156996E-4
v 0.0012098199 0.0029353697 0.0017468799
v 0.0016505399 0.00313838 0.0029366498
v 7.0841995E-4 0.00348771 0.0018591
v 0.00214051 0.0027624601 0.00250339
v 0.00163833 0.00287979 0.0013785099
v 7.0841995E-4 0.00348771 0.0018591
v 0.00114692 0.00345213 0.00138135
v 0.0012098199 0.0029353697 0.0017468799
v 2.3017E-4 -0.0034977999 -5.3992E-4
v 0.00135106 -0.00265023 -0.0013227799
v 2.1888998E-4 -0.00274676 -4.6992E-4
v 2.3017E-4 -0.0034977999 -5.3992E-4
v 0.00136235 -0.00340127 -0.0013927799
v 0.00135106 -0.00265023 -0.0013227799
v 1.0965E-4 0.0033696298 -5.2107E-4
v 0.00114692 0.00345213 0.00138135
v -4.1382998E-4 0.0038999398 -4.0355E-4
v 0.00163833 0.00287979 0.0013785099
v 0.0016564999 -0.00245411 0.00218207
v 7.5849995E-5 -0.00258346 0.00139806
v 0.00110161 -0.00274957 0.0025990598
v 0.0016564999 -0.00245411 0.00218207
v 6.7065E-4 -0.00212528 0.0013248201
v 5.7247997E-4 0.00328505 -8.7756E-4
v -4.1382998E-4 0.0038999398 -4.0355E-4
v 5.69E-5 0.0038351698 -8.5226E-4
v 1.0965E-4 0.0033696298 -5.2107E-4
v 0.0038585698 -0.0035655298 7.7156996E-4
v 0.0020270199 -0.0029697001 0.00221277
v 0.0038472898 -0.0028145 8.4156997E-4
v 0.0038585698 -0.0035655298 7.7156996E-4
v 0.0020383 -0.00372074 0.00214277
v 0.0020270199 -0.0029697001 0.00221277
v -3.8267E-4 -0.00218046 -8.4687E-4
v -5.3117E-4 -0.0026705898 -0.00122698
v -0.0010019 -0.00260583 -7.7826E-4
v 6.171E-5 -0.00220972 -0.00115514
v -5.9804996E-4 -0.0025680899 -0.00293657
v -0.00274358 -5.4454E-4 -0.00306214
v -0.00118455 -0.0028472398 -0.00255293
v -0.0021221 -4.1205E-4 -0.0034687298
vn -0.81409484 -0.23151726 0.5325874
vn -0.7926441 0.16288087 0.5875247
vn -0.7724702 0.22260667 0.59475714
vn -0.82380867 -0.17563882 0.5389716
vn -0.6816297 0.41687027 0.601332
vn -0.6816297 0.41687027 0.601332
vn -0.77744555 -0.37004504 0.50857157
vn -0.77744555 -0.37004504 0.50857157
vn -0.66285294 -0.2964969 -0.6875432
vn -0.53100914 -0.61454105 -0.58341116
vn -0.66739047 -0.27879143 -0.69055444
vn -0.53100914 -0.61454105 -0.58341116
vn -0.63626456 0.41667888 -0.6492657
vn -0.6102712 0.4831263 -0.62782
vn -0.4465555 0.7527842 -0.48363623
vn -0.4465555 0.7527842 -0.48363623
vn -0.7400024 0.23554826 0.6300107
vn -0.7837675 -0.14167085 0.60468
vn -0.7689066 0.13199654 0.6255873
vn -0.7706097 -0.2032273 0.60403585
vn -0.6601382 0.42706025 0.61792964
vn -0.6601382 0.42706025 0.61792964
vn -0.74048656 -0.30827412 0.5971991
vn -0.74048656 -0.30827412 0.5971991
vn -0.704557 -0.32267526 -0.6320443
vn -0.54223555 -0.6462147 -0.5370168
vn -0.70957476 -0.30696356 -0.634253
vn -0.54223555 -0.6462147 -0.5370168
vn -0.6760045 0.449337 -0.58404964
vn -0.66425383 0.47622404 -0.576175
vn -0.46092975 0.7769854 -0.42876264
vn -0.46092975 0.7769854 -0.42876264
vn -0.7660065 0.20835601 0.6081297
vn -0.7923033 -0.16724402 0.58675796
vn -0.77689546 0.16349109 0.60803294
vn -0.7877682 -0.1948057 0.584356
vn -0.649487 0.49832353 0.5743173
vn -0.649487 0.49832353 0.5743173
vn -0.73554426 -0.39165342 0.552795
vn -0.73554426 -0.39165342 0.552795
vn -0.0149544785 0.9955715 0.09280932
vn -0.0149544785 0.9955715 0.09280932
vn -0.0149544785 0.9955715 0.09280932
vn -0.0149544785 0.9955715 0.09280932
vn 0.85277647 0.24494968 -0.46127206
vn 0.8295426 -0.20255597 -0.5204135
vn 0.86277664 0.20112127 -0.4638607
vn 0.8134929 -0.2460164 -0.5269774
vn 0.6967472 -0.46974736 -0.54210776
vn 0.6967472 -0.46974736 -0.54210776
vn 0.8009672 0.40202484 -0.44365254
vn 0.8009672 0.40202484 -0.44365254
vn 0.8009672 0.40202484 -0.44365254
vn 0.493342 0.622438 0.6076057
vn 0.6786941 0.31013986 0.6657233
vn 0.6907155 0.28041238 0.666544
vn 0.493342 0.622438 0.6076057
vn 0.6422746 -0.45006528 0.62042296
vn 0.6422567 -0.45007408 0.6204351
vn 0.4033753 -0.756546 0.5147101
vn 0.4033753 -0.756546 0.5147101
vn 0.7714397 0.15131533 -0.61804897
vn 0.73120594 -0.23438631 -0.6406254
vn 0.75657606 -0.128975 -0.6410601
vn 0.7623425 0.21070552 -0.61191267
vn 0.6563449 -0.4330973 -0.6177687
vn 0.6563449 -0.4330973 -0.6177687
vn 0.7412786 0.30696115 -0.59689265
vn 0.7412786 0.30696115 -0.59689265
vn 0.5133643 0.67133194 0.53457516
vn 0.7346859 0.34297344 0.58532554
vn 0.7449101 0.31999275 0.58541733
vn 0.6919043 -0.48605126 0.53387505
vn 0.708864 -0.45601434 0.5381104
vn 0.4232445 -0.79640657 0.43197307
vn 0.4232445 -0.79640657 0.43197307
vn 0.5133643 0.67133194 0.53457516
vn 0.5133643 0.67133194 0.53457516
vn 0.75458187 0.17652181 -0.6320176
vn 0.7270285 -0.21165067 -0.65317196
vn 0.7418253 -0.14734572 -0.65420526
vn 0.74809057 0.21558876 -0.62760013
vn 0.60867417 -0.51153165 -0.6065073
vn 0.69603145 0.41045895 -0.5891211
vn 0.69603145 0.41045895 -0.5891211
vn 0.60867417 -0.51153165 -0.6065073
vn 0.60867417 -0.51153165 -0.6065073
vn 0.0149544785 -0.9955715 -0.09280932
vn 0.0149544785 -0.9955715 -0.09280932
vn 0.0149544785 -0.9955715 -0.09280932
vn 0.0149544785 -0.9955715 -0.09280932
vn 0.5165375 -0.8532864 -0.0713539
vn 0.5165375 -0.8532864 -0.0713539
vn 0.5165375 -0.8532864 -0.0713539
vn 0.5165375 -0.8532864 -0.0713539
vn 0.5165375 -0.8532864 -0.0713539
vn -0.31624323 0.6371254 -0.702895
vn -0.31624323 0.6371254 -0.702895
vn -0.31624323 0.6371254 -0.702895
vn -0.31624323 0.6371254 -0.702895
vn 0.65644616 0.038759902 0.75337654
vn 0.62775475 -0.26133814 0.73323
vn 0.653903 0.028260717 0.75605047
vn 0.62899685 -0.26878095 0.72946537
vn 0.68616486 0.20804991 0.6970603
vn 0.68616486 0.20804991 0.6970603
vn 0.64270604 -0.3844517 0.66266567
vn 0.64270604 -0.3844517 0.66266567
vn 0.5070429 -0.63656557 0.58111256
vn 0.5070429 -0.63656557 0.58111256
vn 0.5070429 -0.63656557 0.58111256
vn 0.5070429 -0.63656557 0.58111256
vn 0.5070429 -0.63656557 0.58111256
vn -0.5704724 0.076543175 -0.8177423
vn -0.5704724 0.076543175 -0.8177423
vn -0.5704724 0.076543175 -0.8177423
vn -0.5704724 0.076543175 -0.8177423
vn -0.82999676 -0.06409005 0.5540738
vn -0.82999676 -0.06409005 0.5540738
vn -0.82999676 -0.06409005 0.5540738
vn -0.82999676 -0.06409005 0.5540738
vn 0.5352266 -0.71535474 -0.44922164
vn 0.5352266 -0.71535474 -0.44922164
vn 0.5352266 -0.71535474 -0.44922164
vn 0.5352266 -0.71535474 -0.44922164
vn 0.643691 0.76528144 0.0024720957
vn 0.643691 0.76528144 0.0024720957
vn 0.643691 0.76528144 0.0024720957
vn 0.643691 0.76528144 0.0024720957
vn 0.643691 0.76528144 0.0024720957
vn 0.6560066 0.07980727 -0.750524
vn 0.6560066 0.07980727 -0.750524
vn 0.6560066 0.07980727 -0.750524
vn 0.6560066 0.07980727 -0.750524
vn 0.6560066 0.07980727 -0.750524
vn 0.5408039 0.77278197 -0.33217326
vn 0.5408039 0.77278197 -0.33217326
vn 0.5408039 0.77278197 -0.33217326
vn 0.5408039 0.77278197 -0.33217326
vn 0.6321792 0.49725285 0.594213
vn 0.6321792 0.49725285 0.594213
vn 0.6321792 0.49725285 0.594213
vn 0.6321792 0.49725285 0.594213
vn -0.6039405 0.06494443 -0.79437906
vn -0.6039405 0.06494443 -0.79437906
vn -0.6039405 0.06494443 -0.79437906
vn -0.6039405 0.06494443 -0.79437906
vn -0.6039405 0.06494443 -0.79437906
vn -0.6039405 0.06494443 -0.79437906
vn 0.6572319 0.6470996 -0.3864042
vn 0.6572319 0.6470996 -0.3864042
vn 0.6572319 0.6470996 -0.3864042
vn 0.6572319 0.6470996 -0.3864042
vn 0.31462207 -0.8060418 -0.50130785
vn 0.3145946 -0.8060495 -0.5013127
vn 0.31462207 -0.8060418 -0.50130785
vn 0.31462207 -0.8060418 -0.50130785
vn 0.31462207 -0.8060418 -0.50130785
vn 0.6087648 0.504542 0.61224395
vn 0.6087648 0.504542 0.61224395
vn 0.6087648 0.504542 0.61224395
vn 0.6087648 0.504542 0.61224395
vn 0.6039405 -0.06494443 0.79437906
vn 0.6039405 -0.06494443 0.79437906
vn 0.6039405 -0.06494443 0.79437906
vn 0.6039405 -0.06494443 0.79437906
vn 0.6039405 -0.06494443 0.79437906
vn 0.6039405 -0.06494443 0.79437906
vn 0.45704764 -0.62740284 0.6304547
vn 0.45704764 -0.62740284 0.6304547
vn 0.45704764 -0.62740284 0.6304547
vn 0.45704764 -0.62740284 0.6304547
vn -0.37663344 -0.449604 -0.8099404
vn -0.37663344 -0.449604 -0.8099404
vn -0.37663344 -0.449604 -0.8099404
vn -0.37663344 -0.449604 -0.8099404
vt 0.648505 0.528044
vt 0.816127 0.45539302
vt 0.816766 0.53736997
vt 0.650283 0.45539302
vt 0.974304 0.516473
vt 0.976651 0.594212
vt 0.501856 0.601611
vt 0.499072 0.520041
vt 0.655711 0.567132
vt 0.501856 0.601611
vt 0.648505 0.528044
vt 0.524345 0.629032
vt 0.80764 0.562167
vt 0.816766 0.53736997
vt 0.957655 0.622823
vt 0.976651 0.594212
vt 0.82492 0.715242
vt 0.655711 0.567132
vt 0.80764 0.562167
vt 0.639785 0.706964
vt 1.0 0.772295
vt 0.957655 0.622823
vt 0.524345 0.629032
vt 0.492393 0.782187
vt 0.648531 0.749672
vt 0.492393 0.782187
vt 0.639785 0.706964
vt 0.518913 0.814325
vt 0.81814 0.743271
vt 0.82492 0.715242
vt 0.979569 0.805211
vt 1.0 0.772295
vt 0.852807 0.994932
vt 0.648531 0.749672
vt 0.81814 0.743271
vt 0.640272 1.0
vt 0.99364 0.917023
vt 0.979569 0.805211
vt 0.518913 0.814325
vt 0.502359 0.941606
vt 0.082101 0.301342
vt 0.208892 0.38695902
vt 0.071254 0.372149
vt 0.215138 0.28674698
vt 0.203252 0.856869
vt 0.355518 0.927611
vt 0.211394 0.959427
vt 0.309991 0.823055
vt 0.451828 0.833625
vt 0.433484 0.764119
vt 0.077981 0.854112
vt 0.09798 0.91793597
vt 0.077981 0.854112
vt 0.077981 0.854112
vt 0.198612 0.828391
vt 0.203252 0.856869
vt 0.064132 0.825202
vt 0.29996 0.799176
vt 0.309991 0.823055
vt 0.435551 0.728932
vt 0.433484 0.764119
vt 0.198612 0.828391
vt 0.270853 0.674439
vt 0.29996 0.799176
vt 0.155358 0.712043
vt 0.369041 0.589656
vt 0.435551 0.728932
vt 0.064132 0.825202
vt 0.055842 0.688961
vt 0.055842 0.688961
vt 0.152958 0.681466
vt 0.155358 0.712043
vt 0.258385 0.647473
vt 0.270853 0.674439
vt 0.359373 0.558517
vt 0.369041 0.589656
vt 0.055842 0.688961
vt 0.050599 0.65989697
vt 0.152958 0.681466
vt 0.224532 0.47471702
vt 0.258385 0.647473
vt 0.097128 0.526488
vt 0.313338 0.490915
vt 0.050599 0.65989697
vt 0.043065 0.575701
vt 0.313338 0.490915
vt 0.359373 0.558517
vt 0.492393 0.244438
vt 0.596999 0.45539302
vt 0.504425 0.45539302
vt 0.641229 0.244438
vt 0.077981 0.854112
vt 0.07221 0.944142
vt 0.042543 0.86701703
vt 0.077981 0.854112
vt 0.09798 0.91793597
vt 0.355518 0.927611
vt 0.492393 0.847813
vt 0.375015 0.966418
vt 0.451828 0.833625
vt 0.224532 0.47471702
vt 0.076411 0.491737
vt 0.218737 0.43139303
vt 0.097128 0.526488
vt 0.313338 0.490915
vt 0.335889 0.458825
vt 0.007869 0.561965
vt 0.043065 0.575701
vt 0.050599 0.65989697
vt 0.023828 0.694647
vt 0.0 0.667266
vt 0.050599 0.65989697
vt 0.055842 0.688961
vt 0.211394 0.959427
vt 0.375015 0.966418
vt 0.209112 1.0
vt 0.355518 0.927611
vt 0.247995 0.43139303
vt 0.071254 0.372149
vt 0.208892 0.38695902
vt 0.010026 0.42650902
vt 0.055842 0.688961
vt 0.013661 0.842191
vt 0.023828 0.694647
vt 0.064132 0.825202
vt 0.451828 0.833625
vt 0.471109 0.758173
vt 0.492393 0.847813
vt 0.451828 0.833625
vt 0.433484 0.764119
vt 0.0 0.23952198
vt 0.215138 0.28674698
vt 0.082101 0.301342
vt 0.0 0.23952198
vt 0.283895 0.23952198
vt 0.359373 0.558517
vt 0.335889 0.458825
vt 0.411273 0.53738296
vt 0.313338 0.490915
vt 0.369041 0.589656
vt 0.411273 0.53738296
vt 0.402146 0.576869
vt 0.359373 0.558517
vt 0.010026 0.42650902
vt 0.082101 0.301342
vt 0.071254 0.372149
vt 0.010026 0.42650902
vt 0.0 0.23952198
vt 0.082101 0.301342
vt 0.435551 0.728932
vt 0.402146 0.576869
vt 0.492393 0.720895
vt 0.369041 0.589656
vt 0.043065 0.575701
vt 0.0 0.667266
vt 0.007869 0.561965
vt 0.043065 0.575701
vt 0.050599 0.65989697
vt 0.433484 0.764119
vt 0.492393 0.720895
vt 0.471109 0.758173
vt 0.435551 0.728932
vt 0.283895 0.23952198
vt 0.208892 0.38695902
vt 0.215138 0.28674698
vt 0.283895 0.23952198
vt 0.247995 0.43139303
vt 0.208892 0.38695902
vt 0.064132 0.825202
vt 0.042543 0.86701703
vt 0.013661 0.842191
vt 0.077981 0.854112
vt 0.09798 0.91793597
vt 0.209112 1.0
vt 0.07221 0.944142
vt 0.211394 0.959427

g def_forearm_arm_R_lv3
s 1
usemtl def_forearm_arm_R_lv3
f 3/3/3 2/2/2 1/1/1 
f 2/2/2 4/4/4 1/1/1 
f 2/2/2 3/3/3 5/5/5 
f 3/3/3 6/6/6 5/5/5 
f 1/1/1 4/4/4 7/7/7 
f 4/4/4 8/8/8 7/7/7 
f 11/11/11 10/10/10 9/9/9 
f 10/10/10 12/12/12 9/9/9 
f 9/9/9 13/13/13 11/11/11 
f 13/13/13 14/14/14 11/11/11 
f 14/14/14 13/13/13 15/15/15 
f 16/16/16 14/14/14 15/15/15 
f 19/19/19 18/18/18 17/17/17 
f 18/18/18 20/20/20 17/17/17 
f 19/19/19 17/17/17 21/21/21 
f 22/22/22 19/19/19 21/21/21 
f 18/18/18 23/23/23 20/20/20 
f 23/23/23 24/24/24 20/20/20 
f 27/27/27 26/26/26 25/25/25 
f 26/26/26 28/28/28 25/25/25 
f 27/27/27 25/25/25 29/29/29 
f 30/30/30 27/27/27 29/29/29 
f 30/30/30 29/29/29 31/31/31 
f 32/32/32 30/30/30 31/31/31 
f 35/35/35 34/34/34 33/33/33 
f 34/34/34 36/36/36 33/33/33 
f 35/35/35 33/33/33 37/37/37 
f 38/38/38 35/35/35 37/37/37 
f 34/34/34 39/39/39 36/36/36 
f 39/39/39 40/40/40 36/36/36 
f 43/43/43 42/42/42 41/41/41 
f 42/42/42 44/44/44 41/41/41 
f 47/47/47 46/46/46 45/45/45 
f 46/46/46 48/48/48 45/45/45 
f 46/46/46 49/49/49 48/48/48 
f 49/49/49 50/50/50 48/48/48 
f 45/45/45 51/51/51 47/47/47 
f 53/53/53 52/52/52 47/47/47 
f 56/56/56 55/55/55 54/54/54 
f 55/55/55 57/57/57 54/54/54 
f 58/58/58 55/55/55 56/56/56 
f 59/59/59 58/58/58 56/56/56 
f 60/60/60 58/58/58 59/59/59 
f 61/61/61 60/60/60 59/59/59 
f 64/64/64 63/63/63 62/62/62 
f 63/63/63 65/65/65 62/62/62 
f 66/66/66 63/63/63 64/64/64 
f 67/67/67 66/66/66 64/64/64 
f 62/62/62 65/65/65 68/68/68 
f 65/65/65 69/69/69 68/68/68 
f 72/72/72 71/71/71 70/70/70 
f 73/73/73 71/71/71 72/72/72 
f 74/74/74 73/73/73 72/72/72 
f 75/75/75 73/73/73 74/74/74 
f 76/76/76 75/75/75 74/74/74 
f 71/71/71 78/78/78 77/77/77 
f 81/81/81 80/80/80 79/79/79 
f 80/80/80 82/82/82 79/79/79 
f 83/83/83 80/80/80 81/81/81 
f 79/79/79 82/82/82 84/84/84 
f 82/82/82 85/85/85 84/84/84 
f 87/87/87 86/86/86 81/81/81 
f 90/90/90 89/89/89 88/88/88 
f 89/89/89 91/91/91 88/88/88 
f 94/94/94 93/93/93 92/92/92 
f 93/93/93 96/96/96 95/95/95 
f 99/99/99 98/98/98 97/97/97 
f 98/98/98 100/100/100 97/97/97 
f 103/103/103 102/102/102 101/101/101 
f 102/102/102 104/104/104 101/101/101 
f 103/103/103 101/101/101 105/105/105 
f 106/106/106 103/103/103 105/105/105 
f 102/102/102 107/107/107 104/104/104 
f 107/107/107 108/108/108 104/104/104 
f 111/111/111 110/110/110 109/109/109 
f 110/110/110 113/113/113 112/112/112 
f 116/116/116 115/115/115 114/114/114 
f 115/115/115 117/117/117 114/114/114 
f 120/120/120 119/119/119 118/118/118 
f 119/119/119 121/121/121 118/118/118 
f 124/124/124 123/123/123 122/122/122 
f 123/123/123 125/125/125 122/122/122 
f 128/128/128 127/127/127 126/126/126 
f 127/127/127 130/130/130 129/129/129 
f 133/133/133 132/132/132 131/131/131 
f 132/132/132 135/135/135 134/134/134 
f 138/138/138 137/137/137 136/136/136 
f 137/137/137 139/139/139 136/136/136 
f 142/142/142 141/141/141 140/140/140 
f 141/141/141 143/143/143 140/140/140 
f 146/146/146 145/145/145 144/144/144 
f 149/149/149 148/148/148 147/147/147 
f 152/152/152 151/151/151 150/150/150 
f 151/151/151 153/153/153 150/150/150 
f 156/156/156 155/155/155 154/154/154 
f 155/155/155 158/158/158 157/157/157 
f 161/161/161 160/160/160 159/159/159 
f 160/160/160 162/162/162 159/159/159 
f 165/165/165 164/164/164 163/163/163 
f 168/168/168 167/167/167 166/166/166 
f 171/171/171 170/170/170 169/169/169 
f 170/170/170 172/172/172 169/169/169 
f 175/175/175 174/174/174 173/173/173 
f 174/174/174 176/176/176 173/173/173 

