# Created by DisUnity v0.3.4
v 0.00171804 -4.9566996E-4 -0.0037420697
v -2.4887E-4 -0.0025642698 -0.00298978
v 4.3111E-4 -0.00282954 -0.00279915
v 0.0010009899 -3.7783E-4 -0.00394468
v 1.9867E-4 -0.0026626 -0.0013382
v 1.5967E-4 -0.00217452 -9.2951994E-4
v 7.8018E-4 -0.0025863098 -0.00104984
v -3.5562998E-4 -0.00221429 -0.00109154
v -0.0033763899 -0.00364479 0.00187414
v -0.00121191 -0.00300518 0.00270637
v -0.00122745 -0.0037565199 0.00264045
v -0.0033608498 -0.00289346 0.0019400599
v -0.00121191 -0.00300518 0.00270637
v 1.9126E-4 0.00390657 -4.9576E-4
v -8.7806E-4 0.00326916 -6.565E-4
v -3.9025E-4 0.00383028 -7.8411994E-4
v -3.3197997E-4 0.00336479 -4.5375997E-4
v 3.9932E-4 -0.00257992 0.00134876
v -8.7848E-4 -0.00248188 0.00256838
v -2.1838999E-4 -0.0027640301 0.00280023
v -1.9997E-4 -0.00213482 0.0014574999
v -8.7848E-4 -0.00248188 0.00256838
v -7.5708E-4 0.0034312701 0.00167152
v -3.3197997E-4 0.00336479 -4.5375997E-4
v 1.9126E-4 0.00390657 -4.9576E-4
v -0.00121466 0.00284853 0.00181329
v -0.0016266599 -0.00268285 -8.6898997E-4
v -3.0559E-4 -0.00350367 -4.5827E-4
v -2.9005E-4 -0.0027523402 -3.9236E-4
v -0.0016422 -0.00343418 -9.3489996E-4
v -3.0559E-4 -0.00350367 -4.5827E-4
v -1.9704999E-4 0.00347779 0.00199709
v -0.00121466 0.00284853 0.00181329
v -7.5708E-4 0.0034312701 0.00167152
v -6.9718E-4 0.00291448 0.00203749
v -0.00121466 0.00284853 0.00181329
v -2.1838999E-4 -0.0027640301 0.00280023
v -5.3730997E-4 -0.0010602799 0.00346215
v 1.6428999E-4 -0.00119305 0.0037055
v -8.7848E-4 -0.00248188 0.00256838
v -5.0202996E-4 0.00125311 0.0038607698
v 1.8275E-4 0.00142413 0.0041271
v -0.00135638 0.00272416 0.0030363
v -7.6778E-4 0.0031118898 0.0033051898
v -7.6778E-4 0.0031118898 0.0033051898
v -6.9718E-4 0.00291448 0.00203749
v -1.9704999E-4 0.00347779 0.00199709
v -0.00135638 0.00272416 0.0030363
v -0.0016422 -0.00343418 -9.3489996E-4
v -0.0033608498 -0.00289346 0.0019400599
v -0.0033763899 -0.00364479 0.00187414
v -0.0016422 -0.00343418 -9.3489996E-4
v -0.0016266599 -0.00268285 -8.6898997E-4
v -0.0033608498 -0.00289346 0.0019400599
v -3.9025E-4 0.00383028 -7.8411994E-4
v -5.5034E-4 0.00410003 -0.00232814
v 6.877E-5 0.0044269296 -0.00204722
v -8.7806E-4 0.00326916 -6.565E-4
v -5.5034E-4 0.00410003 -0.00232814
v 7.8018E-4 -0.0025863098 -0.00104984
v -7.0674997E-4 -0.00216432 0.00126274
v -1.6070998E-4 -0.0026264398 0.00102319
v 1.5967E-4 -0.00217452 -9.2951994E-4
v -2.9005E-4 -0.0027523402 -3.9236E-4
v -0.00122745 -0.0037565199 0.00264045
v -0.00121191 -0.00300518 0.00270637
v -2.9005E-4 -0.0027523402 -3.9236E-4
v -3.0559E-4 -0.00350367 -4.5827E-4
v -0.00122745 -0.0037565199 0.00264045
v 0.0015816399 0.00243559 -0.0035069701
v 0.0010009899 -3.7783E-4 -0.00394468
v 0.00171804 -4.9566996E-4 -0.0037420697
v 8.8157994E-4 0.00229851 -0.00375238
v -1.6070998E-4 -0.0026264398 0.00102319
v -1.9997E-4 -0.00213482 0.0014574999
v 3.9932E-4 -0.00257992 0.00134876
v -7.0674997E-4 -0.00216432 0.00126274
v -1.9997E-4 -0.00213482 0.0014574999
v 6.877E-5 0.0044269296 -0.00204722
v 8.8157994E-4 0.00229851 -0.00375238
v 0.0015816399 0.00243559 -0.0035069701
v -5.5034E-4 0.00410003 -0.00232814
v 4.3111E-4 -0.00282954 -0.00279915
v -3.5562998E-4 -0.00221429 -0.00109154
v 1.9867E-4 -0.0026626 -0.0013382
v -2.4887E-4 -0.0025642698 -0.00298978
v -0.00122745 -0.0037565199 0.00264045
v -0.0016422 -0.00343418 -9.3489996E-4
v -0.0033763899 -0.00364479 0.00187414
v -3.0559E-4 -0.00350367 -4.5827E-4
v -5.3730997E-4 -0.0010602799 0.00346215
v -1.9997E-4 -0.00213482 0.0014574999
v 7.7725E-4 -7.0161E-4 5.7735E-4
v -8.7848E-4 -0.00248188 0.00256838
v -5.0202996E-4 0.00125311 0.0038607698
v 6.8020995E-4 0.00154216 7.6663E-4
v -0.00135638 0.00272416 0.0030363
v -6.9718E-4 0.00291448 0.00203749
v 6.8020995E-4 0.00154216 7.6663E-4
v 2.3665E-4 -6.131E-4 1.7022E-4
v 2.9055998E-4 0.00150412 3.9765E-4
v 7.7725E-4 -7.0161E-4 5.7735E-4
v -6.9718E-4 0.00291448 0.00203749
v -7.0674997E-4 -0.00216432 0.00126274
v -1.9997E-4 -0.00213482 0.0014574999
v 2.9055998E-4 0.00150412 3.9765E-4
v -0.00121466 0.00284853 0.00181329
v 2.3665E-4 -6.131E-4 1.7022E-4
v 1.5967E-4 -0.00217452 -9.2951994E-4
v 0.0011248599 -4.2275E-4 -0.00198402
v -7.0674997E-4 -0.00216432 0.00126274
v 2.9055998E-4 0.00150412 3.9765E-4
v 0.00109601 0.00185195 -0.00173425
v -0.00121466 0.00284853 0.00181329
v -3.3197997E-4 0.00336479 -4.5375997E-4
v 0.00109601 0.00185195 -0.00173425
v 5.693E-4 -3.1403E-4 -0.0023254098
v 6.9029E-4 0.0018229499 -0.00202447
v 0.0011248599 -4.2275E-4 -0.00198402
v -3.3197997E-4 0.00336479 -4.5375997E-4
v -8.7806E-4 0.00326916 -6.565E-4
v -3.5562998E-4 -0.00221429 -0.00109154
v 1.5967E-4 -0.00217452 -9.2951994E-4
v -3.5562998E-4 -0.00221429 -0.00109154
v 0.0010009899 -3.7783E-4 -0.00394468
v 5.693E-4 -3.1403E-4 -0.0023254098
v -2.4887E-4 -0.0025642698 -0.00298978
v 8.8157994E-4 0.00229851 -0.00375238
v 6.9029E-4 0.0018229499 -0.00202447
v -5.5034E-4 0.00410003 -0.00232814
v -8.7806E-4 0.00326916 -6.565E-4
v -0.00121191 -0.00300518 0.00270637
v -0.0016266599 -0.00268285 -8.6898997E-4
v -2.9005E-4 -0.0027523402 -3.9236E-4
v -0.0033608498 -0.00289346 0.0019400599
v 3.9932E-4 -0.00257992 0.00134876
v 1.6428999E-4 -0.00119305 0.0037055
v 0.0014438599 -9.2595E-4 3.0456999E-4
v -2.1838999E-4 -0.0027640301 0.00280023
v 1.8275E-4 0.00142413 0.0041271
v 0.00132361 0.0018594199 5.3323E-4
v -7.6778E-4 0.0031118898 0.0033051898
v -1.9704999E-4 0.00347779 0.00199709
v 9.3777E-4 -8.3704997E-4 4.7999997E-6
v 0.00132361 0.0018594199 5.3323E-4
v 9.4897E-4 0.0018491199 2.69E-4
v 0.0014438599 -9.2595E-4 3.0456999E-4
v -1.9704999E-4 0.00347779 0.00199709
v -7.5708E-4 0.0034312701 0.00167152
v -1.6070998E-4 -0.0026264398 0.00102319
v 3.9932E-4 -0.00257992 0.00134876
v 7.8018E-4 -0.0025863098 -0.00104984
v 9.3777E-4 -8.3704997E-4 4.7999997E-6
v 0.0017837 -6.3176E-4 -0.00228624
v -1.6070998E-4 -0.0026264398 0.00102319
v 9.4897E-4 0.0018491199 2.69E-4
v 0.00174233 0.00214856 -0.0019860098
v -7.5708E-4 0.0034312701 0.00167152
v 1.9126E-4 0.00390657 -4.9576E-4
v 0.00125398 -5.3961E-4 -0.0025477
v 0.00174233 0.00214856 -0.0019860098
v 0.00133238 0.00217313 -0.0022093898
v 0.0017837 -6.3176E-4 -0.00228624
v 1.9126E-4 0.00390657 -4.9576E-4
v -3.9025E-4 0.00383028 -7.8411994E-4
v 1.9867E-4 -0.0026626 -0.0013382
v 7.8018E-4 -0.0025863098 -0.00104984
v 0.00171804 -4.9566996E-4 -0.0037420697
v 1.9867E-4 -0.0026626 -0.0013382
v 0.00125398 -5.3961E-4 -0.0025477
v 4.3111E-4 -0.00282954 -0.00279915
v 0.0015816399 0.00243559 -0.0035069701
v 0.00133238 0.00217313 -0.0022093898
v 6.877E-5 0.0044269296 -0.00204722
v -3.9025E-4 0.00383028 -7.8411994E-4
vn 0.12784554 -0.44405642 -0.8868311
vn 0.12784554 -0.44405642 -0.8868311
vn 0.12784554 -0.44405642 -0.8868311
vn 0.12784554 -0.44405642 -0.8868311
vn -0.23497024 -0.63499033 0.73591864
vn -0.23497024 -0.63499033 0.73591864
vn -0.23497024 -0.63499033 0.73591864
vn -0.23497024 -0.63499033 0.73591864
vn -0.33839986 -0.07529153 0.9379854
vn -0.33839986 -0.07529153 0.9379854
vn -0.33839986 -0.07529153 0.9379854
vn -0.33839986 -0.07529153 0.9379854
vn -0.33839986 -0.07529153 0.9379854
vn -0.40945092 0.49337983 0.7674153
vn -0.40945092 0.49337983 0.7674153
vn -0.40945092 0.49337983 0.7674153
vn -0.40945092 0.49337983 0.7674153
vn -0.4323091 -0.8142305 -0.38747594
vn -0.4323091 -0.8142305 -0.38747594
vn -0.4323091 -0.8142305 -0.38747594
vn -0.4323091 -0.8142305 -0.38747594
vn -0.4323091 -0.8142305 -0.38747594
vn -0.7561778 0.63162833 -0.17099988
vn -0.7561778 0.63162833 -0.17099988
vn -0.7561778 0.63162833 -0.17099988
vn -0.7561778 0.63162833 -0.17099988
vn 0.33839986 0.07529153 -0.9379854
vn 0.33839986 0.07529153 -0.9379854
vn 0.33839986 0.07529153 -0.9379854
vn 0.33839986 0.07529153 -0.9379854
vn 0.33839986 0.07529153 -0.9379854
vn -0.43700665 0.48553246 0.75715476
vn -0.43700665 0.48553246 0.75715476
vn -0.43700665 0.48553246 0.75715476
vn -0.43700665 0.48553246 0.75715476
vn -0.43700665 0.48553246 0.75715476
vn -0.40776196 -0.39598164 0.8227568
vn -0.37727574 -0.27979806 0.88282275
vn -0.37514186 -0.27232274 0.8860637
vn -0.40776196 -0.39598164 0.8227568
vn -0.40293673 0.02716153 0.91482466
vn -0.3994704 0.016724713 0.91659355
vn -0.45168585 0.19559827 0.87047184
vn -0.45168585 0.19559827 0.87047184
vn -0.6316077 0.7599436 -0.15348418
vn -0.6316077 0.7599436 -0.15348418
vn -0.6316077 0.7599436 -0.15348418
vn -0.6316077 0.7599436 -0.15348418
vn -0.8513256 0.06329626 -0.52080554
vn -0.8513256 0.06329626 -0.52080554
vn -0.8513256 0.06329626 -0.52080554
vn -0.8513256 0.06329626 -0.52080554
vn -0.8513256 0.06329626 -0.52080554
vn -0.8513256 0.06329626 -0.52080554
vn -0.62997824 0.75132275 0.19657446
vn -0.62997824 0.75132275 0.19657446
vn -0.62997824 0.75132275 0.19657446
vn -0.62997824 0.75132275 0.19657446
vn -0.62997824 0.75132275 0.19657446
vn -0.6292891 -0.72811246 -0.27174887
vn -0.6292891 -0.72811246 -0.27174887
vn -0.6292891 -0.72811246 -0.27174887
vn -0.6292891 -0.72811246 -0.27174887
vn 0.95852554 -0.044497404 0.28151172
vn 0.95852554 -0.044497404 0.28151172
vn 0.95852554 -0.044497404 0.28151172
vn 0.95852554 -0.044497404 0.28151172
vn 0.95852554 -0.044497404 0.28151172
vn 0.95852554 -0.044497404 0.28151172
vn 0.2992442 0.08606513 -0.9502872
vn 0.2992442 0.08606513 -0.9502872
vn 0.2992442 0.08606513 -0.9502872
vn 0.2992442 0.08606513 -0.9502872
vn -0.29719877 -0.6453651 0.70368785
vn -0.29719877 -0.6453651 0.70368785
vn -0.29719877 -0.6453651 0.70368785
vn -0.29719877 -0.6453651 0.70368785
vn -0.29719877 -0.6453651 0.70368785
vn 0.07883108 0.6414524 -0.7631019
vn 0.07883108 0.6414524 -0.7631019
vn 0.07883108 0.6414524 -0.7631019
vn 0.07883108 0.6414524 -0.7631019
vn -0.49593484 -0.86439157 0.08292031
vn -0.49593484 -0.86439157 0.08292031
vn -0.49593484 -0.86439157 0.08292031
vn -0.49593484 -0.86439157 0.08292031
vn -0.020600434 -0.9959623 -0.08737636
vn -0.020600434 -0.9959623 -0.08737636
vn -0.020600434 -0.9959623 -0.08737636
vn -0.020600434 -0.9959623 -0.08737636
vn -0.9054974 0.19748814 -0.3755968
vn -0.84853 0.39354727 -0.3537195
vn -0.9121696 0.15827459 -0.37801564
vn -0.84853 0.39354727 -0.3537195
vn -0.88386935 -0.22929147 -0.40767673
vn -0.899676 -0.1653226 -0.4040439
vn -0.7505954 -0.5264301 -0.39934704
vn -0.7505954 -0.5264301 -0.39934704
vn -0.49090546 -0.4989931 0.7141553
vn -0.5434263 0.3058642 0.7817513
vn -0.50649196 -0.46931997 0.7233289
vn -0.5341572 0.32906428 0.7787123
vn -0.25822237 -0.803874 0.5358244
vn -0.34507993 0.66192967 0.6654088
vn -0.34507993 0.66192967 0.6654088
vn -0.50649196 -0.46931997 0.7233289
vn -0.25822237 -0.803874 0.5358244
vn -0.91433257 0.19233365 -0.35637575
vn -0.8918072 0.28907967 -0.3480126
vn -0.92356855 0.1327275 -0.35972846
vn -0.8918072 0.28907967 -0.3480126
vn -0.88363594 -0.25206196 -0.3945278
vn -0.9102322 -0.14722416 -0.3870432
vn -0.8011283 -0.44905913 -0.39565057
vn -0.8011283 -0.44905913 -0.39565057
vn -0.41854733 -0.4616717 0.78209805
vn -0.4666654 0.2677428 0.8429337
vn -0.41854146 -0.46169573 0.7820871
vn -0.45608184 0.2976862 0.83867294
vn -0.21546477 -0.7633129 0.60903895
vn -0.21546477 -0.7633129 0.60903895
vn -0.3031753 0.6137057 0.7290063
vn -0.3031753 0.6137057 0.7290063
vn -0.9051746 0.38332355 -0.18363519
vn -0.9658766 0.18110187 -0.18516092
vn -0.9565012 0.22510935 -0.18555653
vn -0.9051746 0.38332355 -0.18363519
vn -0.94236076 -0.22196352 -0.25037655
vn -0.9280751 -0.26508582 -0.26154566
vn -0.8163625 -0.48632604 -0.31151116
vn -0.8163625 -0.48632604 -0.31151116
vn 0.020600434 0.9959623 0.08737636
vn 0.020600434 0.9959623 0.08737636
vn 0.020600434 0.9959623 0.08737636
vn 0.020600434 0.9959623 0.08737636
vn 0.8750207 -0.3740148 0.30732998
vn 0.9300334 -0.17600256 0.32258493
vn 0.9344937 -0.14835317 0.32359365
vn 0.8750207 -0.3740148 0.30732998
vn 0.9077274 0.22669533 0.35304412
vn 0.9190401 0.18207453 0.3495917
vn 0.78024983 0.5139712 0.3564319
vn 0.78024983 0.5139712 0.3564319
vn 0.49486017 -0.29377267 -0.8178087
vn 0.46157503 0.46178865 -0.7574298
vn 0.45213884 0.4884565 -0.74631137
vn 0.49105766 -0.3095891 -0.81425846
vn 0.2955776 0.7852567 -0.5440642
vn 0.2955776 0.7852567 -0.5440642
vn 0.37136367 -0.6362136 -0.6762554
vn 0.37136367 -0.6362136 -0.6762554
vn 0.8911677 -0.290423 0.34853205
vn 0.9197169 -0.18470024 0.34641975
vn 0.9311357 -0.12290014 0.34333912
vn 0.8911677 -0.290423 0.34853205
vn 0.8888399 0.25337005 0.38179466
vn 0.9173206 0.150491 0.36861292
vn 0.8049238 0.443114 0.39464888
vn 0.8049238 0.443114 0.39464888
vn 0.43722057 -0.2666783 -0.8589068
vn 0.40493092 0.4280951 -0.8079391
vn 0.3850948 0.4940493 -0.77949804
vn 0.4341688 -0.2845017 -0.8547259
vn 0.26600522 0.76059914 -0.5922248
vn 0.26600522 0.76059914 -0.5922248
vn 0.34618413 -0.6049295 -0.7170892
vn 0.34618413 -0.6049295 -0.7170892
vn 0.9505129 -0.15619601 0.26856682
vn 0.90138316 -0.35164168 0.2526986
vn 0.94053805 -0.21229094 0.2651806
vn 0.90138316 -0.35164168 0.2526986
vn 0.92798764 0.18170942 0.32530075
vn 0.90961766 0.24100825 0.3383942
vn 0.8206923 0.4333424 0.37239552
vn 0.8206923 0.4333424 0.37239552
vt 0.242929 1.0
vt 0.370795 0.945025
vt 0.390055 0.976651
vt 0.250011 0.959676
vt 0.436872 0.907809
vt 0.425298 0.861831
vt 0.470906 0.89009
vt 0.405073 0.887009
vt 0.717959 0.246036
vt 0.581944 0.315229
vt 0.540953 0.27915502
vt 0.674393 0.309466
vt 0.581944 0.315229
vt 0.029152 0.661142
vt 0.077011 0.71707404
vt 0.041468 0.702599
vt 0.083064 0.682082
vt 0.524486 0.72163403
vt 0.503273 0.621921
vt 0.540953 0.616531
vt 0.476543 0.702783
vt 0.503273 0.621921
vt 0.150762 0.540589
vt 0.083064 0.682082
vt 0.029152 0.661142
vt 0.180299 0.560736
vt 0.660929 0.43219697
vt 0.545459 0.49868703
vt 0.595607 0.442204
vt 0.717959 0.507937
vt 0.545459 0.49868703
vt 0.150878 0.499758
vt 0.180299 0.560736
vt 0.150762 0.540589
vt 0.196936 0.53241
vt 0.180299 0.560736
vt 0.540953 0.616531
vt 0.461543 0.56122696
vt 0.489847 0.531896
vt 0.503273 0.621921
vt 0.348457 0.481179
vt 0.364093 0.44001102
vt 0.257622 0.47667003
vt 0.242872 0.44001102
vt 0.242872 0.44001102
vt 0.196936 0.53241
vt 0.150878 0.499758
vt 0.257622 0.47667003
vt 0.717959 0.507937
vt 0.674393 0.309466
vt 0.717959 0.246036
vt 0.717959 0.507937
vt 0.660929 0.43219697
vt 0.674393 0.309466
vt 0.041468 0.702599
vt 0.043051 0.781043
vt 0.0 0.785643
vt 0.077011 0.71707404
vt 0.043051 0.781043
vt 0.470906 0.89009
vt 0.464724 0.730089
vt 0.494822 0.74302
vt 0.425298 0.861831
vt 0.595607 0.442204
vt 0.540953 0.27915502
vt 0.581944 0.315229
vt 0.595607 0.442204
vt 0.545459 0.49868703
vt 0.540953 0.27915502
vt 0.0879 0.928951
vt 0.250011 0.959676
vt 0.242929 1.0
vt 0.115938 0.895361
vt 0.494822 0.74302
vt 0.476543 0.702783
vt 0.524486 0.72163403
vt 0.464724 0.730089
vt 0.476543 0.702783
vt 0.0 0.785643
vt 0.115938 0.895361
vt 0.0879 0.928951
vt 0.043051 0.781043
vt 0.390055 0.976651
vt 0.405073 0.887009
vt 0.436872 0.907809
vt 0.370795 0.945025
vt 0.540953 0.23256898
vt 0.438088 0.44001102
vt 0.394594 0.23256898
vt 0.52912 0.44001102
vt 0.461543 0.56122696
vt 0.476543 0.702783
vt 0.371179 0.70043004
vt 0.503273 0.621921
vt 0.348457 0.481179
vt 0.275567 0.64286804
vt 0.257622 0.47667003
vt 0.196936 0.53241
vt 0.275567 0.64286804
vt 0.361801 0.729873
vt 0.257143 0.666457
vt 0.371179 0.70043004
vt 0.196936 0.53241
vt 0.464724 0.730089
vt 0.476543 0.702783
vt 0.257143 0.666457
vt 0.180299 0.560736
vt 0.361801 0.729873
vt 0.425298 0.861831
vt 0.292646 0.83406997
vt 0.464724 0.730089
vt 0.257143 0.666457
vt 0.199939 0.782133
vt 0.180299 0.560736
vt 0.083064 0.682082
vt 0.199939 0.782133
vt 0.281554 0.860941
vt 0.184615 0.803253
vt 0.292646 0.83406997
vt 0.083064 0.682082
vt 0.077011 0.71707404
vt 0.405073 0.887009
vt 0.425298 0.861831
vt 0.405073 0.887009
vt 0.250011 0.959676
vt 0.281554 0.860941
vt 0.370795 0.945025
vt 0.115938 0.895361
vt 0.184615 0.803253
vt 0.043051 0.781043
vt 0.077011 0.71707404
vt 0.581944 0.315229
vt 0.660929 0.43219697
vt 0.595607 0.442204
vt 0.674393 0.309466
vt 0.564232 0.678388
vt 0.669928 0.507937
vt 0.682789 0.734035
vt 0.546525 0.563693
vt 0.862152 0.507937
vt 0.83624 0.736165
vt 0.991132 0.575325
vt 0.980823 0.676697
vt 0.675805 0.772828
vt 0.83624 0.736165
vt 0.842973 0.761355
vt 0.682789 0.734035
vt 0.980823 0.676697
vt 1.0 0.70600903
vt 0.540953 0.708009
vt 0.564232 0.678388
vt 0.573136 0.84575903
vt 0.675805 0.772828
vt 0.693215 0.89888
vt 0.540953 0.708009
vt 0.842973 0.761355
vt 0.830652 0.90009403
vt 1.0 0.70600903
vt 0.964946 0.842032
vt 0.687543 0.934368
vt 0.830652 0.90009403
vt 0.839436 0.922311
vt 0.693215 0.89888
vt 0.964946 0.842032
vt 0.982733 0.867485
vt 0.553399 0.871031
vt 0.573136 0.84575903
vt 0.690717 1.0
vt 0.553399 0.871031
vt 0.687543 0.934368
vt 0.552641 0.944824
vt 0.840625 0.996425
vt 0.839436 0.922311
vt 0.982286 0.937805
vt 0.982733 0.867485

g def_forearm_arm_L_lv2
s 1
usemtl def_forearm_arm_L_lv2
f 3/3/3 2/2/2 1/1/1 
f 2/2/2 4/4/4 1/1/1 
f 7/7/7 6/6/6 5/5/5 
f 6/6/6 8/8/8 5/5/5 
f 11/11/11 10/10/10 9/9/9 
f 13/13/13 12/12/12 9/9/9 
f 16/16/16 15/15/15 14/14/14 
f 15/15/15 17/17/17 14/14/14 
f 20/20/20 19/19/19 18/18/18 
f 22/22/22 21/21/21 18/18/18 
f 25/25/25 24/24/24 23/23/23 
f 24/24/24 26/26/26 23/23/23 
f 29/29/29 28/28/28 27/27/27 
f 31/31/31 30/30/30 27/27/27 
f 34/34/34 33/33/33 32/32/32 
f 36/36/36 35/35/35 32/32/32 
f 39/39/39 38/38/38 37/37/37 
f 38/38/38 40/40/40 37/37/37 
f 41/41/41 38/38/38 39/39/39 
f 42/42/42 41/41/41 39/39/39 
f 43/43/43 41/41/41 42/42/42 
f 44/44/44 43/43/43 42/42/42 
f 47/47/47 46/46/46 45/45/45 
f 46/46/46 48/48/48 45/45/45 
f 51/51/51 50/50/50 49/49/49 
f 54/54/54 53/53/53 52/52/52 
f 57/57/57 56/56/56 55/55/55 
f 59/59/59 58/58/58 55/55/55 
f 62/62/62 61/61/61 60/60/60 
f 61/61/61 63/63/63 60/60/60 
f 66/66/66 65/65/65 64/64/64 
f 69/69/69 68/68/68 67/67/67 
f 72/72/72 71/71/71 70/70/70 
f 71/71/71 73/73/73 70/70/70 
f 76/76/76 75/75/75 74/74/74 
f 78/78/78 77/77/77 74/74/74 
f 81/81/81 80/80/80 79/79/79 
f 80/80/80 82/82/82 79/79/79 
f 85/85/85 84/84/84 83/83/83 
f 84/84/84 86/86/86 83/83/83 
f 89/89/89 88/88/88 87/87/87 
f 88/88/88 90/90/90 87/87/87 
f 93/93/93 92/92/92 91/91/91 
f 92/92/92 94/94/94 91/91/91 
f 93/93/93 91/91/91 95/95/95 
f 96/96/96 93/93/93 95/95/95 
f 96/96/96 95/95/95 97/97/97 
f 98/98/98 96/96/96 97/97/97 
f 101/101/101 100/100/100 99/99/99 
f 100/100/100 102/102/102 99/99/99 
f 101/101/101 99/99/99 103/103/103 
f 100/100/100 104/104/104 102/102/102 
f 104/104/104 105/105/105 102/102/102 
f 107/107/107 106/106/106 103/103/103 
f 110/110/110 109/109/109 108/108/108 
f 109/109/109 111/111/111 108/108/108 
f 110/110/110 108/108/108 112/112/112 
f 113/113/113 110/110/110 112/112/112 
f 113/113/113 112/112/112 114/114/114 
f 115/115/115 113/113/113 114/114/114 
f 118/118/118 117/117/117 116/116/116 
f 117/117/117 119/119/119 116/116/116 
f 118/118/118 116/116/116 120/120/120 
f 121/121/121 118/118/118 120/120/120 
f 117/117/117 122/122/122 119/119/119 
f 122/122/122 123/123/123 119/119/119 
f 126/126/126 125/125/125 124/124/124 
f 125/125/125 127/127/127 124/124/124 
f 125/125/125 126/126/126 128/128/128 
f 126/126/126 129/129/129 128/128/128 
f 128/128/128 129/129/129 130/130/130 
f 129/129/129 131/131/131 130/130/130 
f 134/134/134 133/133/133 132/132/132 
f 133/133/133 135/135/135 132/132/132 
f 138/138/138 137/137/137 136/136/136 
f 137/137/137 139/139/139 136/136/136 
f 140/140/140 137/137/137 138/138/138 
f 141/141/141 140/140/140 138/138/138 
f 142/142/142 140/140/140 141/141/141 
f 143/143/143 142/142/142 141/141/141 
f 146/146/146 145/145/145 144/144/144 
f 145/145/145 147/147/147 144/144/144 
f 148/148/148 145/145/145 146/146/146 
f 149/149/149 148/148/148 146/146/146 
f 144/144/144 147/147/147 150/150/150 
f 147/147/147 151/151/151 150/150/150 
f 154/154/154 153/153/153 152/152/152 
f 153/153/153 155/155/155 152/152/152 
f 156/156/156 153/153/153 154/154/154 
f 157/157/157 156/156/156 154/154/154 
f 158/158/158 156/156/156 157/157/157 
f 159/159/159 158/158/158 157/157/157 
f 162/162/162 161/161/161 160/160/160 
f 161/161/161 163/163/163 160/160/160 
f 164/164/164 161/161/161 162/162/162 
f 165/165/165 164/164/164 162/162/162 
f 160/160/160 163/163/163 166/166/166 
f 163/163/163 167/167/167 166/166/166 
f 170/170/170 169/169/169 168/168/168 
f 169/169/169 171/171/171 168/168/168 
f 168/168/168 172/172/172 170/170/170 
f 172/172/172 173/173/173 170/170/170 
f 172/172/172 174/174/174 173/173/173 
f 174/174/174 175/175/175 173/173/173 

