# Created by DisUnity v0.3.4
v 0.00171804 -4.9566996E-4 -0.0037420697
v -2.4887E-4 -0.0025642698 -0.00298978
v 4.3111E-4 -0.00282954 -0.00279915
v 0.0010009899 -3.7783E-4 -0.00394468
v 1.9867E-4 -0.0026626 -0.0013382
v 1.5967E-4 -0.00217452 -9.2951994E-4
v 7.8018E-4 -0.0025863098 -0.00104984
v -3.5562998E-4 -0.00221429 -0.00109154
v 1.9126E-4 0.00390657 -4.9576E-4
v -8.7806E-4 0.00326916 -6.565E-4
v -3.9025E-4 0.00383028 -7.8411994E-4
v -3.3197997E-4 0.00336479 -4.5375997E-4
v -8.7848E-4 -0.00248188 0.00256838
v 3.9932E-4 -0.00257992 0.00134876
v -1.9997E-4 -0.00213482 0.0014574999
v -8.7848E-4 -0.00248188 0.00256838
v -2.1838999E-4 -0.0027640301 0.00280023
v -7.5708E-4 0.0034312701 0.00167152
v -3.3197997E-4 0.00336479 -4.5375997E-4
v 1.9126E-4 0.00390657 -4.9576E-4
v -0.00121466 0.00284853 0.00181329
v -1.9704999E-4 0.00347779 0.00199709
v -0.00121466 0.00284853 0.00181329
v -7.5708E-4 0.0034312701 0.00167152
v -6.9718E-4 0.00291448 0.00203749
v -0.00121466 0.00284853 0.00181329
v -5.3730997E-4 -0.0010602799 0.00346215
v -2.1838999E-4 -0.0027640301 0.00280023
v -8.7848E-4 -0.00248188 0.00256838
v 1.6428999E-4 -0.00119305 0.0037055
v -5.0202996E-4 0.00125311 0.0038607698
v 1.8275E-4 0.00142413 0.0041271
v -0.00135638 0.00272416 0.0030363
v -7.6778E-4 0.0031118898 0.0033051898
v -7.6778E-4 0.0031118898 0.0033051898
v -6.9718E-4 0.00291448 0.00203749
v -1.9704999E-4 0.00347779 0.00199709
v -0.00135638 0.00272416 0.0030363
v -3.9025E-4 0.00383028 -7.8411994E-4
v -5.5034E-4 0.00410003 -0.00232814
v 6.877E-5 0.0044269296 -0.00204722
v -8.7806E-4 0.00326916 -6.565E-4
v -5.5034E-4 0.00410003 -0.00232814
v 7.8018E-4 -0.0025863098 -0.00104984
v -7.0674997E-4 -0.00216432 0.00126274
v -1.6070998E-4 -0.0026264398 0.00102319
v 1.5967E-4 -0.00217452 -9.2951994E-4
v 0.0015816399 0.00243559 -0.0035069701
v 0.0010009899 -3.7783E-4 -0.00394468
v 0.00171804 -4.9566996E-4 -0.0037420697
v 8.8157994E-4 0.00229851 -0.00375238
v -1.6070998E-4 -0.0026264398 0.00102319
v -1.9997E-4 -0.00213482 0.0014574999
v 3.9932E-4 -0.00257992 0.00134876
v -7.0674997E-4 -0.00216432 0.00126274
v -1.9997E-4 -0.00213482 0.0014574999
v 6.877E-5 0.0044269296 -0.00204722
v 8.8157994E-4 0.00229851 -0.00375238
v 0.0015816399 0.00243559 -0.0035069701
v -5.5034E-4 0.00410003 -0.00232814
v 4.3111E-4 -0.00282954 -0.00279915
v -3.5562998E-4 -0.00221429 -0.00109154
v 1.9867E-4 -0.0026626 -0.0013382
v -2.4887E-4 -0.0025642698 -0.00298978
v -1.9997E-4 -0.00213482 0.0014574999
v -5.3730997E-4 -0.0010602799 0.00346215
v -8.7848E-4 -0.00248188 0.00256838
v 7.7725E-4 -7.0161E-4 5.7735E-4
v -5.0202996E-4 0.00125311 0.0038607698
v 6.8020995E-4 0.00154216 7.6663E-4
v -0.00135638 0.00272416 0.0030363
v -6.9718E-4 0.00291448 0.00203749
v 6.8020995E-4 0.00154216 7.6663E-4
v 2.3665E-4 -6.131E-4 1.7022E-4
v 2.9055998E-4 0.00150412 3.9765E-4
v 7.7725E-4 -7.0161E-4 5.7735E-4
v -6.9718E-4 0.00291448 0.00203749
v -7.0674997E-4 -0.00216432 0.00126274
v -1.9997E-4 -0.00213482 0.0014574999
v 2.9055998E-4 0.00150412 3.9765E-4
v -0.00121466 0.00284853 0.00181329
v 2.3665E-4 -6.131E-4 1.7022E-4
v 1.5967E-4 -0.00217452 -9.2951994E-4
v 0.0011248599 -4.2275E-4 -0.00198402
v -7.0674997E-4 -0.00216432 0.00126274
v 2.9055998E-4 0.00150412 3.9765E-4
v 0.00109601 0.00185195 -0.00173425
v -0.00121466 0.00284853 0.00181329
v -3.3197997E-4 0.00336479 -4.5375997E-4
v 0.00109601 0.00185195 -0.00173425
v 5.693E-4 -3.1403E-4 -0.0023254098
v 6.9029E-4 0.0018229499 -0.00202447
v 0.0011248599 -4.2275E-4 -0.00198402
v -3.3197997E-4 0.00336479 -4.5375997E-4
v -8.7806E-4 0.00326916 -6.565E-4
v -3.5562998E-4 -0.00221429 -0.00109154
v 1.5967E-4 -0.00217452 -9.2951994E-4
v -3.5562998E-4 -0.00221429 -0.00109154
v 0.0010009899 -3.7783E-4 -0.00394468
v 5.693E-4 -3.1403E-4 -0.0023254098
v -2.4887E-4 -0.0025642698 -0.00298978
v 8.8157994E-4 0.00229851 -0.00375238
v 6.9029E-4 0.0018229499 -0.00202447
v -5.5034E-4 0.00410003 -0.00232814
v -8.7806E-4 0.00326916 -6.565E-4
v 3.9932E-4 -0.00257992 0.00134876
v 1.6428999E-4 -0.00119305 0.0037055
v 0.0014438599 -9.2595E-4 3.0456999E-4
v -2.1838999E-4 -0.0027640301 0.00280023
v 1.8275E-4 0.00142413 0.0041271
v 0.00132361 0.0018594199 5.3323E-4
v -7.6778E-4 0.0031118898 0.0033051898
v -1.9704999E-4 0.00347779 0.00199709
v 9.3777E-4 -8.3704997E-4 4.7999997E-6
v 0.00132361 0.0018594199 5.3323E-4
v 9.4897E-4 0.0018491199 2.69E-4
v 0.0014438599 -9.2595E-4 3.0456999E-4
v -1.9704999E-4 0.00347779 0.00199709
v -7.5708E-4 0.0034312701 0.00167152
v -1.6070998E-4 -0.0026264398 0.00102319
v 3.9932E-4 -0.00257992 0.00134876
v 7.8018E-4 -0.0025863098 -0.00104984
v 9.3777E-4 -8.3704997E-4 4.7999997E-6
v 0.0017837 -6.3176E-4 -0.00228624
v -1.6070998E-4 -0.0026264398 0.00102319
v 9.4897E-4 0.0018491199 2.69E-4
v 0.00174233 0.00214856 -0.0019860098
v -7.5708E-4 0.0034312701 0.00167152
v 1.9126E-4 0.00390657 -4.9576E-4
v 0.00125398 -5.3961E-4 -0.0025477
v 0.00174233 0.00214856 -0.0019860098
v 0.00133238 0.00217313 -0.0022093898
v 0.0017837 -6.3176E-4 -0.00228624
v 1.9126E-4 0.00390657 -4.9576E-4
v -3.9025E-4 0.00383028 -7.8411994E-4
v 1.9867E-4 -0.0026626 -0.0013382
v 7.8018E-4 -0.0025863098 -0.00104984
v 0.00171804 -4.9566996E-4 -0.0037420697
v 1.9867E-4 -0.0026626 -0.0013382
v 0.00125398 -5.3961E-4 -0.0025477
v 4.3111E-4 -0.00282954 -0.00279915
v 0.0015816399 0.00243559 -0.0035069701
v 0.00133238 0.00217313 -0.0022093898
v 6.877E-5 0.0044269296 -0.00204722
v -3.9025E-4 0.00383028 -7.8411994E-4
vn 0.12784554 -0.44405642 -0.8868311
vn 0.12784554 -0.44405642 -0.8868311
vn 0.12784554 -0.44405642 -0.8868311
vn 0.12784554 -0.44405642 -0.8868311
vn -0.23497024 -0.63499033 0.73591864
vn -0.23497024 -0.63499033 0.73591864
vn -0.23497024 -0.63499033 0.73591864
vn -0.23497024 -0.63499033 0.73591864
vn -0.40945092 0.49337983 0.7674153
vn -0.40945092 0.49337983 0.7674153
vn -0.40945092 0.49337983 0.7674153
vn -0.40945092 0.49337983 0.7674153
vn -0.4323091 -0.8142305 -0.38747594
vn -0.4323091 -0.8142305 -0.38747594
vn -0.4323091 -0.8142305 -0.38747594
vn -0.4323091 -0.8142305 -0.38747594
vn -0.4323091 -0.8142305 -0.38747594
vn -0.7561778 0.63162833 -0.17099988
vn -0.7561778 0.63162833 -0.17099988
vn -0.7561778 0.63162833 -0.17099988
vn -0.7561778 0.63162833 -0.17099988
vn -0.43700665 0.48553246 0.75715476
vn -0.43700665 0.48553246 0.75715476
vn -0.43700665 0.48553246 0.75715476
vn -0.43700665 0.48553246 0.75715476
vn -0.43700665 0.48553246 0.75715476
vn -0.37727574 -0.27979806 0.88282275
vn -0.40776196 -0.39598164 0.8227568
vn -0.40776196 -0.39598164 0.8227568
vn -0.37514186 -0.27232274 0.8860637
vn -0.40293673 0.02716153 0.91482466
vn -0.3994704 0.016724713 0.91659355
vn -0.45168585 0.19559827 0.87047184
vn -0.45168585 0.19559827 0.87047184
vn -0.6316077 0.7599436 -0.15348418
vn -0.6316077 0.7599436 -0.15348418
vn -0.6316077 0.7599436 -0.15348418
vn -0.6316077 0.7599436 -0.15348418
vn -0.62997824 0.75132275 0.19657446
vn -0.62997824 0.75132275 0.19657446
vn -0.62997824 0.75132275 0.19657446
vn -0.62997824 0.75132275 0.19657446
vn -0.62997824 0.75132275 0.19657446
vn -0.6292891 -0.72811246 -0.27174887
vn -0.6292891 -0.72811246 -0.27174887
vn -0.6292891 -0.72811246 -0.27174887
vn -0.6292891 -0.72811246 -0.27174887
vn 0.2992442 0.08606513 -0.9502872
vn 0.2992442 0.08606513 -0.9502872
vn 0.2992442 0.08606513 -0.9502872
vn 0.2992442 0.08606513 -0.9502872
vn -0.29719877 -0.6453651 0.70368785
vn -0.29719877 -0.6453651 0.70368785
vn -0.29719877 -0.6453651 0.70368785
vn -0.29719877 -0.6453651 0.70368785
vn -0.29719877 -0.6453651 0.70368785
vn 0.07883108 0.6414524 -0.7631019
vn 0.07883108 0.6414524 -0.7631019
vn 0.07883108 0.6414524 -0.7631019
vn 0.07883108 0.6414524 -0.7631019
vn -0.49593484 -0.86439157 0.08292031
vn -0.49593484 -0.86439157 0.08292031
vn -0.49593484 -0.86439157 0.08292031
vn -0.49593484 -0.86439157 0.08292031
vn -0.84853 0.39354727 -0.3537195
vn -0.9054974 0.19748814 -0.3755968
vn -0.84853 0.39354727 -0.3537195
vn -0.9121696 0.15827459 -0.37801564
vn -0.88386935 -0.22929147 -0.40767673
vn -0.899676 -0.1653226 -0.4040439
vn -0.7505954 -0.5264301 -0.39934704
vn -0.7505954 -0.5264301 -0.39934704
vn -0.49090546 -0.4989931 0.7141553
vn -0.5434263 0.3058642 0.7817513
vn -0.50649196 -0.46931997 0.7233289
vn -0.5341572 0.32906428 0.7787123
vn -0.25822237 -0.803874 0.5358244
vn -0.34507993 0.66192967 0.6654088
vn -0.34507993 0.66192967 0.6654088
vn -0.50649196 -0.46931997 0.7233289
vn -0.25822237 -0.803874 0.5358244
vn -0.91433257 0.19233365 -0.35637575
vn -0.8918072 0.28907967 -0.3480126
vn -0.92356855 0.1327275 -0.35972846
vn -0.8918072 0.28907967 -0.3480126
vn -0.88363594 -0.25206196 -0.3945278
vn -0.9102322 -0.14722416 -0.3870432
vn -0.8011283 -0.44905913 -0.39565057
vn -0.8011283 -0.44905913 -0.39565057
vn -0.41854733 -0.4616717 0.78209805
vn -0.4666654 0.2677428 0.8429337
vn -0.41854146 -0.46169573 0.7820871
vn -0.45608184 0.2976862 0.83867294
vn -0.21546477 -0.7633129 0.60903895
vn -0.21546477 -0.7633129 0.60903895
vn -0.3031753 0.6137057 0.7290063
vn -0.3031753 0.6137057 0.7290063
vn -0.9051746 0.38332355 -0.18363519
vn -0.9658766 0.18110187 -0.18516092
vn -0.9565012 0.22510935 -0.18555653
vn -0.9051746 0.38332355 -0.18363519
vn -0.94236076 -0.22196352 -0.25037655
vn -0.9280751 -0.26508582 -0.26154566
vn -0.8163625 -0.48632604 -0.31151116
vn -0.8163625 -0.48632604 -0.31151116
vn 0.8750207 -0.3740148 0.30732998
vn 0.9300334 -0.17600256 0.32258493
vn 0.9344937 -0.14835317 0.32359365
vn 0.8750207 -0.3740148 0.30732998
vn 0.9077274 0.22669533 0.35304412
vn 0.9190401 0.18207453 0.3495917
vn 0.78024983 0.5139712 0.3564319
vn 0.78024983 0.5139712 0.3564319
vn 0.49486017 -0.29377267 -0.8178087
vn 0.46157503 0.46178865 -0.7574298
vn 0.45213884 0.4884565 -0.74631137
vn 0.49105766 -0.3095891 -0.81425846
vn 0.2955776 0.7852567 -0.5440642
vn 0.2955776 0.7852567 -0.5440642
vn 0.37136367 -0.6362136 -0.6762554
vn 0.37136367 -0.6362136 -0.6762554
vn 0.8911677 -0.290423 0.34853205
vn 0.9197169 -0.18470024 0.34641975
vn 0.9311357 -0.12290014 0.34333912
vn 0.8911677 -0.290423 0.34853205
vn 0.8888399 0.25337005 0.38179466
vn 0.9173206 0.150491 0.36861292
vn 0.8049238 0.443114 0.39464888
vn 0.8049238 0.443114 0.39464888
vn 0.43722057 -0.2666783 -0.8589068
vn 0.40493092 0.4280951 -0.8079391
vn 0.3850948 0.4940493 -0.77949804
vn 0.4341688 -0.2845017 -0.8547259
vn 0.26600522 0.76059914 -0.5922248
vn 0.26600522 0.76059914 -0.5922248
vn 0.34618413 -0.6049295 -0.7170892
vn 0.34618413 -0.6049295 -0.7170892
vn 0.9505129 -0.15619601 0.26856682
vn 0.90138316 -0.35164168 0.2526986
vn 0.94053805 -0.21229094 0.2651806
vn 0.90138316 -0.35164168 0.2526986
vn 0.92798764 0.18170942 0.32530075
vn 0.90961766 0.24100825 0.3383942
vn 0.8206923 0.4333424 0.37239552
vn 0.8206923 0.4333424 0.37239552
vt 0.242927 1.0
vt 0.370793 0.945026
vt 0.390052 0.976652
vt 0.250009 0.959676
vt 0.43687 0.907811
vt 0.425297 0.861833
vt 0.470905 0.890092
vt 0.405071 0.887011
vt 0.029152 0.661144
vt 0.077011 0.717075
vt 0.041468 0.7026
vt 0.083064 0.682083
vt 0.503273 0.621922
vt 0.524486 0.721635
vt 0.476543 0.702784
vt 0.503273 0.621922
vt 0.540953 0.616531
vt 0.150761 0.54059
vt 0.083064 0.682083
vt 0.029152 0.661144
vt 0.180298 0.56073797
vt 0.150877 0.49975997
vt 0.180298 0.56073797
vt 0.150761 0.54059
vt 0.196934 0.532412
vt 0.180298 0.56073797
vt 0.461542 0.56122696
vt 0.540953 0.616531
vt 0.503273 0.621922
vt 0.489847 0.531896
vt 0.348455 0.481179
vt 0.364091 0.44001102
vt 0.25762 0.47667098
vt 0.242869 0.44001198
vt 0.242869 0.44001198
vt 0.196934 0.532412
vt 0.150877 0.49975997
vt 0.25762 0.47667098
vt 0.041468 0.7026
vt 0.043051 0.781044
vt 0.0 0.785643
vt 0.077011 0.717075
vt 0.043051 0.781044
vt 0.470905 0.890092
vt 0.464723 0.73009
vt 0.494822 0.74302197
vt 0.425297 0.861833
vt 0.087899 0.92895
vt 0.250009 0.959676
vt 0.242927 1.0
vt 0.115937 0.895361
vt 0.494822 0.74302197
vt 0.476543 0.702784
vt 0.524486 0.721635
vt 0.464723 0.73009
vt 0.476543 0.702784
vt 0.0 0.785643
vt 0.115937 0.895361
vt 0.087899 0.92895
vt 0.043051 0.781044
vt 0.390052 0.976652
vt 0.405071 0.887011
vt 0.43687 0.907811
vt 0.370793 0.945026
vt 0.476543 0.702784
vt 0.461542 0.56122696
vt 0.503273 0.621922
vt 0.371178 0.700432
vt 0.348455 0.481179
vt 0.275566 0.64287
vt 0.25762 0.47667098
vt 0.196934 0.532412
vt 0.275566 0.64287
vt 0.3618 0.729874
vt 0.257142 0.666458
vt 0.371178 0.700432
vt 0.196934 0.532412
vt 0.464723 0.73009
vt 0.476543 0.702784
vt 0.257142 0.666458
vt 0.180298 0.56073797
vt 0.3618 0.729874
vt 0.425297 0.861833
vt 0.292645 0.834071
vt 0.464723 0.73009
vt 0.257142 0.666458
vt 0.199939 0.782134
vt 0.180298 0.56073797
vt 0.083064 0.682083
vt 0.199939 0.782134
vt 0.281553 0.860941
vt 0.184614 0.803254
vt 0.292645 0.834071
vt 0.083064 0.682083
vt 0.077011 0.717075
vt 0.405071 0.887011
vt 0.425297 0.861833
vt 0.405071 0.887011
vt 0.250009 0.959676
vt 0.281553 0.860941
vt 0.370793 0.945026
vt 0.115937 0.895361
vt 0.184614 0.803254
vt 0.043051 0.781044
vt 0.077011 0.717075
vt 0.564233 0.678387
vt 0.669929 0.507937
vt 0.682789 0.734035
vt 0.546526 0.563693
vt 0.862152 0.507937
vt 0.83624 0.736164
vt 0.991132 0.575325
vt 0.980823 0.676697
vt 0.675804 0.772827
vt 0.83624 0.736164
vt 0.842973 0.76135397
vt 0.682789 0.734035
vt 0.980823 0.676697
vt 1.0 0.70600903
vt 0.540953 0.708009
vt 0.564233 0.678387
vt 0.573136 0.84575903
vt 0.675804 0.772827
vt 0.693214 0.89888
vt 0.540953 0.708009
vt 0.842973 0.76135397
vt 0.830652 0.90009403
vt 1.0 0.70600903
vt 0.964946 0.842032
vt 0.687543 0.934368
vt 0.830652 0.90009403
vt 0.839435 0.922311
vt 0.693214 0.89888
vt 0.964946 0.842032
vt 0.982733 0.867485
vt 0.553399 0.87103
vt 0.573136 0.84575903
vt 0.690716 1.0
vt 0.553399 0.87103
vt 0.687543 0.934368
vt 0.552641 0.944823
vt 0.840625 0.996425
vt 0.839435 0.922311
vt 0.982286 0.937805
vt 0.982733 0.867485

g def_forearm_arm_L_lv1
s 1
usemtl def_forearm_arm_L_lv1
f 3/3/3 2/2/2 1/1/1 
f 2/2/2 4/4/4 1/1/1 
f 7/7/7 6/6/6 5/5/5 
f 6/6/6 8/8/8 5/5/5 
f 11/11/11 10/10/10 9/9/9 
f 10/10/10 12/12/12 9/9/9 
f 15/15/15 14/14/14 13/13/13 
f 14/14/14 17/17/17 16/16/16 
f 20/20/20 19/19/19 18/18/18 
f 19/19/19 21/21/21 18/18/18 
f 24/24/24 23/23/23 22/22/22 
f 26/26/26 25/25/25 22/22/22 
f 29/29/29 28/28/28 27/27/27 
f 28/28/28 30/30/30 27/27/27 
f 31/31/31 27/27/27 30/30/30 
f 32/32/32 31/31/31 30/30/30 
f 33/33/33 31/31/31 32/32/32 
f 34/34/34 33/33/33 32/32/32 
f 37/37/37 36/36/36 35/35/35 
f 36/36/36 38/38/38 35/35/35 
f 41/41/41 40/40/40 39/39/39 
f 43/43/43 42/42/42 39/39/39 
f 46/46/46 45/45/45 44/44/44 
f 45/45/45 47/47/47 44/44/44 
f 50/50/50 49/49/49 48/48/48 
f 49/49/49 51/51/51 48/48/48 
f 54/54/54 53/53/53 52/52/52 
f 56/56/56 55/55/55 52/52/52 
f 59/59/59 58/58/58 57/57/57 
f 58/58/58 60/60/60 57/57/57 
f 63/63/63 62/62/62 61/61/61 
f 62/62/62 64/64/64 61/61/61 
f 67/67/67 66/66/66 65/65/65 
f 66/66/66 68/68/68 65/65/65 
f 68/68/68 66/66/66 69/69/69 
f 70/70/70 68/68/68 69/69/69 
f 70/70/70 69/69/69 71/71/71 
f 72/72/72 70/70/70 71/71/71 
f 75/75/75 74/74/74 73/73/73 
f 74/74/74 76/76/76 73/73/73 
f 75/75/75 73/73/73 77/77/77 
f 74/74/74 78/78/78 76/76/76 
f 78/78/78 79/79/79 76/76/76 
f 81/81/81 80/80/80 77/77/77 
f 84/84/84 83/83/83 82/82/82 
f 83/83/83 85/85/85 82/82/82 
f 84/84/84 82/82/82 86/86/86 
f 87/87/87 84/84/84 86/86/86 
f 87/87/87 86/86/86 88/88/88 
f 89/89/89 87/87/87 88/88/88 
f 92/92/92 91/91/91 90/90/90 
f 91/91/91 93/93/93 90/90/90 
f 92/92/92 90/90/90 94/94/94 
f 95/95/95 92/92/92 94/94/94 
f 91/91/91 96/96/96 93/93/93 
f 96/96/96 97/97/97 93/93/93 
f 100/100/100 99/99/99 98/98/98 
f 99/99/99 101/101/101 98/98/98 
f 99/99/99 100/100/100 102/102/102 
f 100/100/100 103/103/103 102/102/102 
f 102/102/102 103/103/103 104/104/104 
f 103/103/103 105/105/105 104/104/104 
f 108/108/108 107/107/107 106/106/106 
f 107/107/107 109/109/109 106/106/106 
f 110/110/110 107/107/107 108/108/108 
f 111/111/111 110/110/110 108/108/108 
f 112/112/112 110/110/110 111/111/111 
f 113/113/113 112/112/112 111/111/111 
f 116/116/116 115/115/115 114/114/114 
f 115/115/115 117/117/117 114/114/114 
f 118/118/118 115/115/115 116/116/116 
f 119/119/119 118/118/118 116/116/116 
f 114/114/114 117/117/117 120/120/120 
f 117/117/117 121/121/121 120/120/120 
f 124/124/124 123/123/123 122/122/122 
f 123/123/123 125/125/125 122/122/122 
f 126/126/126 123/123/123 124/124/124 
f 127/127/127 126/126/126 124/124/124 
f 128/128/128 126/126/126 127/127/127 
f 129/129/129 128/128/128 127/127/127 
f 132/132/132 131/131/131 130/130/130 
f 131/131/131 133/133/133 130/130/130 
f 134/134/134 131/131/131 132/132/132 
f 135/135/135 134/134/134 132/132/132 
f 130/130/130 133/133/133 136/136/136 
f 133/133/133 137/137/137 136/136/136 
f 140/140/140 139/139/139 138/138/138 
f 139/139/139 141/141/141 138/138/138 
f 138/138/138 142/142/142 140/140/140 
f 142/142/142 143/143/143 140/140/140 
f 142/142/142 144/144/144 143/143/143 
f 144/144/144 145/145/145 143/143/143 

