# Created by DisUnity v0.3.4
v -0.00471936 0.00737248 0.00218425
v -0.00122399 0.0043527097 0.00451849
v -0.0017236399 0.00402621 0.00432072
v -0.00439446 0.00788565 0.0023468898
v -0.00439446 0.00788565 0.0023468898
v -0.0053016697 0.00791049 -9.921E-4
v -0.00497676 0.00842367 -8.2947E-4
v -0.00439446 0.00788565 0.0023468898
v -0.00471936 0.00737248 0.00218425
v -0.0053016697 0.00791049 -9.921E-4
v 3.2840002E-5 -0.00505249 -0.00256183
v -0.0029118897 -0.0075195995 -0.00375147
v -0.00243765 -0.007930989 -0.0037165598
v -4.3988E-4 -0.00466058 -0.00269716
v 0.0017283299 -0.00239408 -5.5528997E-4
v 0.00123392 -0.00212575 -8.3623E-4
v 0.00186627 0.0022024699 0.00102172
v 0.0013415199 0.0021746599 6.7641E-4
v -6.6687004E-4 0.0058594295 0.0012937599
v -0.00108156 0.00544771 0.00106165
v -0.00497676 0.00842367 -8.2947E-4
v -0.00497676 0.00842367 -8.2947E-4
v -0.0053016697 0.00791049 -9.921E-4
v 2.1366E-4 -0.00210523 -0.00393364
v -0.00208849 -0.00303408 -0.00194854
v -0.00163843 -0.00344883 -0.00180437
v -2.4882E-4 -0.0016927599 -0.00404019
v 0.00142618 -8.4767997E-4 -0.00630387
v 9.522599E-4 -4.3956997E-4 -0.00636885
v -0.0013376599 -0.0023815099 -0.00236872
v 1.814E-5 -3.5077E-4 -0.00441914
v 5.0108996E-4 -7.5158995E-4 -0.00438095
v -0.00182061 -0.00198069 -0.00240691
v 7.2088E-4 -0.00433732 0.00503191
v -9.061999E-5 4.4307E-4 0.006693
v 5.1779E-4 5.6613E-4 0.00659273
v 1.0738E-4 -0.00435949 0.00516793
v 1.9433998E-4 -0.00691634 0.00311778
v -4.1281997E-4 -0.0068889395 0.0032788801
v -3.0439998E-5 0.00534671 -0.0014815
v 8.4489E-4 0.00542437 -0.00436475
v 0.00136333 0.0056234 -0.00406984
v -5.2143E-4 0.00515692 -0.0018254099
v -0.00230785 0.00482499 0.00147525
v -0.00277211 0.0046443897 0.00109157
v 5.0108996E-4 -7.5158995E-4 -0.00438095
v -0.0010022799 -0.00150662 -0.00778018
v -5.1933003E-4 -0.0019074399 -0.00774199
v 5.0108996E-4 -7.5158995E-4 -0.00438095
v 1.814E-5 -3.5077E-4 -0.00441914
v -0.0010022799 -0.00150662 -0.00778018
v -0.00243765 -0.007930989 -0.0037165598
v -0.00328072 -0.00792836 -0.00276338
v -0.0028064798 -0.00833975 -0.00272847
v -0.0029118897 -0.0075195995 -0.00375147
v -0.00328072 -0.00792836 -0.00276338
v -0.0028064798 -0.00833975 -0.00272847
v -0.0015010899 -0.0056810197 -0.0010919999
v -9.6612E-4 -0.00600757 -0.00104168
v -0.00328072 -0.00792836 -0.00276338
v -5.1933003E-4 -0.0019074399 -0.00774199
v -0.0019183999 -0.00291908 -0.0068847695
v -0.0014354499 -0.0033199 -0.0068465797
v -0.0010022799 -0.00150662 -0.00778018
v -0.0014354499 -0.0033199 -0.0068465797
v -0.00182061 -0.00198069 -0.00240691
v -0.0013376599 -0.0023815099 -0.00236872
v -0.0014354499 -0.0033199 -0.0068465797
v -0.0019183999 -0.00291908 -0.0068847695
v -0.00182061 -0.00198069 -0.00240691
v -0.0017236399 0.00402621 0.00432072
v 5.1779E-4 5.6613E-4 0.00659273
v -9.061999E-5 4.4307E-4 0.006693
v -0.00122399 0.0043527097 0.00451849
v -9.6612E-4 -0.00600757 -0.00104168
v -4.1281997E-4 -0.0068889395 0.0032788801
v 1.9433998E-4 -0.00691634 0.00311778
v -0.0015010899 -0.0056810197 -0.0010919999
v 0.00136333 0.0056234 -0.00406984
v 0.00254889 0.0013643799 -0.0044572297
v 0.00312747 0.00122752 -0.00425259
v 8.4489E-4 0.00542437 -0.00436475
v 0.00254889 0.0013643799 -0.0044572297
v 9.522599E-4 -4.3956997E-4 -0.00636885
v 0.00142618 -8.4767997E-4 -0.00630387
v -0.00163843 -0.00344883 -0.00180437
v -6.0226E-4 -4.5637E-4 0.00104068
v -7.045E-5 -5.7514996E-4 0.00135442
v -0.00208849 -0.00303408 -0.00194854
v -0.00277211 0.0046443897 0.00109157
v -0.00230785 0.00482499 0.00147525
v -0.0015010899 -0.0056810197 -0.0010919999
v 1.0738E-4 -0.00435949 0.00516793
v -4.1281997E-4 -0.0068889395 0.0032788801
v -6.6193996E-4 -0.00284772 0.0014585999
v -7.2328997E-4 0.0011371 0.0035447697
v -9.061999E-5 4.4307E-4 0.006693
v -0.0017236399 0.00402621 0.00432072
v -4.3988E-4 -0.00466058 -0.00269716
v -6.6193996E-4 -0.00284772 0.0014585999
v -0.0015010899 -0.0056810197 -0.0010919999
v 0.00123392 -0.00212575 -8.3623E-4
v -0.00328072 -0.00792836 -0.00276338
v 0.0013415199 0.0021746599 6.7641E-4
v -7.2328997E-4 0.0011371 0.0035447697
v -0.00108156 0.00544771 0.00106165
v -0.0017236399 0.00402621 0.00432072
v -0.0053016697 0.00791049 -9.921E-4
v -0.00471936 0.00737248 0.00218425
v -0.00328072 -0.00792836 -0.00276338
v -0.0029118897 -0.0075195995 -0.00375147
v 0.00138943 6.2202E-4 -0.00190133
v -0.00208849 -0.00303408 -0.00194854
v -2.4882E-4 -0.0016927599 -0.00404019
v -6.0226E-4 -4.5637E-4 0.00104068
v 9.522599E-4 -4.3956997E-4 -0.00636885
v 0.00254889 0.0013643799 -0.0044572297
v -5.2143E-4 0.00515692 -0.0018254099
v -6.0226E-4 -4.5637E-4 0.00104068
v 0.00138943 6.2202E-4 -0.00190133
v -0.00277211 0.0046443897 0.00109157
v 0.00254889 0.0013643799 -0.0044572297
v 8.4489E-4 0.00542437 -0.00436475
v -0.0019183999 -0.00291908 -0.0068847695
v 1.814E-5 -3.5077E-4 -0.00441914
v -0.00182061 -0.00198069 -0.00240691
v -0.0010022799 -0.00150662 -0.00778018
v 1.814E-5 -3.5077E-4 -0.00441914
v 6.429E-5 5.0087E-4 0.00266448
v 0.0014501599 -2.9711E-4 0.00234984
v 5.5367E-4 -3.751E-4 0.0018026
v 0.00105081 4.1772999E-4 0.0030531702
v 0.00214278 2.519E-5 0.0015872399
v 0.00140241 1.985E-5 8.681E-4
v 0.0017617799 0.00129076 7.9547E-4
v 0.00243604 0.00106231 0.00152797
v 0.00203668 0.00177715 0.0022312999
v 0.0012724 0.00216674 0.0016573399
v 0.00134406 0.00145485 0.0029938999
v 4.2365E-4 0.0017717899 0.0025918498
v 0.00105081 4.1772999E-4 0.0030531702
v 0.00145952 0.00124819 0.00279056
v 0.0012510499 5.1091E-4 0.0028326898
v 0.00134406 0.00145485 0.0029938999
v 0.00203668 0.00177715 0.0022312999
v 0.0019519 0.0014772998 0.00224844
v 0.00243604 0.00106231 0.00152797
v 0.00223579 9.6913E-4 0.0017484499
v 0.00202732 2.3184999E-4 0.00179058
v 0.00214278 2.519E-5 0.0015872399
v 0.0014501599 -2.9711E-4 0.00234984
v 0.00153495 2.74E-6 0.00233271
v 0.0012510499 5.1091E-4 0.0028326898
v 0.00127511 9.9619996E-5 0.00210523
v 0.00153495 2.74E-6 0.00233271
v 0.00100282 5.8701E-4 0.0025847799
v 0.0017473499 3.1936998E-4 0.0015852799
v 0.00202732 2.3184999E-4 0.00179058
v 0.00223579 9.6913E-4 0.0017484499
v 0.0019472999 0.0010265 0.00154487
v 0.00120277 0.00129415 0.00254437
v 0.00145952 0.00124819 0.00279056
v 0.0019519 0.0014772998 0.00224844
v 0.00167501 0.00151389 0.00202441
v 0.00223579 9.6913E-4 0.0017484499
v 0.00100282 5.8701E-4 0.0025847799
v 0.00120277 0.00129415 0.00254437
v 0.00147506 8.067599E-4 0.00206482
v 0.00167501 0.00151389 0.00202441
v 0.0019472999 0.0010265 0.00154487
v 0.0017473499 3.1936998E-4 0.0015852799
v 0.00127511 9.9619996E-5 0.00210523
v 7.2088E-4 -0.00433732 0.00503191
v -9.6612E-4 -0.00600757 -0.00104168
v 1.9433998E-4 -0.00691634 0.00311778
v -4.978E-5 -0.00297392 0.0015271499
v -1.1508E-4 0.0012427099 0.0036644
v 5.1779E-4 5.6613E-4 0.00659273
v -0.00122399 0.0043527097 0.00451849
v -4.978E-5 -0.00297392 0.0015271499
v 3.2840002E-5 -0.00505249 -0.00256183
v -9.6612E-4 -0.00600757 -0.00104168
v 0.0017283299 -0.00239408 -5.5528997E-4
v -0.0028064798 -0.00833975 -0.00272847
v -0.00243765 -0.007930989 -0.0037165598
v 0.00186627 0.0022024699 0.00102172
v -1.1508E-4 0.0012427099 0.0036644
v -6.6687004E-4 0.0058594295 0.0012937599
v -0.00122399 0.0043527097 0.00451849
v -0.00497676 0.00842367 -8.2947E-4
v -0.00439446 0.00788565 0.0023468898
v -0.00163843 -0.00344883 -0.00180437
v 0.0019463799 4.9953E-4 -0.00163643
v 2.1366E-4 -0.00210523 -0.00393364
v -7.045E-5 -5.7514996E-4 0.00135442
v 0.00142618 -8.4767997E-4 -0.00630387
v 0.00312747 0.00122752 -0.00425259
v -7.045E-5 -5.7514996E-4 0.00135442
v -3.0439998E-5 0.00534671 -0.0014815
v 0.0019463799 4.9953E-4 -0.00163643
v -0.00230785 0.00482499 0.00147525
v 0.00312747 0.00122752 -0.00425259
v 0.00136333 0.0056234 -0.00406984
v 5.0108996E-4 -7.5158995E-4 -0.00438095
v -0.0014354499 -0.0033199 -0.0068465797
v -0.0013376599 -0.0023815099 -0.00236872
v -5.1933003E-4 -0.0019074399 -0.00774199
vn -0.48708674 0.106237404 0.8668679
vn -0.48708674 0.106237404 0.8668679
vn -0.48708674 0.106237404 0.8668679
vn -0.48708674 0.106237404 0.8668679
vn -0.85315895 0.46559805 0.23524056
vn -0.85315895 0.46559805 0.23524056
vn -0.85315895 0.46559805 0.23524056
vn -0.85315895 0.46559805 0.23524056
vn -0.85315895 0.46559805 0.23524056
vn -0.85315895 0.46559805 0.23524056
vn 0.4113679 0.19831356 -0.8896338
vn 0.27854767 0.12659317 -0.9520428
vn 0.27854767 0.12659317 -0.9520428
vn 0.40370578 0.19413158 -0.8940551
vn 0.5382136 0.26079017 -0.8014453
vn 0.53775233 0.26081908 -0.8017454
vn 0.4678251 0.301802 -0.83069557
vn 0.4574539 0.30668852 -0.8346725
vn 0.41225073 0.19745797 -0.8894153
vn 0.41741246 0.17698142 -0.8913161
vn 0.44981956 0.0213633 -0.89286387
vn 0.44981956 0.0213633 -0.89286387
vn 0.44981956 0.0213633 -0.89286387
vn -0.4141175 -0.6357493 -0.65140575
vn -0.3606828 -0.61137235 -0.70436615
vn -0.3606828 -0.61137235 -0.70436615
vn -0.41671553 -0.63688433 -0.6486344
vn -0.46752802 -0.657115 -0.5912845
vn -0.46752802 -0.657115 -0.5912845
vn 0.37389535 0.52344126 0.7656446
vn 0.37389535 0.52344126 0.7656446
vn 0.37389535 0.52344126 0.7656446
vn 0.37389535 0.52344126 0.7656446
vn 0.20301202 -0.4576621 0.8656393
vn 0.2146711 -0.28785583 0.9333035
vn 0.2146711 -0.28785583 0.9333035
vn 0.20313503 -0.45644343 0.86625373
vn 0.18473084 -0.6109577 0.76980853
vn 0.18473084 -0.6109577 0.76980853
vn -0.31519812 0.94626564 -0.072329536
vn -0.31888962 0.9451022 -0.07135265
vn -0.31888962 0.9451022 -0.07135265
vn -0.31519812 0.94626564 -0.072329536
vn -0.6458169 0.531614 0.54800284
vn -0.6453111 0.53415793 0.5461218
vn 0.59976375 0.68295914 -0.41695362
vn 0.59976375 0.68295914 -0.41695362
vn 0.59976375 0.68295914 -0.41695362
vn 0.59976375 0.68295914 -0.41695362
vn 0.59976375 0.68295914 -0.41695362
vn 0.59976375 0.68295914 -0.41695362
vn -0.55188406 -0.6774718 -0.48626715
vn -0.55188406 -0.6774718 -0.48626715
vn -0.55188406 -0.6774718 -0.48626715
vn -0.55188406 -0.6774718 -0.48626715
vn -0.55188406 -0.6774718 -0.48626715
vn -0.34062546 -0.36583436 0.866106
vn -0.34062546 -0.36583436 0.866106
vn -0.34062546 -0.36583436 0.866106
vn -0.34062546 -0.36583436 0.866106
vn -0.25657657 -0.39327297 -0.88289565
vn -0.25657657 -0.39327297 -0.88289565
vn -0.25657657 -0.39327297 -0.88289565
vn -0.25657657 -0.39327297 -0.88289565
vn -0.63718426 -0.7514185 0.1713665
vn -0.63718426 -0.7514185 0.1713665
vn -0.63718426 -0.7514185 0.1713665
vn -0.63718426 -0.7514185 0.1713665
vn -0.63718426 -0.7514185 0.1713665
vn -0.63718426 -0.7514185 0.1713665
vn -0.2457444 0.41576955 0.87564
vn -0.2457444 0.41576955 0.87564
vn -0.2457444 0.41576955 0.87564
vn -0.2457444 0.41576955 0.87564
vn -0.30601168 -0.9397339 -0.15250228
vn -0.30601168 -0.9397339 -0.15250228
vn -0.30601168 -0.9397339 -0.15250228
vn -0.30601168 -0.9397339 -0.15250228
vn 0.39763454 0.1922709 -0.89717263
vn 0.41762558 0.31923148 -0.85069394
vn 0.4176548 0.31944415 -0.85059977
vn 0.39763454 0.1922709 -0.89717263
vn 0.41762558 0.31923148 -0.85069394
vn 0.4298064 0.44003046 -0.7884413
vn 0.4298064 0.44003046 -0.7884413
vn -0.5674441 -0.45559108 0.6858892
vn -0.56115377 -0.35267815 0.7488154
vn -0.56088233 -0.34978086 0.7503762
vn -0.5674441 -0.45559108 0.6858892
vn -0.6453111 0.53415793 0.5461218
vn -0.6458169 0.531614 0.54800284
vn -0.96982497 0.047883924 0.23905341
vn -0.9788753 -0.030366683 0.2021902
vn -0.96982497 0.047883924 0.23905341
vn -0.97770554 -0.01532052 0.20942114
vn -0.965515 -0.21790925 0.14246505
vn -0.9712295 -0.18494378 0.1500303
vn -0.92983645 -0.35134003 0.10938175
vn -0.7542864 0.62338877 -0.2060058
vn -0.7990717 0.40721133 -0.44233835
vn -0.7556208 0.6320797 -0.17179166
vn -0.79644144 0.4236741 -0.43148717
vn -0.75304925 0.6557555 -0.05386553
vn -0.84010535 -0.04150628 -0.5408329
vn -0.8392683 -0.08099702 -0.5376505
vn -0.66242033 -0.6503652 -0.37178552
vn -0.72104645 -0.5501695 -0.4211954
vn -0.51245016 -0.82014614 -0.25447026
vn -0.51245016 -0.82014614 -0.25447026
vn -0.75304925 0.6557555 -0.05386553
vn -0.75304925 0.6557555 -0.05386553
vn -0.7239462 0.67230767 -0.15461032
vn -0.7064874 0.67480856 -0.21332872
vn -0.7245058 0.6721646 -0.1525982
vn -0.7064874 0.67480856 -0.21332872
vn -0.7407901 0.66623193 -0.085819714
vn -0.7407901 0.66623193 -0.085819714
vn -0.77350706 -0.3178261 -0.54833704
vn -0.73142457 -0.3017134 -0.61154497
vn -0.7751039 -0.31844053 -0.54571927
vn -0.73142457 -0.3017134 -0.61154497
vn -0.8164351 -0.33414873 -0.47093338
vn -0.8164351 -0.33414873 -0.47093338
vn -0.76808494 0.63746136 -0.060733862
vn -0.76808494 0.63746136 -0.060733862
vn -0.76808494 0.63746136 -0.060733862
vn -0.76808494 0.63746136 -0.060733862
vn -0.76808494 0.63746136 -0.060733862
vn -0.3693789 -0.34026322 0.8647428
vn -0.037477195 -0.97889334 0.20090584
vn -0.061709665 -0.9690127 0.23917837
vn -0.3693789 -0.34026322 0.8647428
vn 0.52255565 -0.66544807 -0.53302383
vn 0.49990696 -0.70038855 -0.50945956
vn 0.7490356 0.2680817 -0.6058695
vn 0.7490356 0.2680817 -0.6058695
vn 0.42757055 0.9029338 0.043520026
vn 0.40227395 0.9117315 0.08319542
vn -0.13349138 0.6065404 0.78376585
vn -0.15500915 0.57178515 0.80562645
vn 0.76489365 -0.1809462 0.6182201
vn 0.76489365 -0.1809462 0.6182201
vn 0.76489365 -0.1809462 0.6182201
vn 0.76489365 -0.1809462 0.6182201
vn 0.76489365 -0.1809462 0.6182201
vn 0.76489365 -0.1809462 0.6182201
vn 0.76489365 -0.1809462 0.6182201
vn 0.76489365 -0.1809462 0.6182201
vn 0.76489365 -0.1809462 0.6182201
vn 0.76489365 -0.1809462 0.6182201
vn 0.76489365 -0.1809462 0.6182201
vn 0.76489365 -0.1809462 0.6182201
vn 0.7201679 0.27739143 -0.6359342
vn 0.34154174 0.939812 0.010132414
vn 0.34813786 0.9374421 0.0015565031
vn 0.7201679 0.27739143 -0.6359342
vn -0.31264257 0.6420405 0.70002764
vn -0.3066295 0.6500655 0.6952649
vn -0.5885382 -0.31010875 0.74662924
vn -0.5885382 -0.31010875 0.74662924
vn 0.4396961 -0.68092316 -0.5856714
vn 0.4456715 -0.6728867 -0.59042394
vn -0.20832577 -0.9730821 0.09854731
vn -0.21497768 -0.9707262 0.10712262
vn -0.5885382 -0.31010875 0.74662924
vn 0.76489365 -0.1809462 0.6182201
vn 0.76489365 -0.1809462 0.6182201
vn 0.76489365 -0.1809462 0.6182201
vn 0.76489365 -0.1809462 0.6182201
vn 0.76489365 -0.1809462 0.6182201
vn 0.76489365 -0.1809462 0.6182201
vn 0.76489365 -0.1809462 0.6182201
vn 0.9756866 0.035249233 -0.21631737
vn 0.96563786 -0.043581888 -0.25621143
vn 0.96563786 -0.043581888 -0.25621143
vn 0.9742982 0.019593392 -0.22440842
vn 0.96213096 0.22626527 -0.15201339
vn 0.9676082 0.19571902 -0.15946233
vn 0.9249912 0.36175004 -0.11631059
vn 0.789103 -0.40785784 0.45931306
vn 0.75179744 -0.6232832 0.21521781
vn 0.75408155 -0.6316669 0.1798833
vn 0.786293 -0.42674798 0.446799
vn 0.7542205 -0.6542702 0.055514384
vn 0.7542205 -0.6542702 0.055514384
vn 0.8345456 0.044222217 0.5491612
vn 0.83451945 0.07877029 0.5453186
vn 0.65952903 0.65479845 0.36913478
vn 0.7252365 0.54263794 0.42376417
vn 0.5167227 0.81614774 0.25865126
vn 0.5167227 0.81614774 0.25865126
vn 0.7157726 -0.6596169 0.22929263
vn 0.7349398 -0.6561385 0.1713059
vn 0.7355131 -0.65597993 0.16944267
vn 0.7157726 -0.6596169 0.22929263
vn 0.753697 -0.6490473 0.10333729
vn 0.753697 -0.6490473 0.10333729
vn 0.7383508 0.2872161 0.6102007
vn 0.7808679 0.30183628 0.54693717
vn 0.78296465 0.30253473 0.54354316
vn 0.7383508 0.2872161 0.6102007
vn 0.82451046 0.31654656 0.46902117
vn 0.82451046 0.31654656 0.46902117
vn 0.76808494 -0.63746136 0.060733862
vn 0.76808494 -0.63746136 0.060733862
vn 0.76808494 -0.63746136 0.060733862
vn 0.76808494 -0.63746136 0.060733862
vt 0.682257 0.854963
vt 0.540745 0.91261697
vt 0.536138 0.891721
vt 0.692423 0.869054
vt 0.692423 0.869054
vt 0.704213 0.802384
vt 0.724384 0.794073
vt 0.692423 0.869054
vt 0.682257 0.854963
vt 0.704213 0.802384
vt 0.153103 0.744678
vt 0.065252 0.791474
vt 0.046143 0.778696
vt 0.156904 0.762426
vt 0.268837 0.717659
vt 0.271206 0.737724
vt 0.434258 0.707183
vt 0.434886 0.72924304
vt 0.58998 0.739442
vt 0.58634 0.75908697
vt 0.724384 0.794073
vt 0.724384 0.794073
vt 0.704213 0.802384
vt 0.152147 0.063844025
vt 0.088958 0.13841999
vt 0.068745 0.12877703
vt 0.163741 0.081912994
vt 0.247089 0.022246003
vt 0.244626 0.045659006
vt 0.885475 0.162022
vt 0.755645 0.23492098
vt 0.724455 0.21642703
vt 0.855017 0.20748103
vt 0.287802 0.975465
vt 0.41324 0.958286
vt 0.417429 0.975465
vt 0.289926 0.958511
vt 0.208435 0.951641
vt 0.217694 0.93781
vt 0.360264 0.371414
vt 0.398317 0.282068
vt 0.420194 0.286404
vt 0.345544 0.35493797
vt 0.240675 0.437896
vt 0.24327 0.411807
vt 0.724455 0.21642703
vt 0.784529 0.35856998
vt 0.759244 0.403553
vt 0.724455 0.21642703
vt 0.755645 0.23492098
vt 0.784529 0.35856998
vt 0.046143 0.778696
vt 0.06009 0.81075
vt 0.04356 0.82049596
vt 0.065252 0.791474
vt 0.06009 0.81075
vt 0.04356 0.82049596
vt 0.145639 0.840708
vt 0.138078 0.859643
vt 0.06009 0.81075
vt 0.759244 0.403553
vt 0.858481 0.350802
vt 0.885475 0.37579602
vt 0.784529 0.35856998
vt 0.885475 0.37579602
vt 0.855017 0.20748103
vt 0.885475 0.162022
vt 0.885475 0.37579602
vt 0.858481 0.350802
vt 0.855017 0.20748103
vt 0.536138 0.891721
vt 0.417429 0.975465
vt 0.41324 0.958286
vt 0.540745 0.91261697
vt 0.138078 0.859643
vt 0.217694 0.93781
vt 0.208435 0.951641
vt 0.145639 0.840708
vt 0.420194 0.286404
vt 0.353417 0.120929
vt 0.374828 0.105087996
vt 0.398317 0.282068
vt 0.353417 0.120929
vt 0.244626 0.045659006
vt 0.247089 0.022246003
vt 0.068745 0.12877703
vt 0.092124 0.290779
vt 0.068745 0.303935
vt 0.088958 0.13841999
vt 0.24327 0.411807
vt 0.240675 0.437896
vt 0.145639 0.840708
vt 0.289926 0.958511
vt 0.217694 0.93781
vt 0.279515 0.84126496
vt 0.427149 0.862081
vt 0.41324 0.958286
vt 0.536138 0.891721
vt 0.156904 0.762426
vt 0.279515 0.84126496
vt 0.145639 0.840708
vt 0.271206 0.737724
vt 0.06009 0.81075
vt 0.434886 0.72924304
vt 0.427149 0.862081
vt 0.58634 0.75908697
vt 0.536138 0.891721
vt 0.704213 0.802384
vt 0.682257 0.854963
vt 0.06009 0.81075
vt 0.065252 0.791474
vt 0.23675 0.20097202
vt 0.088958 0.13841999
vt 0.163741 0.081912994
vt 0.092124 0.290779
vt 0.244626 0.045659006
vt 0.353417 0.120929
vt 0.345544 0.35493797
vt 0.092124 0.290779
vt 0.23675 0.20097202
vt 0.24327 0.411807
vt 0.353417 0.120929
vt 0.398317 0.282068
vt 0.858481 0.350802
vt 0.755645 0.23492098
vt 0.855017 0.20748103
vt 0.784529 0.35856998
vt 0.755645 0.23492098
vt 0.749568 0.735144
vt 0.777739 0.76724
vt 0.749568 0.780001
vt 0.775655 0.747385
vt 0.795532 0.775056
vt 0.791903 0.809278
vt 0.847509 0.78359103
vt 0.81167 0.765028
vt 0.811571 0.745041
vt 0.837505 0.719971
vt 0.792544 0.73594
vt 0.784316 0.704893
vt 0.775655 0.747385
vt 0.792971 0.741851
vt 0.781186 0.74983
vt 0.792544 0.73594
vt 0.811571 0.745041
vt 0.805995 0.74848104
vt 0.81167 0.765028
vt 0.80707 0.762545
vt 0.795158 0.770014
vt 0.795532 0.775056
vt 0.777739 0.76724
vt 0.782268 0.763763
vt 0.781186 0.74983
vt 0.787373 0.760634
vt 0.782268 0.763763
vt 0.786121 0.752254
vt 0.795081 0.763741
vt 0.795158 0.770014
vt 0.80707 0.762545
vt 0.80137 0.759623
vt 0.793658 0.74811804
vt 0.792971 0.741851
vt 0.805995 0.74848104
vt 0.801074 0.752211
vt 0.80707 0.762545
vt 0.762177 0.619646
vt 0.791798 0.619646
vt 0.776988 0.645298
vt 0.806608 0.645298
vt 0.791798 0.67095
vt 0.762177 0.67095
vt 0.747367 0.645298
vt 0.254305 0.47217602
vt 0.16984 0.648466
vt 0.170209 0.517455
vt 0.282152 0.587721
vt 0.428144 0.533556
vt 0.40663 0.437896
vt 0.532432 0.505924
vt 0.282152 0.587721
vt 0.196328 0.704893
vt 0.16984 0.648466
vt 0.305172 0.67309
vt 0.068745 0.671354
vt 0.076023 0.704893
vt 0.449031 0.63907397
vt 0.428144 0.533556
vt 0.580941 0.604831
vt 0.532432 0.505924
vt 0.747367 0.610605
vt 0.690485 0.52823
vt 0.484263 0.428738
vt 0.581222 0.26950997
vt 0.593416 0.403736
vt 0.449957 0.269701
vt 0.696982 0.39426202
vt 0.683852 0.27568698
vt 0.449957 0.269701
vt 0.592833 0.08745903
vt 0.581222 0.26950997
vt 0.462039 0.06385797
vt 0.683852 0.27568698
vt 0.696981 0.10762501
vt 0.908615 0.462681
vt 0.832545 0.60570896
vt 0.786288 0.428738
vt 0.908615 0.610488

g def_shoulder_arm_L_lv3
s 1
usemtl def_shoulder_arm_L_lv3
f 3/3/3 2/2/2 1/1/1 
f 2/2/2 4/4/4 1/1/1 
f 7/7/7 6/6/6 5/5/5 
f 10/10/10 9/9/9 8/8/8 
f 13/13/13 12/12/12 11/11/11 
f 12/12/12 14/14/14 11/11/11 
f 11/11/11 14/14/14 15/15/15 
f 14/14/14 16/16/16 15/15/15 
f 15/15/15 16/16/16 17/17/17 
f 16/16/16 18/18/18 17/17/17 
f 17/17/17 18/18/18 19/19/19 
f 18/18/18 20/20/20 19/19/19 
f 19/19/19 20/20/20 21/21/21 
f 20/20/20 23/23/23 22/22/22 
f 26/26/26 25/25/25 24/24/24 
f 25/25/25 27/27/27 24/24/24 
f 24/24/24 27/27/27 28/28/28 
f 27/27/27 29/29/29 28/28/28 
f 32/32/32 31/31/31 30/30/30 
f 31/31/31 33/33/33 30/30/30 
f 36/36/36 35/35/35 34/34/34 
f 35/35/35 37/37/37 34/34/34 
f 34/34/34 37/37/37 38/38/38 
f 37/37/37 39/39/39 38/38/38 
f 42/42/42 41/41/41 40/40/40 
f 41/41/41 43/43/43 40/40/40 
f 40/40/40 43/43/43 44/44/44 
f 43/43/43 45/45/45 44/44/44 
f 48/48/48 47/47/47 46/46/46 
f 51/51/51 50/50/50 49/49/49 
f 54/54/54 53/53/53 52/52/52 
f 56/56/56 55/55/55 52/52/52 
f 59/59/59 58/58/58 57/57/57 
f 58/58/58 60/60/60 57/57/57 
f 63/63/63 62/62/62 61/61/61 
f 62/62/62 64/64/64 61/61/61 
f 67/67/67 66/66/66 65/65/65 
f 70/70/70 69/69/69 68/68/68 
f 73/73/73 72/72/72 71/71/71 
f 72/72/72 74/74/74 71/71/71 
f 77/77/77 76/76/76 75/75/75 
f 76/76/76 78/78/78 75/75/75 
f 81/81/81 80/80/80 79/79/79 
f 83/83/83 82/82/82 79/79/79 
f 84/84/84 83/83/83 81/81/81 
f 85/85/85 84/84/84 81/81/81 
f 88/88/88 87/87/87 86/86/86 
f 87/87/87 89/89/89 86/86/86 
f 90/90/90 87/87/87 88/88/88 
f 91/91/91 90/90/90 88/88/88 
f 94/94/94 93/93/93 92/92/92 
f 93/93/93 95/95/95 92/92/92 
f 95/95/95 93/93/93 96/96/96 
f 93/93/93 97/97/97 96/96/96 
f 98/98/98 96/96/96 97/97/97 
f 101/101/101 100/100/100 99/99/99 
f 100/100/100 102/102/102 99/99/99 
f 101/101/101 99/99/99 103/103/103 
f 102/102/102 100/100/100 104/104/104 
f 100/100/100 105/105/105 104/104/104 
f 106/106/106 104/104/104 105/105/105 
f 107/107/107 106/106/106 105/105/105 
f 108/108/108 106/106/106 107/107/107 
f 109/109/109 108/108/108 107/107/107 
f 99/99/99 111/111/111 110/110/110 
f 114/114/114 113/113/113 112/112/112 
f 113/113/113 115/115/115 112/112/112 
f 114/114/114 112/112/112 116/116/116 
f 112/112/112 117/117/117 116/116/116 
f 120/120/120 119/119/119 118/118/118 
f 119/119/119 121/121/121 118/118/118 
f 120/120/120 118/118/118 122/122/122 
f 118/118/118 123/123/123 122/122/122 
f 126/126/126 125/125/125 124/124/124 
f 128/128/128 127/127/127 124/124/124 
f 131/131/131 130/130/130 129/129/129 
f 130/130/130 132/132/132 129/129/129 
f 133/133/133 130/130/130 131/131/131 
f 134/134/134 133/133/133 131/131/131 
f 133/133/133 134/134/134 135/135/135 
f 136/136/136 133/133/133 135/135/135 
f 137/137/137 136/136/136 135/135/135 
f 138/138/138 137/137/137 135/135/135 
f 139/139/139 137/137/137 138/138/138 
f 132/132/132 139/139/139 129/129/129 
f 140/140/140 139/139/139 138/138/138 
f 139/139/139 140/140/140 129/129/129 
f 143/143/143 142/142/142 141/141/141 
f 142/142/142 144/144/144 141/141/141 
f 144/144/144 142/142/142 145/145/145 
f 142/142/142 146/146/146 145/145/145 
f 145/145/145 146/146/146 147/147/147 
f 146/146/146 148/148/148 147/147/147 
f 148/148/148 149/149/149 147/147/147 
f 149/149/149 150/150/150 147/147/147 
f 150/150/150 149/149/149 151/151/151 
f 149/149/149 152/152/152 151/151/151 
f 151/151/151 152/152/152 141/141/141 
f 152/152/152 143/143/143 141/141/141 
f 155/155/155 154/154/154 153/153/153 
f 154/154/154 156/156/156 153/153/153 
f 157/157/157 154/154/154 155/155/155 
f 158/158/158 157/157/157 155/155/155 
f 157/157/157 158/158/158 159/159/159 
f 160/160/160 157/157/157 159/159/159 
f 156/156/156 161/161/161 153/153/153 
f 161/161/161 162/162/162 153/153/153 
f 162/162/162 161/161/161 163/163/163 
f 163/163/163 164/164/164 159/159/159 
f 161/161/161 164/164/164 163/163/163 
f 164/164/164 160/160/160 165/165/165 
f 168/168/168 167/167/167 166/166/166 
f 167/167/167 168/168/168 169/169/169 
f 169/169/169 168/168/168 170/170/170 
f 168/168/168 171/171/171 170/170/170 
f 171/171/171 168/168/168 172/172/172 
f 172/172/172 168/168/168 166/166/166 
f 175/175/175 174/174/174 173/173/173 
f 174/174/174 176/176/176 173/173/173 
f 176/176/176 177/177/177 173/173/173 
f 177/177/177 178/178/178 173/173/173 
f 179/179/179 178/178/178 177/177/177 
f 182/182/182 181/181/181 180/180/180 
f 181/181/181 183/183/183 180/180/180 
f 182/182/182 184/184/184 181/181/181 
f 184/184/184 185/185/185 181/181/181 
f 183/183/183 186/186/186 180/180/180 
f 186/186/186 187/187/187 180/180/180 
f 187/187/187 186/186/186 188/188/188 
f 189/189/189 187/187/187 188/188/188 
f 188/188/188 190/190/190 189/189/189 
f 190/190/190 191/191/191 189/189/189 
f 194/194/194 193/193/193 192/192/192 
f 193/193/193 195/195/195 192/192/192 
f 194/194/194 196/196/196 193/193/193 
f 196/196/196 197/197/197 193/193/193 
f 200/200/200 199/199/199 198/198/198 
f 199/199/199 201/201/201 198/198/198 
f 200/200/200 202/202/202 199/199/199 
f 202/202/202 203/203/203 199/199/199 
f 206/206/206 205/205/205 204/204/204 
f 205/205/205 207/207/207 204/204/204 

