# Created by DisUnity v0.3.4
v 0.00119537 -0.00148165 -0.00411682
v -0.0 -4.5301998E-4 -0.00452951
v -0.0 -0.00198634 -0.00452951
v 0.00119537 5.888E-4 -0.00411682
v -0.0 -4.5301998E-4 -0.00452951
v -0.0 -4.5301998E-4 -0.00452951
v -0.00119537 -0.00148165 -0.00411682
v -0.0 -4.5301998E-4 -0.00452951
v -0.00119537 5.888E-4 -0.00411682
v -0.0 -5.4722995E-4 0.0012168
v 0.00183556 0.0018422399 4.2505996E-4
v 0.00183556 -3.388E-5 4.2505996E-4
v -0.0 0.00190933 0.0012168
v -0.00183556 0.0018422399 4.2505996E-4
v -0.0 -5.4722995E-4 0.0012168
v -0.00183556 -3.388E-5 4.2505996E-4
v -0.0 0.00190933 0.0012168
v 0.00183556 -3.388E-5 4.2505996E-4
v -0.0 -5.3073E-4 8.3880994E-4
v -0.0 -5.4722995E-4 0.0012168
v 0.00156314 -1.62E-4 2.7934E-4
v -0.00183556 -3.388E-5 4.2505996E-4
v -0.00156314 -1.62E-4 2.7934E-4
v 0.00119537 -0.00148165 -0.00411682
v -0.00119537 -0.00148165 -0.00411682
v -0.0014394 -4.5125998E-4 -6.7675003E-4
v -0.0 -0.00198634 -0.00452951
v 0.0014394 -4.5125998E-4 -6.7675003E-4
v -0.0 -8.1997993E-4 -0.00123292
v 0.00119537 -0.00148165 -0.00411682
v 0.0014394 -4.5125998E-4 -6.7675003E-4
v 0.00156314 -1.62E-4 2.7934E-4
v -0.0 -8.1997993E-4 -0.00123292
v 0.00138989 -2.1500001E-4 -7.3022995E-4
v 0.0014394 -4.5125998E-4 -6.7675003E-4
v -0.0 -5.8372E-4 -0.0012863999
v -0.00138989 -2.1500001E-4 -7.3022995E-4
v -0.0014394 -4.5125998E-4 -6.7675003E-4
v 0.00150581 7.425E-5 2.2585999E-4
v 0.00156314 -1.62E-4 2.7934E-4
v -0.00150581 7.425E-5 2.2585999E-4
v -0.00156314 -1.62E-4 2.7934E-4
v -0.00150581 7.425E-5 2.2585999E-4
v -0.00138989 -2.1500001E-4 -7.3022995E-4
v -0.0 -2.9447E-4 7.8534E-4
v -0.0 -5.3073E-4 8.3880994E-4
v -0.00150581 7.425E-5 2.2585999E-4
v 0.00150581 7.425E-5 2.2585999E-4
v -0.0 -2.9447E-4 7.8534E-4
v -0.0 -5.8372E-4 -0.0012863999
v 0.00150581 7.425E-5 2.2585999E-4
v 0.00138989 -2.1500001E-4 -7.3022995E-4
v -0.0 -2.9447E-4 7.8534E-4
v -0.00150581 7.425E-5 2.2585999E-4
v -0.00150581 7.425E-5 2.2585999E-4
v -0.00138989 -2.1500001E-4 -7.3022995E-4
v 0.00183556 -3.388E-5 4.2505996E-4
v 0.00119537 5.888E-4 -0.00411682
v 0.00119537 -0.00148165 -0.00411682
v 0.00183556 0.0018422399 4.2505996E-4
v -0.00119537 5.888E-4 -0.00411682
v -0.00183556 -3.388E-5 4.2505996E-4
v -0.00119537 -0.00148165 -0.00411682
v -0.00183556 0.0018422399 4.2505996E-4
v 0.00200581 -9.890999E-5 3.4216998E-4
v 0.00328366 1.8296999E-4 4.1831E-4
v 0.0019207799 -2.7507E-4 -2.4859E-4
v 0.00252565 7.689E-5 5.5525E-4
v 0.00150222 0.00199491 0.00757581
v 0.0010760099 0.0017281 0.0069451598
v 0.00150222 0.00199491 0.00757581
v -0.0 0.0017702199 0.00769162
v -0.0 0.0015494099 0.0069474396
v -0.0010760099 0.0017281 0.0069451598
v -0.00150222 0.00199491 0.00757581
v -0.00150222 0.00199491 0.00757581
v -0.00252565 7.689E-5 5.5525E-4
v -0.00328366 1.8296999E-4 4.1831E-4
v -0.00200581 -9.890999E-5 3.4216998E-4
v -0.0019207799 -2.7507E-4 -2.4859E-4
v -0.00150222 0.00199491 0.00757581
v 0.0010760099 0.0017281 0.0069451598
v -0.0 0.0018818999 0.0068497
v -0.0 0.0015494099 0.0069474396
v 0.00101243 0.0020605898 0.0068474296
v -0.0010760099 0.0017281 0.0069451598
v -0.00101243 0.0020605898 0.0068474296
v -0.0 0.0017702199 0.00769162
v 0.00143864 0.0023274 0.0074780798
v 0.00150222 0.00199491 0.00757581
v -0.0 0.0021027 0.0075938897
v -0.00143864 0.0023274 0.0074780798
v -0.0 0.0017702199 0.00769162
v -0.00150222 0.00199491 0.00757581
v 0.00252565 7.689E-5 5.5525E-4
v 0.00101243 0.0020605898 0.0068474296
v 0.0010760099 0.0017281 0.0069451598
v 0.00246207 4.0936997E-4 4.5751E-4
v -0.00101243 0.0020605898 0.0068474296
v -0.00252565 7.689E-5 5.5525E-4
v -0.0010760099 0.0017281 0.0069451598
v -0.00246207 4.0936997E-4 4.5751E-4
v 0.00150222 0.00199491 0.00757581
v 0.0032200802 5.1546E-4 3.2057E-4
v 0.00328366 1.8296999E-4 4.1831E-4
v 0.00143864 0.0023274 0.0074780798
v -0.0032200802 5.1546E-4 3.2057E-4
v -0.00150222 0.00199491 0.00757581
v -0.00328366 1.8296999E-4 4.1831E-4
v -0.0032200802 5.1546E-4 3.2057E-4
v -0.00143864 0.0023274 0.0074780798
v 0.0019207799 -2.7507E-4 -2.4859E-4
v 0.00194222 2.3358E-4 2.4443E-4
v 0.00200581 -9.890999E-5 3.4216998E-4
v 0.0018571899 5.741E-5 -3.4632E-4
v -0.00194222 2.3358E-4 2.4443E-4
v -0.0019207799 -2.7507E-4 -2.4859E-4
v -0.00200581 -9.890999E-5 3.4216998E-4
v -0.0018571899 5.741E-5 -3.4632E-4
v 0.00200581 -9.890999E-5 3.4216998E-4
v 0.00246207 4.0936997E-4 4.5751E-4
v 0.00252565 7.689E-5 5.5525E-4
v 0.00194222 2.3358E-4 2.4443E-4
v -0.00246207 4.0936997E-4 4.5751E-4
v -0.00200581 -9.890999E-5 3.4216998E-4
v -0.00252565 7.689E-5 5.5525E-4
v -0.00194222 2.3358E-4 2.4443E-4
v 0.00328366 1.8296999E-4 4.1831E-4
v 0.0018571899 5.741E-5 -3.4632E-4
v 0.0019207799 -2.7507E-4 -2.4859E-4
v 0.0032200802 5.1546E-4 3.2057E-4
v -0.0018571899 5.741E-5 -3.4632E-4
v -0.00328366 1.8296999E-4 4.1831E-4
v -0.0019207799 -2.7507E-4 -2.4859E-4
v -0.0032200802 5.1546E-4 3.2057E-4
v 0.00101243 0.0020605898 0.0068474296
v -0.0 0.0021027 0.0075938897
v -0.0 0.0018818999 0.0068497
v 0.00143864 0.0023274 0.0074780798
v -0.00101243 0.0020605898 0.0068474296
v -0.00143864 0.0023274 0.0074780798
v 0.00246207 4.0936997E-4 4.5751E-4
v -0.00143864 0.0023274 0.0074780798
v -0.00246207 4.0936997E-4 4.5751E-4
v 0.00246207 4.0936997E-4 4.5751E-4
v 0.0032200802 5.1546E-4 3.2057E-4
v 0.00143864 0.0023274 0.0074780798
v 0.00194222 2.3358E-4 2.4443E-4
v 0.00194222 2.3358E-4 2.4443E-4
v 0.0018571899 5.741E-5 -3.4632E-4
v -0.00143864 0.0023274 0.0074780798
v -0.0032200802 5.1546E-4 3.2057E-4
v -0.00246207 4.0936997E-4 4.5751E-4
v -0.00194222 2.3358E-4 2.4443E-4
v -0.0018571899 5.741E-5 -3.4632E-4
v -0.00194222 2.3358E-4 2.4443E-4
vn 0.32633582 0.0 -0.94525385
vn -0.0 0.0 -1.0
vn -0.0 0.0 -1.0
vn 0.32633582 0.0 -0.94525385
vn -0.0 0.0 -1.0
vn -0.0 0.0 -1.0
vn -0.32633582 0.0 -0.94525385
vn -0.0 0.0 -1.0
vn -0.32633582 0.0 -0.94525385
vn 0.39604723 0.0 0.9182301
vn 0.39604723 0.0 0.9182301
vn 0.39604723 0.0 0.9182301
vn 0.39604723 0.0 0.9182301
vn -0.39604723 0.0 0.9182301
vn -0.39604723 0.0 0.9182301
vn -0.39604723 0.0 0.9182301
vn -0.39604723 0.0 0.9182301
vn 0.270581 -0.9490478 0.16153681
vn -0.0 -0.9979107 0.06460875
vn -0.0 -0.9979107 0.06460875
vn 0.2707383 -0.9495221 0.15845713
vn -0.270581 -0.9490478 0.16153681
vn -0.2707383 -0.9495221 0.15845713
vn 0.20228106 -0.93355095 0.2959139
vn -0.20228106 -0.93355095 0.2959139
vn -0.24815305 -0.9310546 0.26750234
vn -0.0 -0.9528869 0.30332586
vn 0.24815305 -0.9310546 0.26750234
vn -0.0 -0.9528869 0.30332586
vn 0.20228106 -0.93355095 0.2959139
vn 0.24815305 -0.9310546 0.26750234
vn 0.2707383 -0.9495221 0.15845713
vn -0.0 0.17734633 0.9841485
vn -0.7863343 -0.010376622 0.6177141
vn -0.78370637 -0.008820092 0.62106884
vn -0.0 0.17734633 0.9841485
vn 0.7863343 -0.010376622 0.6177141
vn 0.78370637 -0.008820092 0.62106884
vn -0.8271195 -0.27840245 -0.48822674
vn -0.8188239 -0.27918753 -0.5015793
vn 0.8271195 -0.27840245 -0.48822674
vn 0.8188239 -0.27918753 -0.5015793
vn 0.8271195 -0.27840245 -0.48822674
vn 0.7863343 -0.010376622 0.6177141
vn -0.0 -0.25425893 -0.96713626
vn -0.0 -0.25425893 -0.96713626
vn 0.8271195 -0.27840245 -0.48822674
vn -0.8271195 -0.27840245 -0.48822674
vn -0.0 -0.25425893 -0.96713626
vn -0.0 -0.9839611 0.17838319
vn 0.24324156 -0.9544103 0.17301586
vn 0.24324156 -0.9544103 0.17301586
vn -0.0 -0.9839611 0.17838319
vn -0.24324156 -0.9544103 0.17301586
vn -0.24324156 -0.9544103 0.17301586
vn -0.24324156 -0.9544103 0.17301586
vn 0.99021333 0.0 -0.13956252
vn 0.99021333 0.0 -0.13956252
vn 0.99021333 0.0 -0.13956252
vn 0.99021333 0.0 -0.13956252
vn -0.99021333 0.0 -0.13956252
vn -0.99021333 0.0 -0.13956252
vn -0.99021333 0.0 -0.13956252
vn -0.99021333 0.0 -0.13956252
vn 0.19218129 -0.9438765 0.26863265
vn 0.18326542 -0.94284797 0.27830097
vn 0.19218129 -0.9438765 0.26863265
vn 0.18634881 -0.9432191 0.2749759
vn 0.16861922 -0.94374865 0.28444
vn 0.17005248 -0.94352883 0.28431603
vn 0.16861922 -0.94374865 0.28444
vn -0.0 -0.9573326 0.2889882
vn -0.0 -0.9573326 0.2889882
vn -0.17005248 -0.94352883 0.28431603
vn -0.16861922 -0.94374865 0.28444
vn -0.16861922 -0.94374865 0.28444
vn -0.18634881 -0.9432191 0.2749759
vn -0.18326542 -0.94284797 0.27830097
vn -0.19218129 -0.9438765 0.26863265
vn -0.19218129 -0.9438765 0.26863265
vn -0.16861922 -0.94374865 0.28444
vn 0.04541266 -0.27772525 -0.95958656
vn -0.0 -0.27799657 -0.960582
vn -0.0 -0.27799657 -0.960582
vn 0.04541266 -0.27772525 -0.95958656
vn -0.04541266 -0.27772525 -0.95958656
vn -0.04541266 -0.27772525 -0.95958656
vn -0.0 0.28483534 0.95857644
vn 0.03195359 0.28468305 0.95808905
vn 0.03195359 0.28468305 0.95808905
vn -0.0 0.28483534 0.95857644
vn -0.03195359 0.28468305 0.95808905
vn -0.0 0.28483534 0.95857644
vn -0.03195359 0.28468305 0.95808905
vn -0.9601898 -0.23014402 -0.15833275
vn -0.9601898 -0.23014402 -0.15833275
vn -0.9601898 -0.23014402 -0.15833275
vn -0.9601898 -0.23014402 -0.15833275
vn 0.9601898 -0.23014402 -0.15833275
vn 0.9601898 -0.23014402 -0.15833275
vn 0.9601898 -0.23014402 -0.15833275
vn 0.9601898 -0.23014402 -0.15833275
vn 0.95547813 0.23512328 0.17826517
vn 0.95547813 0.23512328 0.17826517
vn 0.95547813 0.23512328 0.17826517
vn 0.95547813 0.23512328 0.17826517
vn -0.95547813 0.23512328 0.17826517
vn -0.95547813 0.23512328 0.17826517
vn -0.95547813 0.23512328 0.17826517
vn -0.95547813 0.23512328 0.17826517
vn -0.95547813 0.23512328 0.17826517
vn -0.9745636 -0.13342912 0.18006216
vn -0.9745636 -0.13342912 0.18006216
vn -0.9745636 -0.13342912 0.18006216
vn -0.9745636 -0.13342912 0.18006216
vn 0.9745636 -0.13342912 0.18006216
vn 0.9745636 -0.13342912 0.18006216
vn 0.9745636 -0.13342912 0.18006216
vn 0.9745636 -0.13342912 0.18006216
vn -0.42449924 0.17966978 0.8874228
vn -0.42449924 0.17966978 0.8874228
vn -0.42449924 0.17966978 0.8874228
vn -0.42449924 0.17966978 0.8874228
vn 0.42449924 0.17966978 0.8874228
vn 0.42449924 0.17966978 0.8874228
vn 0.42449924 0.17966978 0.8874228
vn 0.42449924 0.17966978 0.8874228
vn 0.47723204 -0.16257691 -0.86360776
vn 0.47723204 -0.16257691 -0.86360776
vn 0.47723204 -0.16257691 -0.86360776
vn 0.47723204 -0.16257691 -0.86360776
vn -0.47723204 -0.16257691 -0.86360776
vn -0.47723204 -0.16257691 -0.86360776
vn -0.47723204 -0.16257691 -0.86360776
vn -0.47723204 -0.16257691 -0.86360776
vn -0.17392877 0.9432256 -0.2829738
vn -0.0 0.958041 -0.28663105
vn -0.0 0.958041 -0.28663105
vn -0.1731668 0.94338363 -0.2829144
vn 0.17392877 0.9432256 -0.2829738
vn 0.1731668 0.94338363 -0.2829144
vn -0.18634881 0.9432191 -0.2749759
vn 0.1731668 0.94338363 -0.2829144
vn 0.18634881 0.9432191 -0.2749759
vn -0.18634881 0.9432191 -0.2749759
vn -0.18326542 0.94284797 -0.27830097
vn -0.1731668 0.94338363 -0.2829144
vn -0.19218129 0.9438765 -0.26863265
vn -0.19218129 0.9438765 -0.26863265
vn -0.19218129 0.9438765 -0.26863265
vn 0.1731668 0.94338363 -0.2829144
vn 0.18326542 0.94284797 -0.27830097
vn 0.18634881 0.9432191 -0.2749759
vn 0.19218129 0.9438765 -0.26863265
vn 0.19218129 0.9438765 -0.26863265
vn 0.19218129 0.9438765 -0.26863265
vt 0.508679 0.823539
vt 0.470829 0.946701
vt 0.468148 0.84199
vt 0.637801 0.896255
vt 0.470829 0.946701
vt 0.470829 0.946701
vt 0.426727 0.825638
vt 0.470829 0.946701
vt 0.301495 0.904865
vt 0.463249 0.65064096
vt 0.620768 0.563836
vt 0.537403 0.656056
vt 0.458969 0.48346698
vt 0.301495 0.57201004
vt 0.463249 0.65064096
vt 0.389469 0.65984404
vt 0.458969 0.48346698
vt 0.592035 0.256432
vt 0.482953 0.17611003
vt 0.493341 0.151999
vt 0.567576 0.25702298
vt 0.349651 0.151999
vt 0.366022 0.17018199
vt 0.422767 0.48265702
vt 0.301495 0.43040597
vt 0.354551 0.24360698
vt 0.350526 0.48346698
vt 0.52209 0.31579202
vt 0.42588 0.30857402
vt 0.422767 0.48265702
vt 0.52209 0.31579202
vt 0.567576 0.25702298
vt 0.656392 0.48346698
vt 0.748348 0.46783102
vt 0.755891 0.48346698
vt 0.662899 0.469415
vt 0.608839 0.40322298
vt 0.592035 0.407584
vt 0.777858 0.42574102
vt 0.799558 0.426336
vt 0.621852 0.35349202
vt 0.607362 0.337327
vt 0.621852 0.35349202
vt 0.608839 0.40322298
vt 0.719362 0.347494
vt 0.726753 0.33153403
vt 0.621852 0.35349202
vt 0.777858 0.42574102
vt 0.719362 0.347494
vt 0.662899 0.469415
vt 0.777858 0.42574102
vt 0.748348 0.46783102
vt 0.719362 0.347494
vt 0.621852 0.35349202
vt 0.621852 0.35349202
vt 0.608839 0.40322298
vt 0.537403 0.656056
vt 0.637801 0.896255
vt 0.508679 0.823539
vt 0.620768 0.563836
vt 0.301495 0.904865
vt 0.389469 0.65984404
vt 0.426727 0.825638
vt 0.301495 0.57201004
vt 0.093548 0.94038403
vt 0.121828 0.863576
vt 0.140098 0.966184
vt 0.089783 0.890178
vt 0.106979 0.598144
vt 0.058364 0.61013603
vt 0.106979 0.598144
vt 0.094705 0.501057
vt 0.027984 0.50461996
vt 0.046957 0.396474
vt 0.096568 0.40321898
vt 0.096568 0.40321898
vt 0.048368 0.11473298
vt 0.083057 0.13776398
vt 0.046763 0.06442201
vt 0.09029 0.03381598
vt 0.096568 0.40321898
vt 0.214098 0.601201
vt 0.18806 0.496069
vt 0.222418 0.494232
vt 0.181278 0.599326
vt 0.202739 0.388766
vt 0.17031 0.39412802
vt 0.094705 0.501057
vt 0.132843 0.59516096
vt 0.106979 0.598144
vt 0.125272 0.49942398
vt 0.1226 0.40342999
vt 0.094705 0.501057
vt 0.096568 0.40321898
vt 0.222419 0.890246
vt 0.181278 0.599326
vt 0.214098 0.601201
vt 0.186211 0.882686
vt 0.17031 0.39412802
vt 0.180214 0.10053599
vt 0.202739 0.388766
vt 0.145025 0.11190802
vt 0.106979 0.598144
vt 0.148785 0.86091
vt 0.121828 0.863576
vt 0.132843 0.59516096
vt 0.11014 0.13754302
vt 0.096568 0.40321898
vt 0.083057 0.13776398
vt 0.11014 0.13754302
vt 0.1226 0.40342999
vt 0.140098 0.966184
vt 0.178067 0.925411
vt 0.197899 0.94606197
vt 0.155484 0.931404
vt 0.132378 0.07030302
vt 0.09029 0.03381598
vt 0.149893 0.04766202
vt 0.109289 0.06675202
vt 0.197899 0.94606197
vt 0.186211 0.882686
vt 0.222419 0.890246
vt 0.178067 0.925411
vt 0.145025 0.11190802
vt 0.149893 0.04766202
vt 0.180214 0.10053599
vt 0.132378 0.07030302
vt 0.121828 0.863576
vt 0.155484 0.931404
vt 0.140098 0.966184
vt 0.148785 0.86091
vt 0.109289 0.06675202
vt 0.083057 0.13776398
vt 0.09029 0.03381598
vt 0.11014 0.13754302
vt 0.181278 0.599326
vt 0.125272 0.49942398
vt 0.18806 0.496069
vt 0.132843 0.59516096
vt 0.17031 0.39412802
vt 0.1226 0.40342999
vt 0.186211 0.882686
vt 0.1226 0.40342999
vt 0.145025 0.11190802
vt 0.186211 0.882686
vt 0.148785 0.86091
vt 0.132843 0.59516096
vt 0.178067 0.925411
vt 0.178067 0.925411
vt 0.155484 0.931404
vt 0.1226 0.40342999
vt 0.11014 0.13754302
vt 0.145025 0.11190802
vt 0.132378 0.07030302
vt 0.109289 0.06675202
vt 0.132378 0.07030302

g Detection_Slowdown
s 1
usemtl Detection_Slowdown
f 3/3/3 2/2/2 1/1/1 
f 5/5/5 4/4/4 1/1/1 
f 3/3/3 7/7/7 6/6/6 
f 7/7/7 9/9/9 8/8/8 
f 12/12/12 11/11/11 10/10/10 
f 11/11/11 13/13/13 10/10/10 
f 16/16/16 15/15/15 14/14/14 
f 15/15/15 17/17/17 14/14/14 
f 20/20/20 19/19/19 18/18/18 
f 19/19/19 21/21/21 18/18/18 
f 20/20/20 22/22/22 19/19/19 
f 22/22/22 23/23/23 19/19/19 
f 18/18/18 21/21/21 24/24/24 
f 22/22/22 25/25/25 23/23/23 
f 25/25/25 26/26/26 23/23/23 
f 25/25/25 27/27/27 26/26/26 
f 24/24/24 28/28/28 27/27/27 
f 28/28/28 29/29/29 27/27/27 
f 27/27/27 29/29/29 26/26/26 
f 32/32/32 31/31/31 30/30/30 
f 35/35/35 34/34/34 33/33/33 
f 34/34/34 36/36/36 33/33/33 
f 33/33/33 36/36/36 37/37/37 
f 38/38/38 33/33/33 37/37/37 
f 39/39/39 34/34/34 35/35/35 
f 40/40/40 39/39/39 35/35/35 
f 42/42/42 38/38/38 41/41/41 
f 38/38/38 44/44/44 43/43/43 
f 46/46/46 45/45/45 40/40/40 
f 46/46/46 42/42/42 45/45/45 
f 42/42/42 47/47/47 45/45/45 
f 49/49/49 48/48/48 40/40/40 
f 52/52/52 51/51/51 50/50/50 
f 51/51/51 53/53/53 50/50/50 
f 50/50/50 53/53/53 54/54/54 
f 56/56/56 50/50/50 55/55/55 
f 59/59/59 58/58/58 57/57/57 
f 58/58/58 60/60/60 57/57/57 
f 63/63/63 62/62/62 61/61/61 
f 62/62/62 64/64/64 61/61/61 
f 67/67/67 66/66/66 65/65/65 
f 66/66/66 68/68/68 65/65/65 
f 66/66/66 69/69/69 68/68/68 
f 71/71/71 70/70/70 68/68/68 
f 71/71/71 72/72/72 70/70/70 
f 72/72/72 73/73/73 70/70/70 
f 74/74/74 73/73/73 72/72/72 
f 75/75/75 74/74/74 72/72/72 
f 77/77/77 74/74/74 76/76/76 
f 79/79/79 77/77/77 78/78/78 
f 80/80/80 79/79/79 78/78/78 
f 78/78/78 77/77/77 81/81/81 
f 84/84/84 83/83/83 82/82/82 
f 83/83/83 85/85/85 82/82/82 
f 84/84/84 86/86/86 83/83/83 
f 86/86/86 87/87/87 83/83/83 
f 90/90/90 89/89/89 88/88/88 
f 89/89/89 91/91/91 88/88/88 
f 88/88/88 91/91/91 92/92/92 
f 94/94/94 93/93/93 92/92/92 
f 97/97/97 96/96/96 95/95/95 
f 96/96/96 98/98/98 95/95/95 
f 101/101/101 100/100/100 99/99/99 
f 100/100/100 102/102/102 99/99/99 
f 105/105/105 104/104/104 103/103/103 
f 104/104/104 106/106/106 103/103/103 
f 109/109/109 108/108/108 107/107/107 
f 108/108/108 111/111/111 110/110/110 
f 114/114/114 113/113/113 112/112/112 
f 113/113/113 115/115/115 112/112/112 
f 118/118/118 117/117/117 116/116/116 
f 117/117/117 119/119/119 116/116/116 
f 122/122/122 121/121/121 120/120/120 
f 121/121/121 123/123/123 120/120/120 
f 126/126/126 125/125/125 124/124/124 
f 125/125/125 127/127/127 124/124/124 
f 130/130/130 129/129/129 128/128/128 
f 129/129/129 131/131/131 128/128/128 
f 134/134/134 133/133/133 132/132/132 
f 133/133/133 135/135/135 132/132/132 
f 138/138/138 137/137/137 136/136/136 
f 137/137/137 139/139/139 136/136/136 
f 138/138/138 140/140/140 137/137/137 
f 140/140/140 141/141/141 137/137/137 
f 136/136/136 139/139/139 142/142/142 
f 140/140/140 144/144/144 143/143/143 
f 147/147/147 146/146/146 145/145/145 
f 145/145/145 146/146/146 148/148/148 
f 146/146/146 150/150/150 149/149/149 
f 153/153/153 152/152/152 151/151/151 
f 153/153/153 154/154/154 152/152/152 
f 156/156/156 155/155/155 152/152/152 

