# Created by DisUnity v0.3.4
v -3.7002E-4 0.00314002 -6.996E-4
v 1.7447E-4 -0.00208523 9.9028E-4
v -3.7000998E-4 0.00314002 6.996E-4
v 1.7447E-4 -0.00208523 -9.9028E-4
v -0.00155369 0.0031265898 -0.00118583
v -0.00150244 -0.00210636 -0.00167851
v -6.4140995E-4 0.00134088 0.00153428
v -0.0015214001 0.00135847 0.0020205
v -0.00155369 0.0031265898 0.00118582
v -3.0133E-4 -0.00171406 0.00182495
v -0.0014947299 -0.00170113 0.0025131898
v -0.00234805 0.00134088 0.00153428
v -0.0026881301 -0.00171406 0.00182495
v -0.0031639298 -0.00208523 9.9028E-4
v -0.00261945 0.00314002 6.996E-4
v -0.00261945 0.00314002 -6.996E-4
v -0.0031639298 -0.00208523 -9.9028E-4
v -0.00155369 0.0031265898 -0.00118583
v -0.00150244 -0.00210636 -0.00167851
v -3.7002E-4 0.00314002 -6.996E-4
v -0.00155369 0.0031265898 0.00118582
v -0.00155369 0.0031265898 -0.00118583
v -3.7000998E-4 0.00314002 6.996E-4
v -0.00261945 0.00314002 -6.996E-4
v -0.00261945 0.00314002 6.996E-4
v 1.7447E-4 -0.00208523 9.9028E-4
v -0.00150244 -0.00210636 0.0012334799
v -0.00150244 -0.00210636 0.00167851
v -1.6739E-4 -0.00208954 7.2772003E-4
v 1.7447E-4 -0.00208523 -9.9028E-4
v -1.6739E-4 -0.00208954 -7.2772003E-4
v -0.00150244 -0.00210636 -0.00167851
v -0.00150244 -0.00210636 -0.0012334799
v -0.0031639298 -0.00208523 9.9028E-4
v -0.0028220701 -0.00208954 7.2772003E-4
v -0.0031639298 -0.00208523 -9.9028E-4
v -0.0031639298 -0.00208523 -9.9028E-4
v -0.0028220701 -0.00208954 -7.2772003E-4
v -0.00150244 -0.00210636 -0.00167851
v -0.00150244 -0.00210636 -0.0012334799
v -1.6739E-4 -0.00208954 -7.2772003E-4
v -1.5968E-4 -0.00158222 7.2772003E-4
v -1.6739E-4 -0.00208954 7.2772003E-4
v -1.5968E-4 -0.00158222 -7.2772003E-4
v -1.5968E-4 -0.00158222 7.2772003E-4
v -0.00150244 -0.00210636 -0.0012334799
v -1.5968E-4 -0.00158222 -7.2772003E-4
v -0.0014947299 -0.00159904 -0.0012334799
v -0.0028297799 -0.00158222 -7.2772003E-4
v -0.0028220701 -0.00208954 -7.2772003E-4
v -0.0028297799 -0.00158222 7.2772003E-4
v -0.0014947299 -0.00159904 0.0012334799
v -0.00150244 -0.00210636 0.0012334799
v -1.5968E-4 -0.00158222 7.2772003E-4
v -0.0028220701 -0.00208954 7.2772003E-4
v -0.0028297799 -0.00158222 7.2772003E-4
v -1.5968E-4 -0.00158222 7.2772003E-4
v -0.0014947299 -0.00159904 -0.0012334799
v -0.0014947299 -0.00159904 0.0012334799
v -1.5968E-4 -0.00158222 -7.2772003E-4
v -0.0028297799 -0.00158222 7.2772003E-4
v -0.0028297799 -0.00158222 -7.2772003E-4
v -0.00150244 -0.00210636 0.00167851
v -3.0133E-4 -0.00171406 0.00182495
v 1.7447E-4 -0.00208523 9.9028E-4
v -0.0014947299 -0.00170113 0.0025131898
v -0.0026881301 -0.00171406 0.00182495
v -0.0031639298 -0.00208523 9.9028E-4
v -0.00169432 -0.00224927 -0.00207184
v -0.00169432 0.0026710199 -0.0026372399
v -0.00169432 0.00199815 -0.0021510199
v -0.00169432 -0.00199417 -0.00243117
v -0.00169432 0.00199815 -0.0014689399
v -0.00169432 0.0026710199 -0.0026372399
v -0.00169432 0.0026710199 -0.00140728
v -0.00169432 0.0026710199 -0.0026372399
v -0.00139016 0.0026710199 -0.00140728
v -0.00169432 0.0026710199 -0.00140728
v -0.00139016 0.0026710199 -0.0026372399
v -0.00169432 0.00199815 -0.0014689399
v -0.00139016 0.00199815 -0.0021510199
v -0.00169432 0.00199815 -0.0021510199
v -0.00139016 0.00199815 -0.0014689399
v -0.00169432 0.00199815 -0.0021510199
v -0.00139016 -0.00224927 -0.00207184
v -0.00169432 -0.00224927 -0.00207184
v -0.00169432 0.00199815 -0.0021510199
v -0.00139016 0.00199815 -0.0021510199
v -0.00169432 -0.00224927 -0.00207184
v -0.00139016 -0.00199417 -0.00243117
v -0.00169432 -0.00199417 -0.00243117
v -0.00169432 -0.00224927 -0.00207184
v -0.00139016 -0.00224927 -0.00207184
v -0.00139016 -0.00199417 -0.00243117
v -0.00169432 -0.00199417 -0.00243117
v -0.00139016 0.0026710199 -0.0026372399
v -0.00169432 0.0026710199 -0.0026372399
v -0.00139016 -0.00199417 -0.00243117
v -0.00139016 0.0026710199 -0.0026372399
v -0.00139016 -0.00224927 -0.00207184
v -0.00139016 0.00199815 -0.0021510199
v -0.00139016 -0.00199417 -0.00243117
v -0.00139016 0.00199815 -0.0014689399
v -0.00139016 0.0026710199 -0.0026372399
v -0.00139016 0.00199815 -0.0021510199
v -0.00139016 0.0026710199 -0.00140728
v -0.00139016 0.00199815 -0.0014689399
v -0.0012218499 0.00288791 -0.00137316
v -0.00139016 0.0026710199 -0.00140728
v -0.0012218499 0.00174081 -0.00150306
v -0.00169432 0.00199815 -0.0014689399
v -0.0018626299 0.00174081 -0.00150306
v -0.00169432 0.0026710199 -0.00140728
v -0.0018626299 0.00288791 -0.00137316
v -0.00139016 0.0026710199 -0.00140728
v -0.0018626299 0.00288791 -0.00137316
v -0.00169432 0.0026710199 -0.00140728
v -0.0012218499 0.00288791 -0.00137316
v -0.0018626299 0.00288791 -0.00137316
v -0.0018626299 0.0017149999 -0.00109899
v -0.0018626299 0.00174081 -0.00150306
v -0.0018626299 0.00288791 -0.00137316
v -0.0018626299 0.0028620898 -9.691E-4
v -0.0012218499 0.00288791 -0.00137316
v -0.0018626299 0.0028620898 -9.691E-4
v -0.0018626299 0.00288791 -0.00137316
v -0.0012218499 0.0028620898 -9.691E-4
v -0.0018626299 0.00174081 -0.00150306
v -0.0012218499 0.0017149999 -0.00109899
v -0.0012218499 0.00174081 -0.00150306
v -0.0018626299 0.00174081 -0.00150306
v -0.0018626299 0.0017149999 -0.00109899
v -0.0012218499 0.0017149999 -0.00109899
v -0.0012218499 0.00174081 -0.00150306
v -0.0012218499 0.0028620898 -9.691E-4
v -0.0012218499 0.00288791 -0.00137316
v -0.0012218499 0.0017149999 -0.00109899
v -0.0012218499 0.0028620898 -9.691E-4
vn 0.82337224 0.11664363 -0.5553848
vn 0.9670939 0.117621176 0.22559828
vn 0.8633855 0.23835422 0.44469386
vn 0.8253943 0.11667525 -0.5523687
vn -0.011383685 0.09622724 -0.9952943
vn -0.0060122106 0.09622589 -0.9953413
vn 0.65283996 0.21192653 0.7272462
vn -0.009796668 0.27137682 0.9624233
vn -0.023164185 0.39507297 0.9183577
vn 0.7211632 0.13703017 0.6790776
vn -0.002868798 0.1581196 0.98741585
vn -0.66257924 0.20567119 0.7202001
vn -0.7246573 0.13480505 0.6757954
vn -0.9670939 0.117621176 0.22559828
vn -0.8709262 0.22938225 0.43459332
vn -0.8288021 0.11395762 -0.5478145
vn -0.83021986 0.11399005 -0.54565674
vn -0.011383685 0.09622724 -0.9952943
vn -0.0060122106 0.09622589 -0.9953413
vn -0.011322677 0.99993587 0.0
vn 4.272721E-4 0.9999999 0.0
vn 4.272721E-4 0.9999999 0.0
vn -0.011322677 0.99993587 0.0
vn 0.012573783 0.99992096 0.0
vn 0.012573783 0.99992096 0.0
vn 0.012573783 -0.99992096 0.0
vn -6.103702E-5 -1.0 0.0
vn -3.051851E-5 -1.0 0.0
vn 0.012573783 -0.99992096 0.0
vn 0.012573783 -0.99992096 0.0
vn 0.012573783 -0.99992096 0.0
vn -3.051851E-5 -1.0 0.0
vn -6.103702E-5 -1.0 0.0
vn -0.012634812 -0.99992025 0.0
vn -0.012634812 -0.99992025 0.0
vn -0.012634812 -0.99992025 0.0
vn -0.012634812 -0.99992025 0.0
vn -0.012634812 -0.99992025 0.0
vn -3.051851E-5 -1.0 0.0
vn -6.103702E-5 -1.0 0.0
vn -0.81959116 0.012451804 0.57281345
vn -0.8260738 0.012543553 -0.5634222
vn -0.81959116 0.012451804 -0.57281345
vn -0.8260738 0.012543553 0.5634222
vn -0.8260738 0.012543553 -0.5634222
vn 0.0043642214 0.00283827 0.9999865
vn -0.8260738 0.012543553 0.5634222
vn -0.0024720568 0.0028993257 0.9999927
vn 0.8266183 0.009277903 0.56268644
vn 0.8201445 0.009125263 0.57208383
vn 0.8266183 0.009277903 -0.56268644
vn -0.0024720568 0.0028993257 -0.9999927
vn 0.0043642214 0.00283827 -0.9999865
vn -0.8260738 0.012543553 -0.5634222
vn 0.8201445 0.009125263 -0.57208383
vn 0.8266183 0.009277903 -0.56268644
vn 0.012573783 -0.99992096 0.0
vn -0.0 -1.0 0.0
vn -0.0 -1.0 0.0
vn 0.012573783 -0.99992096 0.0
vn -0.012573783 -0.99992096 0.0
vn -0.012573783 -0.99992096 0.0
vn -0.0022279082 -0.8799322 0.4750938
vn 0.22395356 -0.8581834 0.46191564
vn 0.22395356 -0.8581834 0.46191564
vn 5.798607E-4 -0.8799539 0.47505856
vn -0.22608446 -0.85657567 0.46385765
vn -0.22608446 -0.85657567 0.46385765
vn -1.0 0.0 0.0
vn -1.0 0.0 0.0
vn -1.0 0.0 0.0
vn -1.0 0.0 0.0
vn -1.0 0.0 0.0
vn -1.0 0.0 0.0
vn -1.0 0.0 0.0
vn -0.0 1.0 0.0
vn -0.0 1.0 0.0
vn -0.0 1.0 0.0
vn -0.0 1.0 0.0
vn -0.0 -1.0 0.0
vn -0.0 -1.0 0.0
vn -0.0 -1.0 0.0
vn -0.0 -1.0 0.0
vn -0.0 0.018616475 0.9998267
vn -0.0 0.018616475 0.9998267
vn -0.0 0.018616475 0.9998267
vn -0.0 0.018616475 0.9998267
vn -0.0 0.018616475 0.9998267
vn -0.0 -0.81540865 -0.5788858
vn -0.0 -0.81540865 -0.5788858
vn -0.0 -0.81540865 -0.5788858
vn -0.0 -0.81540865 -0.5788858
vn -0.0 -0.81540865 -0.5788858
vn -0.0 -0.81540865 -0.5788858
vn -0.0 -0.044099413 -0.99902713
vn -0.0 -0.044099413 -0.99902713
vn -0.0 -0.044099413 -0.99902713
vn -0.0 -0.044099413 -0.99902713
vn 1.0 0.0 0.0
vn 1.0 0.0 0.0
vn 1.0 0.0 0.0
vn 1.0 0.0 0.0
vn 1.0 0.0 0.0
vn 1.0 0.0 0.0
vn 1.0 0.0 0.0
vn 1.0 0.0 0.0
vn 0.012573809 0.1046495 -0.99442965
vn 0.012573809 0.1046495 -0.99442965
vn 0.012573809 0.1046495 -0.99442965
vn 0.012573809 0.1046495 -0.99442965
vn -0.0 0.13141602 -0.99132735
vn -0.0 0.13141602 -0.99132735
vn -0.012573809 0.1046495 -0.99442965
vn -0.012573809 0.1046495 -0.99442965
vn -0.0 0.15537484 -0.9878556
vn -0.0 0.15537484 -0.9878556
vn -0.0 0.15537484 -0.9878556
vn -0.0 0.15537484 -0.9878556
vn -1.0 0.0 0.0
vn -1.0 0.0 0.0
vn -1.0 0.0 0.0
vn -1.0 0.0 0.0
vn -1.0 0.0 0.0
vn -0.0 0.9979657 0.063753836
vn -0.0 0.9979657 0.063753836
vn -0.0 0.9979657 0.063753836
vn -0.0 0.9979657 0.063753836
vn -0.0 -0.9979657 -0.063753836
vn -0.0 -0.9979657 -0.063753836
vn -0.0 -0.9979657 -0.063753836
vn -0.0 -0.9979657 -0.063753836
vn -0.0 -0.9979657 -0.063753836
vn -0.0 -0.9979657 -0.063753836
vn 1.0 0.0 0.0
vn 1.0 0.0 0.0
vn 1.0 0.0 0.0
vn 1.0 0.0 0.0
vn 1.0 0.0 0.0
vt 0.155028 0.952549
vt 0.344551 0.539746
vt 0.311455 0.968745
vt 0.196001 0.513286
vt 0.030968 0.944079
vt 0.046862 0.433572
vt 0.395488 0.778313
vt 0.475257 0.772399
vt 0.480773 0.970576
vt 0.40115 0.57601
vt 0.467873 0.58750904
vt 0.545969 0.775055
vt 0.537423 0.577061
vt 0.593375 0.54022
vt 0.632551 0.964483
vt 0.786869 0.94664
vt 0.741078 0.512596
vt 0.898944 0.93729
vt 0.886822 0.43282902
vt 0.780343 0.363742
vt 0.879632 0.205598
vt 0.879632 0.40452403
vt 0.780343 0.24638098
vt 0.969032 0.363742
vt 0.969032 0.24638098
vt 0.344551 0.539746
vt 0.469379 0.49695998
vt 0.469185 0.528924
vt 0.341574 0.508693
vt 0.196001 0.513286
vt 0.211057 0.479706
vt 0.046862 0.433572
vt 0.082925 0.40452403
vt 0.593375 0.54022
vt 0.596305 0.509115
vt 0.741078 0.512596
vt 0.741078 0.512596
vt 0.725767 0.479397
vt 0.886822 0.43282902
vt 0.850727 0.40452403
vt 0.348758 0.318223
vt 0.262246 0.197056
vt 0.298837 0.15613002
vt 0.282252 0.290931
vt 0.262246 0.197056
vt 0.198729 0.40452403
vt 0.282252 0.290931
vt 0.19127 0.34958202
vt 0.086731 0.320437
vt 0.030968 0.36638403
vt 0.078191 0.22465998
vt 0.163731 0.16640699
vt 0.156053 0.11993903
vt 0.262246 0.197056
vt 0.030968 0.19613498
vt 0.078191 0.22465998
vt 0.262246 0.197056
vt 0.19127 0.34958202
vt 0.163731 0.16640699
vt 0.282252 0.290931
vt 0.078191 0.22465998
vt 0.086731 0.320437
vt 0.469185 0.528924
vt 0.40115 0.57601
vt 0.344551 0.539746
vt 0.467873 0.58750904
vt 0.537423 0.577061
vt 0.593375 0.54022
vt 0.387884 0.398295
vt 0.676553 0.32981497
vt 0.662373 0.368061
vt 0.408878 0.36272103
vt 0.730916 0.398295
vt 0.676553 0.32981497
vt 0.766937 0.33341002
vt 0.676553 0.32981497
vt 0.767188 0.29700297
vt 0.766937 0.33341002
vt 0.673558 0.31005502
vt 0.721249 0.20637101
vt 0.652484 0.272313
vt 0.642653 0.22997802
vt 0.731667 0.23794198
vt 0.642653 0.22997802
vt 0.429758 0.293321
vt 0.361913 0.27532
vt 0.642653 0.22997802
vt 0.652484 0.272313
vt 0.361913 0.27532
vt 0.438873 0.31504297
vt 0.408878 0.36272103
vt 0.361913 0.27532
vt 0.429758 0.293321
vt 0.438873 0.31504297
vt 0.408878 0.36272103
vt 0.673558 0.31005502
vt 0.676553 0.32981497
vt 0.438873 0.31504297
vt 0.673558 0.31005502
vt 0.429758 0.293321
vt 0.652484 0.272313
vt 0.438873 0.31504297
vt 0.731667 0.23794198
vt 0.673558 0.31005502
vt 0.652484 0.272313
vt 0.767188 0.29700297
vt 0.849103 0.145926
vt 0.888464 0.14118803
vt 0.877652 0.14837402
vt 0.838646 0.13644701
vt 0.848011 0.15839899
vt 0.835514 0.16502601
vt 0.875685 0.16134298
vt 0.883397 0.16916502
vt 0.877652 0.14837402
vt 0.883397 0.16916502
vt 0.875685 0.16134298
vt 0.888464 0.14118803
vt 0.883397 0.16916502
vt 0.790675 0.205598
vt 0.835514 0.16502601
vt 0.883397 0.16916502
vt 0.92319 0.198987
vt 0.888464 0.14118803
vt 0.92319 0.198987
vt 0.883397 0.16916502
vt 0.92319 0.11580002
vt 0.835514 0.16502601
vt 0.780343 0.079290986
vt 0.838646 0.13644701
vt 0.835514 0.16502601
vt 0.790675 0.205598
vt 0.780343 0.079290986
vt 0.838646 0.13644701
vt 0.92319 0.11580002
vt 0.888464 0.14118803
vt 0.780343 0.079290986
vt 0.92319 0.11580002

g Time_Disruptor
s 1
usemtl Time_Disruptor
f 3/3/3 2/2/2 1/1/1 
f 2/2/2 4/4/4 1/1/1 
f 1/1/1 4/4/4 5/5/5 
f 4/4/4 6/6/6 5/5/5 
f 3/3/3 7/7/7 2/2/2 
f 8/8/8 7/7/7 3/3/3 
f 9/9/9 8/8/8 3/3/3 
f 7/7/7 10/10/10 2/2/2 
f 8/8/8 11/11/11 7/7/7 
f 11/11/11 10/10/10 7/7/7 
f 11/11/11 8/8/8 12/12/12 
f 13/13/13 11/11/11 12/12/12 
f 13/13/13 12/12/12 14/14/14 
f 12/12/12 15/15/15 14/14/14 
f 12/12/12 8/8/8 15/15/15 
f 8/8/8 9/9/9 15/15/15 
f 14/14/14 15/15/15 16/16/16 
f 17/17/17 14/14/14 16/16/16 
f 17/17/17 16/16/16 18/18/18 
f 19/19/19 17/17/17 18/18/18 
f 22/22/22 21/21/21 20/20/20 
f 21/21/21 23/23/23 20/20/20 
f 21/21/21 22/22/22 24/24/24 
f 25/25/25 21/21/21 24/24/24 
f 28/28/28 27/27/27 26/26/26 
f 27/27/27 29/29/29 26/26/26 
f 26/26/26 29/29/29 30/30/30 
f 29/29/29 31/31/31 30/30/30 
f 30/30/30 31/31/31 32/32/32 
f 31/31/31 33/33/33 32/32/32 
f 27/27/27 28/28/28 34/34/34 
f 35/35/35 27/27/27 34/34/34 
f 35/35/35 34/34/34 36/36/36 
f 38/38/38 35/35/35 37/37/37 
f 38/38/38 37/37/37 39/39/39 
f 40/40/40 38/38/38 39/39/39 
f 43/43/43 42/42/42 41/41/41 
f 45/45/45 44/44/44 41/41/41 
f 41/41/41 47/47/47 46/46/46 
f 47/47/47 48/48/48 46/46/46 
f 48/48/48 49/49/49 46/46/46 
f 49/49/49 50/50/50 46/46/46 
f 49/49/49 51/51/51 50/50/50 
f 53/53/53 52/52/52 43/43/43 
f 52/52/52 54/54/54 43/43/43 
f 51/51/51 52/52/52 55/55/55 
f 52/52/52 53/53/53 55/55/55 
f 56/56/56 55/55/55 50/50/50 
f 59/59/59 58/58/58 57/57/57 
f 58/58/58 60/60/60 57/57/57 
f 58/58/58 59/59/59 61/61/61 
f 62/62/62 58/58/58 61/61/61 
f 65/65/65 64/64/64 63/63/63 
f 64/64/64 66/66/66 63/63/63 
f 66/66/66 67/67/67 63/63/63 
f 67/67/67 68/68/68 63/63/63 
f 71/71/71 70/70/70 69/69/69 
f 70/70/70 72/72/72 69/69/69 
f 71/71/71 73/73/73 70/70/70 
f 73/73/73 75/75/75 74/74/74 
f 78/78/78 77/77/77 76/76/76 
f 77/77/77 79/79/79 76/76/76 
f 82/82/82 81/81/81 80/80/80 
f 81/81/81 83/83/83 80/80/80 
f 86/86/86 85/85/85 84/84/84 
f 85/85/85 88/88/88 87/87/87 
f 91/91/91 90/90/90 89/89/89 
f 94/94/94 93/93/93 92/92/92 
f 97/97/97 96/96/96 95/95/95 
f 96/96/96 98/98/98 95/95/95 
f 101/101/101 100/100/100 99/99/99 
f 100/100/100 102/102/102 99/99/99 
f 105/105/105 104/104/104 103/103/103 
f 104/104/104 106/106/106 103/103/103 
f 109/109/109 108/108/108 107/107/107 
f 108/108/108 110/110/110 107/107/107 
f 107/107/107 110/110/110 111/111/111 
f 110/110/110 112/112/112 111/111/111 
f 111/111/111 112/112/112 113/113/113 
f 112/112/112 114/114/114 113/113/113 
f 117/117/117 116/116/116 115/115/115 
f 116/116/116 118/118/118 115/115/115 
f 121/121/121 120/120/120 119/119/119 
f 120/120/120 123/123/123 122/122/122 
f 126/126/126 125/125/125 124/124/124 
f 125/125/125 127/127/127 124/124/124 
f 130/130/130 129/129/129 128/128/128 
f 133/133/133 132/132/132 131/131/131 
f 136/136/136 135/135/135 134/134/134 
f 138/138/138 137/137/137 134/134/134 

